<svg width="361" height="351" viewBox="0 0 361 351" fill="none" xmlns="http://www.w3.org/2000/svg">
<path d="M173.698 31.3605C163.676 31.3605 155.558 39.4779 155.558 49.5C155.558 59.5221 163.676 67.6395 173.698 67.6395C183.72 67.6395 191.837 59.5221 191.837 49.5C191.837 39.4779 183.72 31.3605 173.698 31.3605ZM173.698 63.1047C166.192 63.1047 160.093 57.0052 160.093 49.5C160.093 41.9948 166.192 35.8953 173.698 35.8953C181.203 35.8953 187.302 41.9948 187.302 49.5C187.302 57.0052 181.203 63.1047 173.698 63.1047ZM180.5 46.0988H175.965V57.436H171.43V46.0988H166.895V42.6977H180.5V46.0988ZM199.206 30.7936L205.442 33.6279L199.206 36.4622L196.372 42.6977L193.538 36.4622L187.302 33.6279L193.538 30.7936L196.372 24.5581L199.206 30.7936ZM199.206 62.5378L205.442 65.3721L199.206 68.2064L196.372 74.4419L193.538 68.2064L187.302 65.3721L193.538 62.5378L196.372 56.3023L199.206 62.5378Z" fill="#ECE9E8"/>
<path d="M183.478 1.76145L183.477 1.76132C182.565 1.26181 181.541 1 180.5 1C179.459 1 178.435 1.26181 177.522 1.76132L177.522 1.76145L139.366 22.6519C139.366 22.6519 139.366 22.652 139.366 22.652C138.39 23.1859 137.576 23.9724 137.009 24.9291C136.441 25.8858 136.141 26.9776 136.141 28.0899V28.0905L136.141 69.5594L136.141 69.5601C136.141 70.6724 136.441 71.7642 137.009 72.7209C137.576 73.6776 138.39 74.4642 139.366 74.9981L177.52 95.8876C178.433 96.3897 179.458 96.653 180.5 96.653C181.542 96.653 182.567 96.3897 183.48 95.8876L221.634 74.9981C222.61 74.4642 223.424 73.6776 223.991 72.7209C224.559 71.7642 224.859 70.6724 224.859 69.5601V69.5594V28.0905V28.0899C224.859 26.9776 224.559 25.8858 223.991 24.9291C223.424 23.9723 222.61 23.1858 221.634 22.6519L183.478 1.76145ZM219.009 70.1998L219.009 70.1999L180.853 91.0903C180.852 91.0903 180.852 91.0904 180.852 91.0904C180.744 91.1495 180.623 91.1804 180.5 91.1804C180.377 91.1804 180.256 91.1495 180.148 91.0904C180.148 91.0904 180.148 91.0903 180.147 91.0903L141.991 70.1999L141.991 70.1998C141.876 70.1367 141.78 70.0437 141.712 69.9307C141.645 69.8179 141.61 69.6892 141.609 69.558V28.092C141.61 27.9608 141.645 27.8321 141.712 27.7193C141.78 27.6063 141.876 27.5133 141.991 27.4502L141.991 27.4501L180.148 6.55956L180.148 6.55958L180.155 6.55564C180.26 6.49676 180.379 6.46585 180.5 6.46585C180.621 6.46585 180.74 6.49676 180.845 6.55564L180.845 6.55567L180.852 6.55956L219.009 27.4501L219.009 27.4502C219.124 27.5133 219.22 27.6063 219.288 27.7193C219.355 27.8323 219.39 27.9613 219.391 28.0928V69.5572C219.39 69.6887 219.355 69.8176 219.288 69.9307C219.22 70.0437 219.124 70.1367 219.009 70.1998Z" fill="#C02327" stroke="#C02327" stroke-width="2"/>
<line x1="180.141" y1="94.325" x2="180.141" y2="130.325" stroke="#C02327" stroke-width="8"/>
<rect x="4" y="134.325" width="353" height="212" rx="16" fill="#303030"/>
<rect x="4" y="134.325" width="353" height="212" rx="16" stroke="#C02327" stroke-width="8"/>
</svg>
