<svg width="40" height="40" viewBox="0 0 40 40" fill="none" xmlns="http://www.w3.org/2000/svg">
<g id="ant-design:bank-filled">
<path id="Vector" d="M34.9215 18.0469C36.1285 18.0469 36.6324 16.4961 35.6519 15.7812L20.734 4.92969C20.5209 4.7736 20.2637 4.68945 19.9996 4.68945C19.7355 4.68945 19.4783 4.7736 19.2652 4.92969L4.34725 15.7812C3.36678 16.4922 3.87068 18.0469 5.08162 18.0469H7.49959V32.6562H4.68709C4.51522 32.6562 4.37459 32.7969 4.37459 32.9688V35C4.37459 35.1719 4.51522 35.3125 4.68709 35.3125H35.3121C35.484 35.3125 35.6246 35.1719 35.6246 35V32.9688C35.6246 32.7969 35.484 32.6562 35.3121 32.6562H32.4996V18.0469H34.9215ZM14.8824 32.6562H10.3121V18.0469H14.8824V32.6562ZM22.2652 32.6562H17.6949V18.0469H22.2652V32.6562ZM29.6871 32.6562H25.0777V18.0469H29.6871V32.6562Z" fill="#EAE8E8"/>
</g>
</svg>
