<svg width="70" height="70" viewBox="0 0 70 70" fill="none" xmlns="http://www.w3.org/2000/svg">
<g id="bi:people-fill">
<path id="Vector" d="M30.625 61.25C30.625 61.25 26.25 61.25 26.25 56.875C26.25 52.5 30.625 39.375 48.125 39.375C65.625 39.375 70 52.5 70 56.875C70 61.25 65.625 61.25 65.625 61.25H30.625ZM48.125 35C51.606 35 54.9444 33.6172 57.4058 31.1558C59.8672 28.6944 61.25 25.356 61.25 21.875C61.25 18.394 59.8672 15.0556 57.4058 12.5942C54.9444 10.1328 51.606 8.75 48.125 8.75C44.644 8.75 41.3056 10.1328 38.8442 12.5942C36.3828 15.0556 35 18.394 35 21.875C35 25.356 36.3828 28.6944 38.8442 31.1558C41.3056 33.6172 44.644 35 48.125 35ZM22.82 61.25C22.1714 59.8842 21.848 58.3867 21.875 56.875C21.875 50.9469 24.85 44.8438 30.345 40.6C27.6023 39.7549 24.7448 39.3416 21.875 39.375C4.375 39.375 0 52.5 0 56.875C0 61.25 4.375 61.25 4.375 61.25H22.82ZM19.6875 35C22.5883 35 25.3703 33.8477 27.4215 31.7965C29.4727 29.7453 30.625 26.9633 30.625 24.0625C30.625 21.1617 29.4727 18.3797 27.4215 16.3285C25.3703 14.2773 22.5883 13.125 19.6875 13.125C16.7867 13.125 14.0047 14.2773 11.9535 16.3285C9.90234 18.3797 8.75 21.1617 8.75 24.0625C8.75 26.9633 9.90234 29.7453 11.9535 31.7965C14.0047 33.8477 16.7867 35 19.6875 35Z" fill="#EAE8E8"/>
</g>
</svg>
