<svg width="558" height="600" viewBox="0 0 558 600" fill="none" xmlns="http://www.w3.org/2000/svg">
<path d="M537.26 136.089L297.323 4.72337C291.713 1.6251 285.409 0 279 0C272.591 0 266.287 1.6251 260.677 4.72337L20.74 136.089C14.7362 139.374 9.72606 144.213 6.23398 150.098C2.7419 155.984 0.896374 162.7 0.890625 169.544V430.313C0.896374 437.156 2.7419 443.872 6.23398 449.758C9.72606 455.644 14.7362 460.482 20.74 463.767L260.677 595.133C266.289 598.227 272.592 599.849 279 599.849C285.408 599.849 291.711 598.227 297.323 595.133L537.26 463.767C543.264 460.482 548.274 455.644 551.766 449.758C555.258 443.872 557.104 437.156 557.109 430.313V169.544C557.104 162.7 555.258 155.984 551.766 150.098C548.274 144.213 543.264 139.374 537.26 136.089ZM524.391 430.313C524.399 431.278 524.151 432.229 523.672 433.067C523.193 433.905 522.5 434.601 521.664 435.084L281.727 566.45C280.924 566.889 280.024 567.119 279.109 567.119C278.194 567.119 277.294 566.889 276.492 566.45L36.3359 435.084C35.4997 434.601 34.8067 433.905 34.3276 433.067C33.8486 432.229 33.6007 431.278 33.6094 430.313V169.544C33.6007 168.579 33.8486 167.628 34.3276 166.79C34.8067 165.951 35.4997 165.255 36.3359 164.773L276.273 33.4068C277.076 32.9677 277.976 32.7375 278.891 32.7375C279.806 32.7375 280.706 32.9677 281.508 33.4068L521.446 164.773C522.282 165.255 522.975 165.951 523.454 166.79C523.933 167.628 524.181 168.579 524.172 169.544L524.391 430.313Z" fill="#C02327"/>
</svg>
