<svg width="51" height="50" viewBox="0 0 51 50" fill="none" xmlns="http://www.w3.org/2000/svg">
<g id="bx:support">
<path id="Vector" d="M25.4994 4.1665C14.0118 4.1665 4.66602 13.5123 4.66602 24.9998V33.6311C4.66602 35.7644 6.53477 37.4998 8.83268 37.4998H10.916C11.4686 37.4998 11.9985 37.2803 12.3892 36.8896C12.7799 36.4989 12.9993 35.969 12.9993 35.4165V24.7019C12.9993 24.1494 12.7799 23.6195 12.3892 23.2288C11.9985 22.8381 11.4686 22.6186 10.916 22.6186H9.02435C10.1827 14.5561 17.1202 8.33317 25.4994 8.33317C33.8785 8.33317 40.816 14.5561 41.9744 22.6186H40.0827C39.5302 22.6186 39.0002 22.8381 38.6095 23.2288C38.2188 23.6195 37.9994 24.1494 37.9994 24.7019V37.4998C37.9994 39.7978 36.1306 41.6665 33.8327 41.6665H29.666V39.5832H21.3327V45.8332H33.8327C38.4285 45.8332 42.166 42.0957 42.166 37.4998C44.4639 37.4998 46.3327 35.7644 46.3327 33.6311V24.9998C46.3327 13.5123 36.9869 4.1665 25.4994 4.1665Z" fill="#D9D9D9"/>
</g>
</svg>
