<svg width="180" height="180" viewBox="0 0 180 180" fill="none" xmlns="http://www.w3.org/2000/svg">
<circle cx="90" cy="90" r="90" fill="#303030"/>
<path d="M116.875 42.6875C118.649 42.6875 120.35 43.3921 121.604 44.6462C122.858 45.9004 123.562 47.6014 123.562 49.375V129.625C123.562 131.399 122.858 133.1 121.604 134.354C120.35 135.608 118.649 136.312 116.875 136.312H63.375C61.6014 136.312 59.9004 135.608 58.6462 134.354C57.3921 133.1 56.6875 131.399 56.6875 129.625V49.375C56.6875 47.6014 57.3921 45.9004 58.6462 44.6462C59.9004 43.3921 61.6014 42.6875 63.375 42.6875H116.875ZM63.375 36C59.8277 36 56.4257 37.4091 53.9174 39.9174C51.4091 42.4257 50 45.8277 50 49.375V129.625C50 133.172 51.4091 136.574 53.9174 139.083C56.4257 141.591 59.8277 143 63.375 143H116.875C120.422 143 123.824 141.591 126.333 139.083C128.841 136.574 130.25 133.172 130.25 129.625V49.375C130.25 45.8277 128.841 42.4257 126.333 39.9174C123.824 37.4091 120.422 36 116.875 36H63.375Z" fill="#EAE8E8"/>
<path d="M63.375 52.7188C63.375 51.8319 63.7273 50.9814 64.3544 50.3544C64.9814 49.7273 65.8319 49.375 66.7188 49.375H113.531C114.418 49.375 115.269 49.7273 115.896 50.3544C116.523 50.9814 116.875 51.8319 116.875 52.7188V66.0938C116.875 66.9806 116.523 67.8311 115.896 68.4581C115.269 69.0852 114.418 69.4375 113.531 69.4375H66.7188C65.8319 69.4375 64.9814 69.0852 64.3544 68.4581C63.7273 67.8311 63.375 66.9806 63.375 66.0938V52.7188ZM63.375 79.4688C63.375 78.5819 63.7273 77.7314 64.3544 77.1044C64.9814 76.4773 65.8319 76.125 66.7188 76.125H73.4062C74.2931 76.125 75.1436 76.4773 75.7706 77.1044C76.3977 77.7314 76.75 78.5819 76.75 79.4688V86.1562C76.75 87.0431 76.3977 87.8936 75.7706 88.5206C75.1436 89.1477 74.2931 89.5 73.4062 89.5H66.7188C65.8319 89.5 64.9814 89.1477 64.3544 88.5206C63.7273 87.8936 63.375 87.0431 63.375 86.1562V79.4688ZM63.375 99.5312C63.375 98.6444 63.7273 97.7939 64.3544 97.1669C64.9814 96.5398 65.8319 96.1875 66.7188 96.1875H73.4062C74.2931 96.1875 75.1436 96.5398 75.7706 97.1669C76.3977 97.7939 76.75 98.6444 76.75 99.5312V106.219C76.75 107.106 76.3977 107.956 75.7706 108.583C75.1436 109.21 74.2931 109.562 73.4062 109.562H66.7188C65.8319 109.562 64.9814 109.21 64.3544 108.583C63.7273 107.956 63.375 107.106 63.375 106.219V99.5312ZM63.375 119.594C63.375 118.707 63.7273 117.856 64.3544 117.229C64.9814 116.602 65.8319 116.25 66.7188 116.25H73.4062C74.2931 116.25 75.1436 116.602 75.7706 117.229C76.3977 117.856 76.75 118.707 76.75 119.594V126.281C76.75 127.168 76.3977 128.019 75.7706 128.646C75.1436 129.273 74.2931 129.625 73.4062 129.625H66.7188C65.8319 129.625 64.9814 129.273 64.3544 128.646C63.7273 128.019 63.375 127.168 63.375 126.281V119.594ZM83.4375 79.4688C83.4375 78.5819 83.7898 77.7314 84.4169 77.1044C85.0439 76.4773 85.8944 76.125 86.7812 76.125H93.4688C94.3556 76.125 95.2061 76.4773 95.8331 77.1044C96.4602 77.7314 96.8125 78.5819 96.8125 79.4688V86.1562C96.8125 87.0431 96.4602 87.8936 95.8331 88.5206C95.2061 89.1477 94.3556 89.5 93.4688 89.5H86.7812C85.8944 89.5 85.0439 89.1477 84.4169 88.5206C83.7898 87.8936 83.4375 87.0431 83.4375 86.1562V79.4688ZM83.4375 99.5312C83.4375 98.6444 83.7898 97.7939 84.4169 97.1669C85.0439 96.5398 85.8944 96.1875 86.7812 96.1875H93.4688C94.3556 96.1875 95.2061 96.5398 95.8331 97.1669C96.4602 97.7939 96.8125 98.6444 96.8125 99.5312V106.219C96.8125 107.106 96.4602 107.956 95.8331 108.583C95.2061 109.21 94.3556 109.562 93.4688 109.562H86.7812C85.8944 109.562 85.0439 109.21 84.4169 108.583C83.7898 107.956 83.4375 107.106 83.4375 106.219V99.5312ZM83.4375 119.594C83.4375 118.707 83.7898 117.856 84.4169 117.229C85.0439 116.602 85.8944 116.25 86.7812 116.25H93.4688C94.3556 116.25 95.2061 116.602 95.8331 117.229C96.4602 117.856 96.8125 118.707 96.8125 119.594V126.281C96.8125 127.168 96.4602 128.019 95.8331 128.646C95.2061 129.273 94.3556 129.625 93.4688 129.625H86.7812C85.8944 129.625 85.0439 129.273 84.4169 128.646C83.7898 128.019 83.4375 127.168 83.4375 126.281V119.594ZM103.5 79.4688C103.5 78.5819 103.852 77.7314 104.479 77.1044C105.106 76.4773 105.957 76.125 106.844 76.125H113.531C114.418 76.125 115.269 76.4773 115.896 77.1044C116.523 77.7314 116.875 78.5819 116.875 79.4688V86.1562C116.875 87.0431 116.523 87.8936 115.896 88.5206C115.269 89.1477 114.418 89.5 113.531 89.5H106.844C105.957 89.5 105.106 89.1477 104.479 88.5206C103.852 87.8936 103.5 87.0431 103.5 86.1562V79.4688ZM103.5 99.5312C103.5 98.6444 103.852 97.7939 104.479 97.1669C105.106 96.5398 105.957 96.1875 106.844 96.1875H113.531C114.418 96.1875 115.269 96.5398 115.896 97.1669C116.523 97.7939 116.875 98.6444 116.875 99.5312V126.281C116.875 127.168 116.523 128.019 115.896 128.646C115.269 129.273 114.418 129.625 113.531 129.625H106.844C105.957 129.625 105.106 129.273 104.479 128.646C103.852 128.019 103.5 127.168 103.5 126.281V99.5312Z" fill="#EAE8E8"/>
</svg>
