<svg width="56" height="55" viewBox="0 0 56 55" fill="none" xmlns="http://www.w3.org/2000/svg">
<g id="Group">
<path id="Vector" fill-rule="evenodd" clip-rule="evenodd" d="M20.6252 52.0833C20.6252 52.7353 20.3662 53.3606 19.9051 53.8216C19.4441 54.2827 18.8188 54.5417 18.1668 54.5417C17.5148 54.5417 16.8896 54.2827 16.4285 53.8216C15.9675 53.3606 15.7085 52.7353 15.7085 52.0833C15.7085 51.4313 15.9675 50.8061 16.4285 50.345C16.8896 49.884 17.5148 49.625 18.1668 49.625C18.8188 49.625 19.4441 49.884 19.9051 50.345C20.3662 50.8061 20.6252 51.4313 20.6252 52.0833ZM30.4585 52.0833C30.4585 52.7353 30.1995 53.3606 29.7385 53.8216C29.2774 54.2827 28.6522 54.5417 28.0002 54.5417C27.3482 54.5417 26.7229 54.2827 26.2619 53.8216C25.8008 53.3606 25.5418 52.7353 25.5418 52.0833C25.5418 51.4313 25.8008 50.8061 26.2619 50.345C26.7229 49.884 27.3482 49.625 28.0002 49.625C28.6522 49.625 29.2774 49.884 29.7385 50.345C30.1995 50.8061 30.4585 51.4313 30.4585 52.0833ZM37.8335 54.5417C38.4855 54.5417 39.1108 54.2827 39.5718 53.8216C40.0328 53.3606 40.2918 52.7353 40.2918 52.0833C40.2918 51.4313 40.0328 50.8061 39.5718 50.345C39.1108 49.884 38.4855 49.625 37.8335 49.625C37.1815 49.625 36.5562 49.884 36.0952 50.345C35.6342 50.8061 35.3752 51.4313 35.3752 52.0833C35.3752 52.7353 35.6342 53.3606 36.0952 53.8216C36.5562 54.2827 37.1815 54.5417 37.8335 54.5417Z" fill="black"/>
<path id="Vector_2" fill-rule="evenodd" clip-rule="evenodd" d="M20.6252 2.95833C20.6252 3.61032 20.3662 4.23561 19.9051 4.69664C19.4441 5.15766 18.8188 5.41667 18.1668 5.41667C17.5148 5.41667 16.8896 5.15766 16.4285 4.69664C15.9675 4.23561 15.7085 3.61032 15.7085 2.95833C15.7085 2.30634 15.9675 1.68106 16.4285 1.22003C16.8896 0.759002 17.5148 0.5 18.1668 0.5C18.8188 0.5 19.4441 0.759002 19.9051 1.22003C20.3662 1.68106 20.6252 2.30634 20.6252 2.95833ZM30.4585 2.95833C30.4585 3.61032 30.1995 4.23561 29.7385 4.69664C29.2774 5.15766 28.6522 5.41667 28.0002 5.41667C27.3482 5.41667 26.7229 5.15766 26.2619 4.69664C25.8008 4.23561 25.5418 3.61032 25.5418 2.95833C25.5418 2.30634 25.8008 1.68106 26.2619 1.22003C26.7229 0.759002 27.3482 0.5 28.0002 0.5C28.6522 0.5 29.2774 0.759002 29.7385 1.22003C30.1995 1.68106 30.4585 2.30634 30.4585 2.95833ZM37.8335 5.41667C38.4855 5.41667 39.1108 5.15766 39.5718 4.69664C40.0328 4.23561 40.2918 3.61032 40.2918 2.95833C40.2918 2.30634 40.0328 1.68106 39.5718 1.22003C39.1108 0.759002 38.4855 0.5 37.8335 0.5C37.1815 0.5 36.5562 0.759002 36.0952 1.22003C35.6342 1.68106 35.3752 2.30634 35.3752 2.95833C35.3752 3.61032 35.6342 4.23561 36.0952 4.69664C36.5562 5.15766 37.1815 5.41667 37.8335 5.41667ZM20.6252 52.125C20.6252 52.777 20.3662 53.4023 19.9051 53.8633C19.4441 54.3243 18.8188 54.5833 18.1668 54.5833C17.5148 54.5833 16.8896 54.3243 16.4285 53.8633C15.9675 53.4023 15.7085 52.777 15.7085 52.125C15.7085 51.473 15.9675 50.8477 16.4285 50.3867C16.8896 49.9257 17.5148 49.6667 18.1668 49.6667C18.8188 49.6667 19.4441 49.9257 19.9051 50.3867C20.3662 50.8477 20.6252 51.473 20.6252 52.125ZM30.4585 52.125C30.4585 52.777 30.1995 53.4023 29.7385 53.8633C29.2774 54.3243 28.6522 54.5833 28.0002 54.5833C27.3482 54.5833 26.7229 54.3243 26.2619 53.8633C25.8008 53.4023 25.5418 52.777 25.5418 52.125C25.5418 51.473 25.8008 50.8477 26.2619 50.3867C26.7229 49.9257 27.3482 49.6667 28.0002 49.6667C28.6522 49.6667 29.2774 49.9257 29.7385 50.3867C30.1995 50.8477 30.4585 51.473 30.4585 52.125ZM37.8335 54.5833C38.4855 54.5833 39.1108 54.3243 39.5718 53.8633C40.0328 53.4023 40.2918 52.777 40.2918 52.125C40.2918 51.473 40.0328 50.8477 39.5718 50.3867C39.1108 49.9257 38.4855 49.6667 37.8335 49.6667C37.1815 49.6667 36.5562 49.9257 36.0952 50.3867C35.6342 50.8477 35.3752 51.473 35.3752 52.125C35.3752 52.777 35.6342 53.4023 36.0952 53.8633C36.5562 54.3243 37.1815 54.5833 37.8335 54.5833ZM55.0418 37.375C55.0418 36.723 54.7828 36.0977 54.3218 35.6367C53.8608 35.1757 53.2355 34.9167 52.5835 34.9167C51.9315 34.9167 51.3062 35.1757 50.8452 35.6367C50.3842 36.0977 50.1252 36.723 50.1252 37.375C50.1252 38.027 50.3842 38.6523 50.8452 39.1133C51.3062 39.5743 51.9315 39.8333 52.5835 39.8333C53.2355 39.8333 53.8608 39.5743 54.3218 39.1133C54.7828 38.6523 55.0418 38.027 55.0418 37.375ZM55.0418 27.5417C55.0418 26.8897 54.7828 26.2644 54.3218 25.8034C53.8608 25.3423 53.2355 25.0833 52.5835 25.0833C51.9315 25.0833 51.3062 25.3423 50.8452 25.8034C50.3842 26.2644 50.1252 26.8897 50.1252 27.5417C50.1252 28.1937 50.3842 28.8189 50.8452 29.28C51.3062 29.741 51.9315 30 52.5835 30C53.2355 30 53.8608 29.741 54.3218 29.28C54.7828 28.8189 55.0418 28.1937 55.0418 27.5417ZM52.5835 15.25C53.2355 15.25 53.8608 15.509 54.3218 15.97C54.7828 16.4311 55.0418 17.0563 55.0418 17.7083C55.0418 18.3603 54.7828 18.9856 54.3218 19.4466C53.8608 19.9077 53.2355 20.1667 52.5835 20.1667C51.9315 20.1667 51.3062 19.9077 50.8452 19.4466C50.3842 18.9856 50.1252 18.3603 50.1252 17.7083C50.1252 17.0563 50.3842 16.4311 50.8452 15.97C51.3062 15.509 51.9315 15.25 52.5835 15.25ZM3.41683 34.9167C4.06882 34.9167 4.69411 35.1757 5.15513 35.6367C5.61616 36.0977 5.87516 36.723 5.87516 37.375C5.87516 38.027 5.61616 38.6523 5.15513 39.1133C4.69411 39.5743 4.06882 39.8333 3.41683 39.8333C2.76484 39.8333 2.13955 39.5743 1.67853 39.1133C1.2175 38.6523 0.958496 38.027 0.958496 37.375C0.958496 36.723 1.2175 36.0977 1.67853 35.6367C2.13955 35.1757 2.76484 34.9167 3.41683 34.9167ZM3.41683 25.0833C4.06882 25.0833 4.69411 25.3423 5.15513 25.8034C5.61616 26.2644 5.87516 26.8897 5.87516 27.5417C5.87516 28.1937 5.61616 28.8189 5.15513 29.28C4.69411 29.741 4.06882 30 3.41683 30C2.76484 30 2.13955 29.741 1.67853 29.28C1.2175 28.8189 0.958496 28.1937 0.958496 27.5417C0.958496 26.8897 1.2175 26.2644 1.67853 25.8034C2.13955 25.3423 2.76484 25.0833 3.41683 25.0833ZM5.87516 17.7083C5.87516 17.0563 5.61616 16.4311 5.15513 15.97C4.69411 15.509 4.06882 15.25 3.41683 15.25C2.76484 15.25 2.13955 15.509 1.67853 15.97C1.2175 16.4311 0.958496 17.0563 0.958496 17.7083C0.958496 18.3603 1.2175 18.9856 1.67853 19.4466C2.13955 19.9077 2.76484 20.1667 3.41683 20.1667C4.06882 20.1667 4.69411 19.9077 5.15513 19.4466C5.61616 18.9856 5.87516 18.3603 5.87516 17.7083ZM40.2918 12.7917H15.7085C15.0565 12.7917 14.4312 13.0507 13.9702 13.5117C13.5092 13.9727 13.2502 14.598 13.2502 15.25V39.8333C13.2502 40.4853 13.5092 41.1106 13.9702 41.5716C14.4312 42.0327 15.0565 42.2917 15.7085 42.2917H40.2918C40.9438 42.2917 41.5691 42.0327 42.0301 41.5716C42.4912 41.1106 42.7502 40.4853 42.7502 39.8333V15.25C42.7502 14.598 42.4912 13.9727 42.0301 13.5117C41.5691 13.0507 40.9438 12.7917 40.2918 12.7917ZM15.7085 7.875C13.7525 7.875 11.8767 8.65201 10.4936 10.0351C9.1105 11.4182 8.3335 13.294 8.3335 15.25V39.8333C8.3335 41.7893 9.1105 43.6652 10.4936 45.0482C11.8767 46.4313 13.7525 47.2083 15.7085 47.2083H40.2918C42.2478 47.2083 44.1237 46.4313 45.5067 45.0482C46.8898 43.6652 47.6668 41.7893 47.6668 39.8333V15.25C47.6668 13.294 46.8898 11.4182 45.5067 10.0351C44.1237 8.65201 42.2478 7.875 40.2918 7.875H15.7085Z" fill="#ECE9E8"/>
</g>
</svg>
