<svg width="57" height="56" viewBox="0 0 57 56" fill="none" xmlns="http://www.w3.org/2000/svg">
<g id="ph:certificate-bold">
<path id="Vector" d="M54.75 28C54.7513 26.1734 54.3127 24.3734 53.4712 22.7521C52.6298 21.1308 51.4103 19.7361 49.9159 18.6857C48.4215 17.6354 46.6961 16.9604 44.8857 16.7178C43.0753 16.4752 41.2331 16.6722 39.5149 17.292C37.7967 17.9119 36.253 18.9364 35.0144 20.279C33.7759 21.6215 32.8788 23.2426 32.3992 25.0051C31.9195 26.7676 31.8714 28.6197 32.2588 30.4047C32.6462 32.1897 33.4579 33.8552 34.625 35.2603V48.125C34.6239 48.5863 34.7444 49.0397 34.9744 49.4396C35.2044 49.8395 35.5356 50.1717 35.9349 50.4029C36.3341 50.634 36.7872 50.7558 37.2485 50.7561C37.7098 50.7563 38.163 50.635 38.5625 50.4044L43.375 47.6481L48.1984 50.4044C48.5976 50.6323 49.0497 50.7514 49.5094 50.7498C49.9691 50.7481 50.4203 50.6258 50.8179 50.395C51.2154 50.1642 51.5454 49.8331 51.7748 49.4347C52.0042 49.0363 52.125 48.5847 52.125 48.125V35.2603C53.8234 33.2224 54.7524 30.6529 54.75 28ZM43.375 21.875C44.5864 21.875 45.7706 22.2342 46.7779 22.9072C47.7851 23.5803 48.5702 24.5369 49.0338 25.6561C49.4973 26.7753 49.6186 28.0068 49.3823 29.1949C49.146 30.3831 48.5626 31.4744 47.706 32.331C46.8494 33.1876 45.7581 33.771 44.5699 34.0073C43.3818 34.2436 42.1503 34.1223 41.0311 33.6588C39.9119 33.1952 38.9553 32.4101 38.2822 31.4029C37.6092 30.3956 37.25 29.2114 37.25 28C37.25 26.3755 37.8953 24.8176 39.044 23.669C40.1926 22.5203 41.7505 21.875 43.375 21.875ZM44.6875 42.3456C44.2911 42.1193 43.8424 42.0002 43.3859 42.0002C42.9294 42.0002 42.4808 42.1193 42.0844 42.3456L39.875 43.6012V38.8216C42.15 39.5594 44.6 39.5594 46.875 38.8216V43.6012L44.6875 42.3456ZM31.125 42C31.125 42.6962 30.8484 43.3639 30.3562 43.8562C29.8639 44.3484 29.1962 44.625 28.5 44.625H9.25C8.08968 44.625 6.97688 44.1641 6.15641 43.3436C5.33594 42.5231 4.875 41.4103 4.875 40.25V12.25C4.875 11.0897 5.33594 9.97688 6.15641 9.15641C6.97688 8.33594 8.08968 7.875 9.25 7.875H47.75C48.9103 7.875 50.0231 8.33594 50.8436 9.15641C51.6641 9.97688 52.125 11.0897 52.125 12.25C52.1259 12.8699 51.9074 13.4702 51.5082 13.9444C51.109 14.4187 50.5548 14.7363 49.9438 14.8411C49.3328 14.9459 48.7044 14.8311 48.17 14.517C47.6355 14.2029 47.2295 13.7098 47.0238 13.125H10.125V39.375H28.5C29.1962 39.375 29.8639 39.6516 30.3562 40.1438C30.8484 40.6361 31.125 41.3038 31.125 42ZM28.5 30.625C28.5 31.3212 28.2234 31.9889 27.7312 32.4812C27.2389 32.9734 26.5712 33.25 25.875 33.25H17.125C16.4288 33.25 15.7611 32.9734 15.2688 32.4812C14.7766 31.9889 14.5 31.3212 14.5 30.625C14.5 29.9288 14.7766 29.2611 15.2688 28.7688C15.7611 28.2766 16.4288 28 17.125 28H25.875C26.5712 28 27.2389 28.2766 27.7312 28.7688C28.2234 29.2611 28.5 29.9288 28.5 30.625ZM28.5 21.875C28.5 22.5712 28.2234 23.2389 27.7312 23.7312C27.2389 24.2234 26.5712 24.5 25.875 24.5H17.125C16.4288 24.5 15.7611 24.2234 15.2688 23.7312C14.7766 23.2389 14.5 22.5712 14.5 21.875C14.5 21.1788 14.7766 20.5111 15.2688 20.0188C15.7611 19.5266 16.4288 19.25 17.125 19.25H25.875C26.5712 19.25 27.2389 19.5266 27.7312 20.0188C28.2234 20.5111 28.5 21.1788 28.5 21.875Z" fill="#EAE8E8"/>
</g>
</svg>
