<svg width="40" height="40" viewBox="0 0 40 40" fill="none" xmlns="http://www.w3.org/2000/svg">
<path d="M19.9993 36.6668C16.1382 35.6946 12.9505 33.479 10.436 30.0202C7.92157 26.5613 6.66491 22.7213 6.66602 18.5002V8.3335L19.9993 3.3335L33.3327 8.3335V18.5002C33.3327 22.7224 32.076 26.5629 29.5627 30.0218C27.0494 33.4807 23.8616 35.6957 19.9993 36.6668ZM19.9993 33.1668C22.8882 32.2502 25.2771 30.4168 27.166 27.6668C29.0549 24.9168 29.9993 21.8613 29.9993 18.5002V10.6252L19.9993 6.87516L9.99935 10.6252V18.5002C9.99935 21.8613 10.9438 24.9168 12.8327 27.6668C14.7216 30.4168 17.1105 32.2502 19.9993 33.1668Z" fill="#EAE8E8"/>
<path d="M23.6327 20.6665C23.6993 20.1165 23.7493 19.5665 23.7493 18.9998C23.7493 18.4332 23.6993 17.8832 23.6327 17.3332H26.4493C26.5827 17.8665 26.666 18.4248 26.666 18.9998C26.666 19.5748 26.5827 20.1332 26.4493 20.6665M22.1577 25.2998C22.6577 24.3748 23.041 23.3748 23.3077 22.3332H25.766C24.9587 23.7234 23.6778 24.7765 22.1577 25.2998ZM21.9493 20.6665H18.0493C17.966 20.1165 17.916 19.5665 17.916 18.9998C17.916 18.4332 17.966 17.8748 18.0493 17.3332H21.9493C22.0243 17.8748 22.0827 18.4332 22.0827 18.9998C22.0827 19.5665 22.0243 20.1165 21.9493 20.6665ZM19.9993 25.6332C19.3077 24.6332 18.7493 23.5248 18.4077 22.3332H21.591C21.2493 23.5248 20.691 24.6332 19.9993 25.6332ZM16.666 15.6665H14.2327C15.0317 14.2725 16.3117 13.2177 17.8327 12.6998C17.3327 13.6248 16.9577 14.6248 16.666 15.6665ZM14.2327 22.3332H16.666C16.9577 23.3748 17.3327 24.3748 17.8327 25.2998C16.3149 24.7762 15.0367 23.7229 14.2327 22.3332ZM13.5493 20.6665C13.416 20.1332 13.3327 19.5748 13.3327 18.9998C13.3327 18.4248 13.416 17.8665 13.5493 17.3332H16.366C16.2993 17.8832 16.2493 18.4332 16.2493 18.9998C16.2493 19.5665 16.2993 20.1165 16.366 20.6665M19.9993 12.3582C20.691 13.3582 21.2493 14.4748 21.591 15.6665H18.4077C18.7493 14.4748 19.3077 13.3582 19.9993 12.3582ZM25.766 15.6665H23.3077C23.0469 14.6344 22.6607 13.6381 22.1577 12.6998C23.691 13.2248 24.966 14.2832 25.766 15.6665ZM19.9993 10.6665C15.391 10.6665 11.666 14.4165 11.666 18.9998C11.666 21.21 12.544 23.3296 14.1068 24.8924C14.8806 25.6662 15.7993 26.28 16.8103 26.6988C17.8214 27.1176 18.905 27.3332 19.9993 27.3332C22.2095 27.3332 24.3291 26.4552 25.8919 24.8924C27.4547 23.3296 28.3327 21.21 28.3327 18.9998C28.3327 17.9055 28.1171 16.8219 27.6983 15.8108C27.2796 14.7998 26.6657 13.8811 25.8919 13.1073C25.1181 12.3335 24.1994 11.7196 23.1884 11.3008C22.1773 10.8821 21.0937 10.6665 19.9993 10.6665Z" fill="#EAE8E8"/>
</svg>
