<svg width="40" height="40" viewBox="0 0 40 40" fill="none" xmlns="http://www.w3.org/2000/svg">
<g id="tdesign:shop">
<path id="Vector" d="M12.5 9.1665C12.5 7.17738 13.2902 5.26973 14.6967 3.8632C16.1032 2.45668 18.0109 1.6665 20 1.6665C21.9891 1.6665 23.8968 2.45668 25.3033 3.8632C26.7098 5.26973 27.5 7.17738 27.5 9.1665V11.6665H35V38.3332H5V11.6665H12.5V9.1665ZM12.5 14.9998H8.33333V34.9998H31.6667V14.9998H27.5V19.9998H24.1667V14.9998H15.8333V19.9998H12.5V14.9998ZM24.1667 11.6665V9.1665C24.1667 8.06144 23.7277 7.00163 22.9463 6.22023C22.1649 5.43882 21.1051 4.99984 20 4.99984C18.8949 4.99984 17.8351 5.43882 17.0537 6.22023C16.2723 7.00163 15.8333 8.06144 15.8333 9.1665V11.6665H24.1667Z" fill="#EAE8E8"/>
</g>
</svg>
