<svg width="76" height="70" viewBox="0 0 76 70" fill="none" xmlns="http://www.w3.org/2000/svg">
<path id="Vector" d="M75.1782 28.0032C75.1033 27.6242 74.9476 27.2657 74.7217 26.9522C74.4959 26.6387 74.2052 26.3775 73.8694 26.1863L63.833 20.4666L63.7927 9.1551C63.7915 8.76553 63.7057 8.38087 63.5413 8.02769C63.3769 7.67451 63.1378 7.36122 62.8405 7.10946C59.1999 4.0299 55.0074 1.66992 50.486 0.154984C50.1299 0.0344664 49.7525 -0.0101341 49.3782 0.0240555C49.0039 0.058245 48.6408 0.170467 48.3125 0.353492L38.1886 6.01263L28.0547 0.343398C27.7261 0.159342 27.3626 0.0462731 26.9876 0.0115C26.6127 -0.0232731 26.2346 0.0210233 25.8778 0.141526C21.3591 1.66619 17.1712 4.03531 13.5367 7.12292C13.2399 7.37431 13.001 7.68706 12.8366 8.03962C12.6723 8.39219 12.5863 8.77619 12.5846 9.16519L12.5341 20.4868L2.4977 26.2065C2.16192 26.3977 1.87124 26.6589 1.6454 26.9724C1.41956 27.2859 1.26387 27.6443 1.1889 28.0234C0.270368 32.6391 0.270368 37.3906 1.1889 42.0064C1.26387 42.3854 1.41956 42.7438 1.6454 43.0573C1.87124 43.3708 2.16192 43.632 2.4977 43.8232L12.5341 49.5429L12.5745 60.8578C12.5757 61.2474 12.6614 61.632 12.8258 61.9852C12.9902 62.3384 13.2293 62.6517 13.5266 62.9034C17.1673 65.983 21.3598 68.343 25.8812 69.8579C26.2372 69.9784 26.6146 70.023 26.9889 69.9888C27.3633 69.9547 27.7263 69.8424 28.0547 69.6594L38.1886 63.9834L48.3226 69.6527C48.7236 69.8761 49.1757 69.992 49.6347 69.9891C49.9287 69.989 50.2207 69.9413 50.4994 69.8478C55.017 68.3238 59.2046 65.9572 62.8405 62.8732C63.1374 62.6218 63.3762 62.309 63.5406 61.9565C63.705 61.6039 63.791 61.2199 63.7927 60.8309L63.8431 49.5093L73.8795 43.7896C74.2153 43.5984 74.506 43.3372 74.7318 43.0237C74.9577 42.7102 75.1134 42.3517 75.1883 41.9727C76.1017 37.3607 76.0983 32.6139 75.1782 28.0032ZM38.1886 48.4562C35.5268 48.4562 32.9249 47.6668 30.7117 46.1881C28.4985 44.7093 26.7735 42.6074 25.7549 40.1482C24.7363 37.6891 24.4698 34.9831 24.9891 32.3725C25.5084 29.7619 26.7901 27.3639 28.6723 25.4817C30.5544 23.5996 32.9524 22.3178 35.5631 21.7985C38.1737 21.2792 40.8797 21.5457 43.3388 22.5644C45.798 23.583 47.8998 25.3079 49.3786 27.5211C50.8574 29.7343 51.6467 32.3363 51.6467 34.998C51.6467 38.5674 50.2288 41.9905 47.7049 44.5144C45.181 47.0382 41.7579 48.4562 38.1886 48.4562Z" fill="#EAE8E8"/>
</svg>
