<svg width="100" height="100" viewBox="0 0 100 100" fill="none" xmlns="http://www.w3.org/2000/svg">
<g id="eos-icons:virtual-reality">
<path id="Vector" d="M87.4993 41.6666H95.8327V58.3333H87.4993V41.6666ZM4.16602 41.6666H12.4993V58.3333H4.16602V41.6666ZM74.9993 37.5C74.9993 35.2898 74.1214 33.1702 72.5586 31.6074C70.9958 30.0446 68.8762 29.1666 66.666 29.1666H33.3327C31.1225 29.1666 29.0029 30.0446 27.4401 31.6074C25.8773 33.1702 24.9993 35.2898 24.9993 37.5C22.7892 37.5 20.6696 38.3779 19.1068 39.9407C17.544 41.5035 16.666 43.6232 16.666 45.8333V54.1666C16.666 56.3768 17.544 58.4964 19.1068 60.0592C20.6696 61.622 22.7892 62.5 24.9993 62.5C24.9993 64.7101 25.8773 66.8297 27.4401 68.3925C29.0029 69.9553 31.1225 70.8333 33.3327 70.8333H37.616L44.291 59.2666C44.8696 58.2647 45.7017 57.4326 46.7037 56.8542C47.7057 56.2757 48.8423 55.9712 49.9993 55.9712C51.1564 55.9712 52.293 56.2757 53.295 56.8542C54.297 57.4326 55.1291 58.2647 55.7077 59.2666L62.3827 70.8333H66.666C68.8762 70.8333 70.9958 69.9553 72.5586 68.3925C74.1214 66.8297 74.9993 64.7101 74.9993 62.5C77.2095 62.5 79.3291 61.622 80.8919 60.0592C82.4547 58.4964 83.3327 56.3768 83.3327 54.1666V45.8333C83.3327 43.6232 82.4547 41.5035 80.8919 39.9407C79.3291 38.3779 77.2095 37.5 74.9993 37.5ZM70.8327 50H29.166V41.6666H70.8327V50Z" fill="#D9D9D9"/>
</g>
</svg>
