<svg width="70" height="70" viewBox="0 0 70 70" fill="none" xmlns="http://www.w3.org/2000/svg">
<g id="eos-icons:ai">
<path id="Vector" d="M61.25 32.0833V26.25H55.4167V20.4167C55.4121 18.871 54.796 17.3899 53.703 16.297C52.6101 15.204 51.129 14.5879 49.5833 14.5833H43.75V8.75H37.9167V14.5833H32.0833V8.75H26.25V14.5833H20.4167C18.871 14.5879 17.3899 15.204 16.297 16.297C15.204 17.3899 14.5879 18.871 14.5833 20.4167V26.25H8.75V32.0833H14.5833V37.9167H8.75V43.75H14.5833V49.5833C14.5879 51.129 15.204 52.6101 16.297 53.703C17.3899 54.796 18.871 55.4121 20.4167 55.4167H26.25V61.25H32.0833V55.4167H37.9167V61.25H43.75V55.4167H49.5833C51.129 55.4121 52.6101 54.796 53.703 53.703C54.796 52.6101 55.4121 51.129 55.4167 49.5833V43.75H61.25V37.9167H55.4167V32.0833H61.25ZM49.5833 49.5833H20.4167V20.4167H49.5833V49.5833Z" fill="#EAE8E8"/>
<path id="Vector_2" d="M33.136 23.3334H29.2131L23.3506 46.6667H26.346L27.6993 41.198H34.4543L35.7727 46.6667H38.8702L33.136 23.3334ZM28.0931 38.8617L31.0623 26.1042H31.1964L34.0635 38.8617H28.0931ZM41.5448 23.3334H44.4614V46.6667H41.5448V23.3334Z" fill="#EAE8E8"/>
</g>
</svg>
