<svg width="100" height="100" viewBox="0 0 100 100" fill="none" xmlns="http://www.w3.org/2000/svg">
<g id="ep:avatar">
<path id="Vector" d="M61.4 51.65C69.8297 54.1145 77.2337 59.2444 82.5025 66.271C87.7713 73.2976 90.6212 81.8424 90.625 90.625H9.375C9.3768 81.8419 12.2259 73.2962 17.495 66.2692C22.7641 59.2422 30.1693 54.1127 38.6 51.65L50 68.75L61.4 51.65ZM70.3125 29.6875C70.3125 35.0747 68.1724 40.2413 64.3631 44.0506C60.5538 47.8599 55.3872 50 50 50C44.6128 50 39.4462 47.8599 35.6369 44.0506C31.8276 40.2413 29.6875 35.0747 29.6875 29.6875C29.6875 24.3003 31.8276 19.1337 35.6369 15.3244C39.4462 11.5151 44.6128 9.375 50 9.375C55.3872 9.375 60.5538 11.5151 64.3631 15.3244C68.1724 19.1337 70.3125 24.3003 70.3125 29.6875Z" fill="#D9D9D9"/>
</g>
</svg>
