<svg width="19" height="19" viewBox="0 0 19 19" fill="none" xmlns="http://www.w3.org/2000/svg">
<g id="ep:arrow-up-bold">
<path id="Vector" d="M5.29457 0.966153C5.07194 1.18884 4.94688 1.49083 4.94688 1.80572C4.94688 2.1206 5.07194 2.42259 5.29457 2.64528L11.1727 8.5234L5.29457 14.4015C5.07825 14.6255 4.95856 14.9255 4.96126 15.2368C4.96397 15.5482 5.08886 15.846 5.30903 16.0662C5.5292 16.2864 5.82704 16.4112 6.1384 16.414C6.44976 16.4167 6.74973 16.297 6.97369 16.0807L13.6914 9.36297C13.914 9.14028 14.0391 8.83829 14.0391 8.5234C14.0391 8.20852 13.914 7.90653 13.6914 7.68384L6.97369 0.966153C6.751 0.743531 6.44901 0.618469 6.13413 0.618469C5.81925 0.618469 5.51726 0.743531 5.29457 0.966153Z" fill="#C02327"/>
</g>
</svg>
