<svg width="40" height="40" viewBox="0 0 40 40" fill="none" xmlns="http://www.w3.org/2000/svg">
<g id="mdi:dollar">
<path id="Vector" d="M11.667 25H15.0003C15.0003 26.8 17.2837 28.3333 20.0003 28.3333C22.717 28.3333 25.0003 26.8 25.0003 25C25.0003 23.1667 23.267 22.5 19.6003 21.6167C16.067 20.7333 11.667 19.6333 11.667 15C11.667 12.0167 14.117 9.48333 17.5003 8.63333V5H22.5003V8.63333C25.8837 9.48333 28.3337 12.0167 28.3337 15H25.0003C25.0003 13.2 22.717 11.6667 20.0003 11.6667C17.2837 11.6667 15.0003 13.2 15.0003 15C15.0003 16.8333 16.7337 17.5 20.4003 18.3833C23.9337 19.2667 28.3337 20.3667 28.3337 25C28.3337 27.9833 25.8837 30.5167 22.5003 31.3667V35H17.5003V31.3667C14.117 30.5167 11.667 27.9833 11.667 25Z" fill="#EAE8E8"/>
</g>
</svg>
