<svg width="227" height="98" viewBox="0 0 227 98" fill="none" xmlns="http://www.w3.org/2000/svg">
<path id="Vector 24" d="M206.621 0.87868C205.45 -0.292893 203.55 -0.292893 202.379 0.87868L183.287 19.9706C182.115 21.1421 182.115 23.0416 183.287 24.2132C184.458 25.3848 186.358 25.3848 187.529 24.2132L204.5 7.24264L221.471 24.2132C222.642 25.3848 224.542 25.3848 225.713 24.2132C226.885 23.0416 226.885 21.1421 225.713 19.9706L206.621 0.87868ZM204.5 95V98H207.5V95H204.5ZM201.5 3V95H207.5V3H201.5ZM204.5 92H0V98H204.5V92Z" fill="#AE2428"/>
</svg>
