<svg width="241" height="123" viewBox="0 0 241 123" fill="none" xmlns="http://www.w3.org/2000/svg">
<path id="Vector 22" d="M3.5 100H0.5V103H3.5V100ZM240.121 102.121C241.293 100.95 241.293 99.0503 240.121 97.8787L221.029 78.7868C219.858 77.6152 217.958 77.6152 216.787 78.7868C215.615 79.9584 215.615 81.8579 216.787 83.0294L233.757 100L216.787 116.971C215.615 118.142 215.615 120.042 216.787 121.213C217.958 122.385 219.858 122.385 221.029 121.213L240.121 102.121ZM0.5 0V100H6.5V0H0.5ZM3.5 103H238V97H3.5V103Z" fill="#C02327"/>
</svg>
