<svg width="51" height="50" viewBox="0 0 51 50" fill="none" xmlns="http://www.w3.org/2000/svg">
<g id="fluent-mdl2:team-favorite" clip-path="url(#clip0_1050_1306)">
<path id="Vector" d="M21.6914 35.6687C22.7493 36.2058 23.7015 36.865 24.5479 37.6463C25.3942 38.4275 26.1266 39.3064 26.7451 40.283C27.3636 41.2596 27.8275 42.3012 28.1367 43.408C28.446 44.5148 28.6087 45.6704 28.625 46.8748H25.5C25.5 45.589 25.2559 44.3764 24.7676 43.2371C24.2793 42.0978 23.612 41.1049 22.7656 40.2586C21.9193 39.4122 20.9183 38.7368 19.7627 38.2322C18.6071 37.7277 17.3945 37.4835 16.125 37.4998C14.8229 37.4998 13.6104 37.7439 12.4873 38.2322C11.3643 38.7205 10.3714 39.3878 9.50879 40.2342C8.64616 41.0805 7.9707 42.0815 7.48242 43.2371C6.99414 44.3927 6.75 45.6053 6.75 46.8748H3.625C3.625 45.6866 3.78776 44.5392 4.11328 43.4324C4.4388 42.3256 4.90267 41.284 5.50488 40.3074C6.1071 39.3308 6.83138 38.4519 7.67773 37.6707C8.52409 36.8894 9.48438 36.2221 10.5586 35.6687C9.35417 34.7736 8.41829 33.6668 7.75098 32.3484C7.08366 31.0301 6.75 29.6222 6.75 28.1248C6.75 26.839 6.99414 25.6264 7.48242 24.4871C7.9707 23.3478 8.63802 22.3549 9.48438 21.5086C10.3307 20.6622 11.3236 19.9868 12.4629 19.4822C13.6022 18.9777 14.8229 18.7335 16.125 18.7498C17.6224 18.7498 19.0303 19.0834 20.3486 19.7508C21.667 20.4181 22.7738 21.354 23.6689 22.5584C24.2874 21.3377 25.0768 20.2472 26.0371 19.2869C26.9974 18.3266 28.0879 17.5372 29.3086 16.9187C28.1042 16.0236 27.1683 14.9168 26.501 13.5984C25.8337 12.2801 25.5 10.8722 25.5 9.37479C25.5 8.08898 25.7441 6.87641 26.2324 5.73709C26.7207 4.59777 27.388 3.60493 28.2344 2.75858C29.0807 1.91222 30.0736 1.23677 31.2129 0.732208C32.3522 0.227651 33.5729 -0.0164897 34.875 -0.000213623C36.1608 -0.000213623 37.3734 0.243927 38.5127 0.732208C39.652 1.22049 40.6449 1.88781 41.4912 2.73416C42.3376 3.58052 43.013 4.58149 43.5176 5.73709C44.0221 6.89269 44.2663 8.10526 44.25 9.37479C44.25 10.8722 43.9163 12.2801 43.249 13.5984C42.5817 14.9168 41.6458 16.0236 40.4414 16.9187C41.4993 17.4558 42.4515 18.115 43.2979 18.8963C44.1442 19.6775 44.8766 20.5564 45.4951 21.533C46.1136 22.5096 46.5775 23.5512 46.8867 24.658C47.196 25.7648 47.3587 26.9204 47.375 28.1248H44.25C44.25 26.839 44.0059 25.6264 43.5176 24.4871C43.0293 23.3478 42.362 22.3549 41.5156 21.5086C40.6693 20.6622 39.6683 19.9868 38.5127 19.4822C37.3571 18.9777 36.1445 18.7335 34.875 18.7498C33.5729 18.7498 32.3604 18.9939 31.2373 19.4822C30.1143 19.9705 29.1214 20.6378 28.2588 21.4842C27.3962 22.3305 26.7207 23.3315 26.2324 24.4871C25.7441 25.6427 25.5 26.8553 25.5 28.1248C25.5 29.6222 25.1663 31.0301 24.499 32.3484C23.8317 33.6668 22.8958 34.7736 21.6914 35.6687ZM28.625 9.37479C28.625 10.2374 28.7878 11.0431 29.1133 11.7918C29.4388 12.5405 29.8864 13.2078 30.4561 13.7937C31.0257 14.3797 31.6849 14.8273 32.4336 15.1365C33.1823 15.4458 33.9961 15.6085 34.875 15.6248C35.7376 15.6248 36.5433 15.462 37.292 15.1365C38.0407 14.811 38.708 14.3634 39.2939 13.7937C39.8799 13.2241 40.3275 12.5649 40.6367 11.8162C40.946 11.0675 41.1087 10.2537 41.125 9.37479C41.125 8.51216 40.9622 7.70649 40.6367 6.95779C40.3112 6.2091 39.8636 5.54178 39.2939 4.95584C38.7243 4.3699 38.0651 3.92231 37.3164 3.61307C36.5677 3.30382 35.7539 3.14106 34.875 3.12479C34.0124 3.12479 33.2067 3.28755 32.458 3.61307C31.7093 3.93859 31.042 4.38618 30.4561 4.95584C29.8701 5.5255 29.4225 6.18468 29.1133 6.93338C28.804 7.68208 28.6413 8.49588 28.625 9.37479ZM9.875 28.1248C9.875 28.9874 10.0378 29.7931 10.3633 30.5418C10.6888 31.2905 11.1364 31.9578 11.7061 32.5437C12.2757 33.1297 12.9349 33.5773 13.6836 33.8865C14.4323 34.1958 15.2461 34.3585 16.125 34.3748C16.9876 34.3748 17.7933 34.212 18.542 33.8865C19.2907 33.561 19.958 33.1134 20.5439 32.5437C21.1299 31.9741 21.5775 31.3149 21.8867 30.5662C22.196 29.8175 22.3587 29.0037 22.375 28.1248C22.375 27.2622 22.2122 26.4565 21.8867 25.7078C21.5612 24.9591 21.1136 24.2918 20.5439 23.7058C19.9743 23.1199 19.3151 22.6723 18.5664 22.3631C17.8177 22.0538 17.0039 21.8911 16.125 21.8748C15.2624 21.8748 14.4567 22.0375 13.708 22.3631C12.9593 22.6886 12.292 23.1362 11.7061 23.7058C11.1201 24.2755 10.6725 24.9347 10.3633 25.6834C10.054 26.4321 9.89128 27.2459 9.875 28.1248ZM46.5938 49.9998L39.5625 44.5066L32.5312 49.9998L35.3633 41.2107L28.625 35.9373H37.0479L39.5625 28.1248L42.0771 35.9373H50.5L43.7617 41.2107L46.5938 49.9998Z" fill="#EAE8E8"/>
</g>
<defs>
<clipPath id="clip0_1050_1306">
<rect width="50" height="50" fill="white" transform="translate(0.5)"/>
</clipPath>
</defs>
</svg>
