<svg width="1357" height="527" viewBox="0 0 1357 527" fill="none" xmlns="http://www.w3.org/2000/svg">
<path d="M814.5 476.5C702.667 422.333 478.2 313 475 309L598.5 264L1185 476.5H814.5Z" fill="#A91A1E"/>
<path d="M513.5 193.5L406 145.5V276L513.5 329.5V193.5Z" fill="#C96E70"/>
<path d="M513 193L620 145V275.5L513 329V193Z" fill="white"/>
<path d="M513.5 194L406.5 145.5L513.5 94L620.5 145.5L513.5 194Z" fill="#3E0000"/>
<path d="M516.849 95.0232L452 66.0673V144.791L516.849 177.065V95.0232Z" fill="#C96E70"/>
<path d="M517.151 95.0232L582 66.0673V144.791L517.151 177.065V95.0232Z" fill="white"/>
<path d="M516.849 95.3248L452.302 66.0673L516.849 35L581.397 66.0673L516.849 95.3248Z" fill="#3E0000"/>
<path d="M747.5 476C638.167 429.667 614 415 604 409.5L651 392L877.5 476H747.5Z" fill="#A91A1E"/>
<path d="M646.191 373.827L601 353.649V408.509L646.191 430.999V373.827Z" fill="#C96E70"/>
<path d="M646.401 373.827L691.592 353.649V408.509L646.401 430.999V373.827Z" fill="white"/>
<path d="M646.19 374.038L601.21 353.65L646.19 332L691.171 353.65L646.19 374.038Z" fill="#3E0000"/>
<path d="M553 476C443.667 429.667 249.7 339.4 246.5 335L293.5 317.5L692 476H553Z" fill="#A91A1E"/>
<path d="M288.191 298.827L243 278.649V333.509L288.191 355.999V298.827Z" fill="#C96E70"/>
<path d="M288.401 298.827L333.592 278.649V333.509L288.401 355.999V298.827Z" fill="white"/>
<path d="M288.19 299.038L243.21 278.65L288.19 257L333.171 278.65L288.19 299.038Z" fill="#3E0000"/>
<path d="M912.5 318C832.167 278.167 671.2 198.3 670 197.5L691.5 188L912.5 278.5V318Z" fill="#A91A1E"/>
<path d="M690.947 179.238L668 168.992V196.849L690.947 208.269V179.238Z" fill="#C96E70"/>
<path d="M691.053 179.238L714 168.992V196.849L691.053 208.269V179.238Z" fill="white"/>
<path d="M690.946 179.346L668.106 168.993L690.946 158L713.786 168.993L690.946 179.346Z" fill="#3E0000"/>
</svg>
