<svg width="70" height="70" viewBox="0 0 70 70" fill="none" xmlns="http://www.w3.org/2000/svg">
<g id="grommet-icons:nodes">
<path id="Vector" d="M40.8333 11.6667C40.8333 13.2138 40.2188 14.6975 39.1248 15.7915C38.0308 16.8855 36.5471 17.5 35 17.5C33.4529 17.5 31.9692 16.8855 30.8752 15.7915C29.7812 14.6975 29.1667 13.2138 29.1667 11.6667C29.1667 10.1196 29.7812 8.63588 30.8752 7.54192C31.9692 6.44796 33.4529 5.83337 35 5.83337C36.5471 5.83337 38.0308 6.44796 39.1248 7.54192C40.2188 8.63588 40.8333 10.1196 40.8333 11.6667ZM40.8333 58.3334C40.8333 59.8805 40.2188 61.3642 39.1248 62.4582C38.0308 63.5521 36.5471 64.1667 35 64.1667C33.4529 64.1667 31.9692 63.5521 30.8752 62.4582C29.7812 61.3642 29.1667 59.8805 29.1667 58.3334C29.1667 56.7863 29.7812 55.3025 30.8752 54.2086C31.9692 53.1146 33.4529 52.5 35 52.5C36.5471 52.5 38.0308 53.1146 39.1248 54.2086C40.2188 55.3025 40.8333 56.7863 40.8333 58.3334ZM20.4167 23.3334C20.4167 24.8805 19.8021 26.3642 18.7081 27.4582C17.6142 28.5521 16.1304 29.1667 14.5833 29.1667C13.0362 29.1667 11.5525 28.5521 10.4585 27.4582C9.36458 26.3642 8.75 24.8805 8.75 23.3334C8.75 21.7863 9.36458 20.3025 10.4585 19.2086C11.5525 18.1146 13.0362 17.5 14.5833 17.5C16.1304 17.5 17.6142 18.1146 18.7081 19.2086C19.8021 20.3025 20.4167 21.7863 20.4167 23.3334ZM20.4167 46.6667C20.4167 48.2138 19.8021 49.6975 18.7081 50.7915C17.6142 51.8855 16.1304 52.5 14.5833 52.5C13.0362 52.5 11.5525 51.8855 10.4585 50.7915C9.36458 49.6975 8.75 48.2138 8.75 46.6667C8.75 45.1196 9.36458 43.6359 10.4585 42.5419C11.5525 41.448 13.0362 40.8334 14.5833 40.8334C16.1304 40.8334 17.6142 41.448 18.7081 42.5419C19.8021 43.6359 20.4167 45.1196 20.4167 46.6667ZM61.25 23.3334C61.25 24.8805 60.6354 26.3642 59.5415 27.4582C58.4475 28.5521 56.9638 29.1667 55.4167 29.1667C53.8696 29.1667 52.3858 28.5521 51.2919 27.4582C50.1979 26.3642 49.5833 24.8805 49.5833 23.3334C49.5833 21.7863 50.1979 20.3025 51.2919 19.2086C52.3858 18.1146 53.8696 17.5 55.4167 17.5C56.9638 17.5 58.4475 18.1146 59.5415 19.2086C60.6354 20.3025 61.25 21.7863 61.25 23.3334ZM61.25 46.6667C61.25 48.2138 60.6354 49.6975 59.5415 50.7915C58.4475 51.8855 56.9638 52.5 55.4167 52.5C53.8696 52.5 52.3858 51.8855 51.2919 50.7915C50.1979 49.6975 49.5833 48.2138 49.5833 46.6667C49.5833 45.1196 50.1979 43.6359 51.2919 42.5419C52.3858 41.448 53.8696 40.8334 55.4167 40.8334C56.9638 40.8334 58.4475 41.448 59.5415 42.5419C60.6354 43.6359 61.25 45.1196 61.25 46.6667Z" stroke="#EAE8E8" stroke-width="5"/>
</g>
</svg>
