<svg width="925" height="636" viewBox="0 0 925 636" fill="none" xmlns="http://www.w3.org/2000/svg">
<path d="M11.5 294.65H9.5V296.65H11.5V294.65ZM0.833333 227.65C0.833333 233.541 5.60896 238.317 11.5 238.317C17.391 238.317 22.1667 233.541 22.1667 227.65C22.1667 221.759 17.391 216.983 11.5 216.983C5.60896 216.983 0.833333 221.759 0.833333 227.65ZM302.5 292.65H11.5V296.65H302.5V292.65ZM13.5 294.65V227.65H9.5V294.65H13.5Z" fill="#C02327"/>
<path d="M913.5 365.65L915.5 365.65L915.5 363.65L913.5 363.65L913.5 365.65ZM924.167 432.65C924.167 426.759 919.391 421.983 913.5 421.983C907.609 421.983 902.833 426.759 902.833 432.65C902.833 438.541 907.609 443.317 913.5 443.317C919.391 443.317 924.167 438.541 924.167 432.65ZM633.5 367.65L913.5 367.65L913.5 363.65L633.5 363.65L633.5 367.65ZM911.5 365.65L911.5 432.65L915.5 432.65L915.5 365.65L911.5 365.65Z" fill="#C02327"/>
<path d="M448.833 11.1499C448.833 17.0409 453.609 21.8166 459.5 21.8166C465.391 21.8166 470.167 17.0409 470.167 11.1499C470.167 5.25886 465.391 0.483235 459.5 0.483235C453.609 0.483235 448.833 5.25886 448.833 11.1499ZM461.5 203.65V11.1499H457.5V203.65H461.5Z" fill="#C02327"/>
<path d="M469.667 625.15C469.667 619.259 464.891 614.483 459 614.483C453.109 614.483 448.333 619.259 448.333 625.15C448.333 631.041 453.109 635.817 459 635.817C464.891 635.817 469.667 631.041 469.667 625.15ZM457 470.65L457 625.15L461 625.15L461 470.65L457 470.65Z" fill="#C02327"/>
<path d="M913.5 293.65V295.65H915.5V293.65H913.5ZM902.833 220.65C902.833 226.541 907.609 231.317 913.5 231.317C919.391 231.317 924.167 226.541 924.167 220.65C924.167 214.759 919.391 209.983 913.5 209.983C907.609 209.983 902.833 214.759 902.833 220.65ZM643.5 295.65H913.5V291.65H643.5V295.65ZM915.5 293.65V220.65H911.5V293.65H915.5Z" fill="#C02327"/>
<path d="M11.5 366.65L11.5 364.65L9.50001 364.65L9.50001 366.65L11.5 366.65ZM22.1667 439.65C22.1667 433.759 17.3911 428.983 11.5 428.983C5.60895 428.983 0.833344 433.759 0.833344 439.65C0.833343 445.541 5.60895 450.317 11.5 450.317C17.3911 450.317 22.1667 445.541 22.1667 439.65ZM284.5 364.65L11.5 364.65L11.5 368.65L284.5 368.65L284.5 364.65ZM9.50001 366.65L9.5 439.65L13.5 439.65L13.5 366.65L9.50001 366.65Z" fill="#C02327"/>
</svg>
