<svg width="63" height="62" viewBox="0 0 63 62" fill="none" xmlns="http://www.w3.org/2000/svg">
<g id="healthicons:agriculture-outline">
<g id="Group">
<path id="Vector" fill-rule="evenodd" clip-rule="evenodd" d="M54.6724 9.632L53.3975 9.42921L53.063 8.18146L54.9863 7.66479L54.6724 9.632ZM37.5966 27.4958L36.4974 28.1726L36.4948 28.17L36.4909 28.1635L36.478 28.1429L36.4341 28.0693C36.3979 28.0073 36.3437 27.9168 36.2791 27.8019C36.0981 27.4856 35.9237 27.1656 35.756 26.8422C35.2251 25.8253 34.7617 24.7746 34.3687 23.697C33.9321 22.4776 33.5575 21.0813 33.4994 19.7303C33.4426 18.3843 33.6932 16.9235 34.6955 15.7778C35.5958 14.7496 37.293 13.8028 39.0768 12.9839C40.9252 12.1327 43.1004 11.3163 45.1606 10.6098C47.7125 9.73828 50.2901 8.94397 52.8899 8.22796L53.0191 8.19179L53.0643 8.17888L53.4001 9.42792L54.675 9.63071L54.6673 9.6785L54.6453 9.81542C54.5163 10.6078 54.3811 11.3992 54.2397 12.1895C53.8956 14.1329 53.5201 16.0707 53.1134 18.002C52.6535 20.1733 52.1188 22.4492 51.5518 24.3544C51.3001 25.2258 51.0039 26.0838 50.6644 26.9248C50.3699 27.6353 50.0211 28.325 49.5975 28.8107C48.6907 29.8466 47.2789 30.1708 46.0454 30.2535C44.7589 30.34 43.3329 30.1837 42.0503 29.9564C40.9064 29.7503 39.7735 29.4873 38.6558 29.1685C38.1984 29.0397 37.7437 28.9018 37.2918 28.7551L37.2104 28.7267L37.1884 28.719L37.182 28.7177H37.1794L37.5966 27.4958ZM37.5966 27.4958L36.4974 28.1726L36.7402 28.5665L37.1794 28.7177L37.5966 27.4958ZM38.4646 26.4198C39.787 26.8326 41.1332 27.1647 42.4959 27.4144C43.6894 27.6249 44.8829 27.7438 45.8723 27.6766C46.9173 27.6068 47.4417 27.3511 47.6522 27.1108C47.7865 26.9558 48.0061 26.589 48.2774 25.9354C48.5824 25.1775 48.8484 24.4045 49.0743 23.6195C49.613 21.8111 50.1309 19.6114 50.5856 17.4685C51.0219 15.3953 51.4215 13.3146 51.7843 11.2272L51.3851 11.3435C49.9527 11.7658 48.0178 12.3613 45.9989 13.0536C43.9761 13.7473 41.8927 14.5313 40.1554 15.3308C38.3522 16.1601 37.1355 16.9131 36.6395 17.4802C36.2429 17.9323 36.0388 18.6285 36.0815 19.6192C36.1228 20.6047 36.4057 21.7246 36.8009 22.8238C37.2534 24.0671 37.8099 25.27 38.4646 26.4198ZM13.7563 12.8831L13.4218 14.1309L12.1456 14.3337L11.833 12.3678L13.7563 12.8831ZM26.2622 28.8133L27.3614 29.4888L27.364 29.4862L27.3666 29.481L27.3769 29.4643L27.4144 29.4023C27.6091 29.0705 27.7952 28.7337 27.9724 28.3922C28.3134 27.736 28.7487 26.8202 29.1129 25.8075C29.472 24.8052 29.7846 23.644 29.8324 22.5125C29.8815 21.3849 29.6722 20.1268 28.8016 19.1322C28.0318 18.2513 26.6071 17.466 25.1604 16.7995C23.6479 16.1033 21.8718 15.4368 20.194 14.862C18.1158 14.1526 16.0168 13.5061 13.8997 12.9232L13.7938 12.8935L13.7563 12.8831L13.4218 14.1309L12.1456 14.3337L12.152 14.3724L12.1701 14.4848L12.2399 14.9059C12.5884 16.9952 12.9807 19.0769 13.4166 21.1498C13.7912 22.9168 14.2278 24.7729 14.6902 26.3294C14.9227 27.107 15.1655 27.8316 15.42 28.4425C15.6615 29.0238 15.9573 29.6167 16.3293 30.0403C17.1301 30.9574 18.3611 31.2287 19.3802 31.2958C20.4549 31.3682 21.6342 31.2377 22.6869 31.053C24.0086 30.8157 25.3121 30.4859 26.5877 30.0662L26.6536 30.0442L26.673 30.0378L26.6794 30.0352L26.2622 28.8133ZM26.2622 28.8133L27.3614 29.4888L27.1186 29.884L26.6794 30.0352L26.2622 28.8133ZM25.3929 27.736C25.8976 26.8391 26.3283 25.9026 26.6807 24.9357C26.9972 24.0535 27.2193 23.1687 27.2516 22.4014C27.2852 21.629 27.1225 21.1356 26.8577 20.832C26.4921 20.4161 25.5492 19.822 24.0806 19.1464C22.6804 18.5019 20.9961 17.8677 19.3557 17.3058C17.9267 16.818 16.4874 16.3606 15.0389 15.934L15.0441 15.9663C15.2637 17.2063 15.5763 18.8803 15.9444 20.615C16.3125 22.3536 16.7323 24.1323 17.1663 25.5931C17.3846 26.3242 17.599 26.9558 17.8057 27.4518C18.0253 27.9775 18.1906 28.2449 18.2733 28.3405C18.3792 28.4606 18.7215 28.6634 19.5533 28.719C20.3296 28.7706 21.2777 28.6776 22.2387 28.5084C23.3051 28.3162 24.3586 28.0591 25.3929 27.736ZM22.5642 40.0495C22.2361 40.0675 22.0759 40.114 22.0346 40.1321C21.4495 40.3969 19.6721 41.0169 18.1376 41.54C17.3497 41.81 16.5941 42.0632 16.0361 42.2505L15.9999 42.2634V49.2423C16.2273 49.2319 16.4714 49.2229 16.7207 49.2138C17.7902 49.1751 19.0625 49.1363 19.614 49.1596C21.9287 49.2513 23.6673 49.799 25.2767 50.3066L25.3115 50.3182C26.8202 50.7935 28.2178 51.2301 30.0481 51.3683C30.5648 51.4071 31.0672 51.4575 31.5361 51.504H31.5425C33.3431 51.6848 34.5289 51.7752 35.4473 51.442C36.1615 51.1823 38.7772 49.9695 41.4148 48.6429C42.7193 47.9868 43.9981 47.319 45.0146 46.7468C45.5248 46.46 45.9576 46.2043 46.2895 45.9898C46.4548 45.8826 46.5866 45.7922 46.6873 45.7186C46.7269 45.6895 46.7657 45.6594 46.8036 45.6282L46.8398 45.5972C46.9689 45.4667 47.1058 45.012 46.8837 44.5845C46.7791 44.3846 46.6063 44.2287 46.3967 44.1453C46.1384 44.033 45.6992 43.9464 45.0017 44.0614C43.4285 44.3197 41.5491 45.0766 39.6723 45.84L39.6465 45.8516C38.7242 46.2262 37.7994 46.6021 36.9792 46.8759C36.1913 47.1381 35.3168 47.3732 34.5547 47.328C33.5085 47.2634 31.673 46.9922 30.1592 46.7468C29.2892 46.6061 28.4203 46.4588 27.5526 46.305L27.3847 46.2753L27.3253 46.2637L27.5707 43.701L33.4736 43.772H33.4865C33.5555 43.7646 33.6237 43.7516 33.6906 43.7333C33.8947 43.6816 34.2447 43.5538 34.6852 43.2425C34.8208 43.1456 34.999 42.9673 35.1657 42.7284C35.2301 42.6348 35.2888 42.5373 35.3413 42.4365C34.6217 42.3907 33.9065 42.2896 33.2023 42.1342C32.8189 42.0507 32.4385 41.9538 32.0618 41.8436L32.0179 41.8307L24.7884 40.2213L24.72 40.2096C24.3351 40.1457 23.9477 40.0983 23.5588 40.0675C23.228 40.0401 22.8957 40.0341 22.5642 40.0495ZM25.0416 38.9567L25.2754 37.687L25.2986 37.6909L32.6844 39.3339L32.7386 39.3507L32.749 39.3545L32.798 39.3688L33.0021 39.4269C33.1817 39.476 33.44 39.5431 33.7474 39.6103C34.3752 39.7459 35.1605 39.8712 35.8864 39.8712C36.6136 39.8712 37.4041 40.1425 37.8304 40.9149C38.1946 41.5762 38.1042 42.2918 37.9763 42.7645C37.8577 43.1825 37.6807 43.5817 37.4506 43.9503C37.8433 43.7953 38.2605 43.6274 38.6984 43.4491L38.7785 43.4155C40.5584 42.6922 42.6922 41.8242 44.5819 41.5129C46.7778 41.1538 48.4246 41.9417 49.1777 43.3988C49.8416 44.684 49.6943 46.3786 48.6804 47.4094C48.4259 47.6677 48.0475 47.9299 47.6858 48.1637C47.2252 48.4553 46.7566 48.7339 46.2805 48.9994C45.2148 49.5988 43.896 50.2872 42.5734 50.9524C39.9616 52.266 37.2104 53.5513 36.3269 53.8716C34.795 54.427 33.0228 54.25 31.4483 54.0925L31.2842 54.0757C30.8077 54.0268 30.3306 53.9837 29.853 53.9465C27.7089 53.7838 26.0659 53.2658 24.565 52.793L24.5327 52.7827C22.9181 52.2738 21.4637 51.8204 19.5107 51.7416C19.0818 51.7248 17.9271 51.7558 16.8137 51.7972C16.1867 51.8199 15.5598 51.8453 14.933 51.8734L14.7664 51.8811L13.4153 51.9431V40.4008L14.5481 40.0249C15.4673 39.7195 16.3852 39.4103 17.3019 39.0975C18.9088 38.5485 20.5285 37.9789 20.9703 37.78C21.4443 37.5656 21.9829 37.4958 22.4143 37.47C22.8729 37.4442 23.3443 37.4635 23.7564 37.4945C24.2524 37.5334 24.7463 37.595 25.2366 37.6793L25.2638 37.6844H25.2715L25.2741 37.6857H25.2767L25.0416 38.9567Z" fill="#EAE8E8"/>
<path id="Vector_2" fill-rule="evenodd" clip-rule="evenodd" d="M45.9017 17.1018C46.0306 17.212 46.1365 17.3466 46.2135 17.4978C46.2904 17.649 46.3367 17.8138 46.3499 17.983C46.3631 18.1521 46.3429 18.3221 46.2903 18.4834C46.2378 18.6447 46.154 18.7941 46.0438 18.923C42.1933 23.4154 37.3999 29.9991 35.2842 35.3504C35.2218 35.5082 35.1289 35.6521 35.0108 35.7739C34.8928 35.8958 34.7519 35.9932 34.5962 36.0606C34.4405 36.128 34.2731 36.1641 34.1035 36.1668C33.9338 36.1695 33.7653 36.1388 33.6076 36.0764C33.4498 36.0139 33.3059 35.921 33.1841 35.803C33.0622 35.685 32.9648 35.5441 32.8974 35.3884C32.83 35.2327 32.7939 35.0653 32.7912 34.8956C32.7885 34.726 32.8193 34.5575 32.8817 34.3998C35.1589 28.6402 40.1809 21.7931 44.0804 17.2426C44.3034 16.9826 44.6206 16.8218 44.9622 16.7956C45.3037 16.7695 45.6417 16.8801 45.9017 17.1031M20.3654 21.2454C20.2322 21.3506 20.121 21.4809 20.0382 21.629C19.9554 21.7772 19.9026 21.9401 19.8828 22.1087C19.863 22.2772 19.8767 22.448 19.9229 22.6113C19.9691 22.7745 20.0471 22.9271 20.1523 23.0602C23.0482 26.735 26.2102 31.438 27.7111 35.3388C27.84 35.6502 28.0854 35.8988 28.395 36.0317C28.7047 36.1647 29.054 36.1714 29.3685 36.0503C29.6829 35.9293 29.9377 35.6902 30.0784 35.384C30.219 35.0778 30.2345 34.7288 30.1214 34.4114C28.4797 30.1437 25.1252 25.1953 22.1802 21.4611C21.9683 21.1921 21.6582 21.0183 21.3181 20.9778C20.9781 20.9374 20.6345 21.0336 20.3654 21.2454Z" fill="#EAE8E8"/>
<path id="Vector_3" d="M8.25 37.4584H16V54.25H8.25V37.4584Z" fill="#EAE8E8"/>
</g>
</g>
</svg>
