<svg width="40" height="40" viewBox="0 0 40 40" fill="none" xmlns="http://www.w3.org/2000/svg">
<g id="octicon:people-16">
<path id="Vector" d="M4.99983 13.7501C4.99965 12.2998 5.35998 10.8722 6.0484 9.59565C6.73683 8.31913 7.73176 7.23375 8.94371 6.43714C10.1557 5.64052 11.5466 5.15765 12.9915 5.03195C14.4363 4.90625 15.8898 5.14167 17.2211 5.71704C18.5524 6.2924 19.7198 7.18967 20.6183 8.32813C21.5168 9.46659 22.1183 10.8105 22.3686 12.2391C22.6188 13.6677 22.5101 15.136 22.0521 16.5121C21.5941 17.8882 20.8013 19.1289 19.7448 20.1226C21.7368 21.0892 23.4664 22.522 24.7868 24.2994C26.1072 26.0767 26.9795 28.1463 27.3298 30.3326C27.3684 30.5759 27.3587 30.8244 27.3012 31.0639C27.2438 31.3034 27.1397 31.5293 26.995 31.7286C26.8502 31.9279 26.6676 32.0967 26.4576 32.2254C26.2476 32.3542 26.0144 32.4403 25.7711 32.4789C25.5278 32.5174 25.2793 32.5077 25.0398 32.4503C24.8003 32.3928 24.5744 32.2887 24.3751 32.144C24.1758 31.9992 24.007 31.8167 23.8783 31.6067C23.7495 31.3967 23.6634 31.1634 23.6248 30.9201C23.2499 28.5709 22.0497 26.4323 20.2397 24.8883C18.4298 23.3444 16.1288 22.4963 13.7498 22.4963C11.3709 22.4963 9.06982 23.3444 7.25991 24.8883C5.45 26.4323 4.2498 28.5709 3.87483 30.9201C3.83609 31.1634 3.74981 31.3966 3.62092 31.6066C3.49203 31.8165 3.32306 31.999 3.12364 32.1436C2.92423 32.2882 2.69828 32.3922 2.4587 32.4495C2.21912 32.5068 1.9706 32.5163 1.72733 32.4776C1.48405 32.4389 1.25079 32.3526 1.04086 32.2237C0.83093 32.0948 0.648441 31.9258 0.503814 31.7264C0.359187 31.527 0.255253 31.3011 0.197947 31.0615C0.140642 30.8219 0.131086 30.5734 0.169826 30.3301C0.520663 28.1446 1.39326 26.076 2.71366 24.2995C4.03405 22.523 5.7633 21.0911 7.75483 20.1251C6.884 19.3074 6.1902 18.3198 5.71633 17.2233C5.24246 16.1267 4.9986 14.9446 4.99983 13.7501ZM27.4998 10.0001C28.9524 10.0011 30.3734 10.4238 31.5903 11.2167C32.8073 12.0097 33.768 13.1389 34.3556 14.4672C34.9433 15.7956 35.1327 17.2659 34.9009 18.6999C34.6691 20.1338 34.0261 21.4696 33.0498 22.5451C34.5715 23.3006 35.9236 24.3577 37.0239 25.6522C38.1241 26.9467 38.9495 28.4515 39.4498 30.0751C39.5489 30.3903 39.5629 30.7261 39.4902 31.0484C39.4176 31.3707 39.261 31.668 39.0363 31.9102C38.8116 32.1525 38.5268 32.3309 38.2109 32.4275C37.8949 32.524 37.559 32.5353 37.2373 32.4601C36.9159 32.3852 36.6198 32.2271 36.3789 32.0015C36.138 31.7759 35.9607 31.4909 35.8648 31.1751C35.4168 29.7256 34.6003 28.4172 33.4951 27.3778C32.39 26.3384 31.034 25.6035 29.5598 25.2451C29.1504 25.1463 28.7862 24.9125 28.5259 24.5814C28.2656 24.2503 28.1243 23.8413 28.1248 23.4201V22.5401C28.1246 22.191 28.2218 21.8488 28.4056 21.552C28.5893 21.2552 28.8523 21.0156 29.1648 20.8601C29.9227 20.4845 30.5314 19.8637 30.8919 19.0985C31.2525 18.3333 31.3437 17.4687 31.1508 16.6451C30.958 15.8215 30.4923 15.0873 29.8295 14.5617C29.1667 14.0362 28.3457 13.7501 27.4998 13.7501C27.0025 13.7501 26.5256 13.5526 26.174 13.2009C25.8224 12.8493 25.6248 12.3724 25.6248 11.8751C25.6248 11.3778 25.8224 10.9009 26.174 10.5493C26.5256 10.1976 27.0025 10.0001 27.4998 10.0001ZM13.7498 8.7501C13.084 8.73504 12.4218 8.85317 11.8023 9.09753C11.1827 9.3419 10.6182 9.70758 10.1419 10.1731C9.6656 10.6386 9.28711 11.1946 9.02864 11.8085C8.77018 12.4223 8.63695 13.0816 8.63679 13.7476C8.63662 14.4136 8.76952 15.0729 9.02767 15.6869C9.28583 16.3008 9.66404 16.857 10.1401 17.3228C10.6162 17.7886 11.1805 18.1545 11.7999 18.3992C12.4194 18.6439 13.0815 18.7623 13.7473 18.7476C15.0537 18.7187 16.2969 18.1795 17.2108 17.2455C18.1246 16.3115 18.6365 15.0568 18.6368 13.7501C18.6371 12.4434 18.1259 11.1884 17.2125 10.2539C16.2991 9.31944 15.0562 8.77964 13.7498 8.7501Z" fill="#EAE8E8"/>
</g>
</svg>
