<svg width="361" height="351" viewBox="0 0 361 351" fill="none" xmlns="http://www.w3.org/2000/svg">
<path d="M162.513 57.2086H155.178M206.103 57.2086H198.768M162.513 42.4411H155.178M206.103 42.4411H198.768M173.257 31.6978V24.3624M173.257 75.2874V67.952M188.024 31.6978V24.3624M188.024 75.2874V67.952M194.739 31.6978H166.542C165.473 31.6978 164.449 32.1222 163.693 32.8776C162.938 33.6331 162.513 34.6577 162.513 35.726V63.9237C162.513 64.9921 162.938 66.0167 163.693 66.7721C164.449 67.5275 165.473 67.952 166.542 67.952H194.739C195.808 67.952 196.832 67.5275 197.588 66.7721C198.343 66.0167 198.768 64.9921 198.768 63.9237V35.726C198.768 34.6577 198.343 33.6331 197.588 32.8776C196.832 32.1222 195.808 31.6978 194.739 31.6978Z" stroke="#ECE9E8" stroke-width="3" stroke-linecap="round" stroke-linejoin="round"/>
<path d="M180.114 54.0662H174.294L173.294 56.9062H170.914L175.894 42.9862H178.534L183.514 56.9062H181.114L180.114 54.0662ZM179.474 52.2062L177.214 45.7462L174.934 52.2062H179.474ZM187.959 43.0062V56.9062H185.679V43.0062H187.959Z" fill="#ECE9E8"/>
<path d="M183.478 1.76145L183.477 1.76132C182.565 1.26181 181.541 1 180.5 1C179.459 1 178.435 1.26181 177.522 1.76132L177.522 1.76145L139.366 22.6519C139.366 22.6519 139.366 22.652 139.366 22.652C138.39 23.1859 137.576 23.9724 137.009 24.9291C136.441 25.8858 136.141 26.9776 136.141 28.0899V28.0905L136.141 69.5594L136.141 69.5601C136.141 70.6724 136.441 71.7642 137.009 72.7209C137.576 73.6776 138.39 74.4642 139.366 74.9981L177.52 95.8876C178.433 96.3897 179.458 96.653 180.5 96.653C181.542 96.653 182.567 96.3897 183.48 95.8876L221.634 74.9981C222.61 74.4642 223.424 73.6776 223.991 72.7209C224.559 71.7642 224.859 70.6724 224.859 69.5601V69.5594V28.0905V28.0899C224.859 26.9776 224.559 25.8858 223.991 24.9291C223.424 23.9723 222.61 23.1858 221.634 22.6519L183.478 1.76145ZM219.009 70.1998L219.009 70.1999L180.853 91.0903C180.852 91.0903 180.852 91.0904 180.852 91.0904C180.744 91.1495 180.623 91.1804 180.5 91.1804C180.377 91.1804 180.256 91.1495 180.148 91.0904C180.148 91.0904 180.148 91.0903 180.147 91.0903L141.991 70.1999L141.991 70.1998C141.876 70.1367 141.78 70.0437 141.712 69.9307C141.645 69.8179 141.61 69.6892 141.609 69.558V28.092C141.61 27.9608 141.645 27.8321 141.712 27.7193C141.78 27.6063 141.876 27.5133 141.991 27.4502L141.991 27.4501L180.148 6.55956L180.148 6.55958L180.155 6.55564C180.26 6.49676 180.379 6.46585 180.5 6.46585C180.621 6.46585 180.74 6.49676 180.845 6.55564L180.845 6.55567L180.852 6.55956L219.009 27.4501L219.009 27.4502C219.124 27.5133 219.22 27.6063 219.288 27.7193C219.355 27.8323 219.39 27.9613 219.391 28.0928V69.5572C219.39 69.6887 219.355 69.8176 219.288 69.9307C219.22 70.0437 219.124 70.1367 219.009 70.1998Z" fill="#C02327" stroke="#C02327" stroke-width="2"/>
<line x1="180.141" y1="94.325" x2="180.141" y2="130.325" stroke="#C02327" stroke-width="8"/>
<rect x="4" y="134.325" width="353" height="212" rx="16" fill="#303030"/>
<rect x="4" y="134.325" width="353" height="212" rx="16" stroke="#C02327" stroke-width="8"/>
</svg>
