<svg width="56" height="55" viewBox="0 0 56 55" fill="none" xmlns="http://www.w3.org/2000/svg">
<g id="ic:outline-generating-tokens">
<path id="Vector" d="M21.1976 9.36043C11.1755 9.36043 3.05811 17.4779 3.05811 27.5C3.05811 37.5221 11.1755 45.6395 21.1976 45.6395C31.2197 45.6395 39.3372 37.5221 39.3372 27.5C39.3372 17.4779 31.2197 9.36043 21.1976 9.36043ZM21.1976 41.1046C13.6924 41.1046 7.59299 35.0052 7.59299 27.5C7.59299 19.9947 13.6924 13.8953 21.1976 13.8953C28.7029 13.8953 34.8023 19.9947 34.8023 27.5C34.8023 35.0052 28.7029 41.1046 21.1976 41.1046ZM28 24.0988H23.4651V35.436H18.9302V24.0988H14.3953V20.6976H28V24.0988ZM46.7064 8.79357L52.9418 11.6279L46.7064 14.4622L43.8721 20.6976L41.0378 14.4622L34.8023 11.6279L41.0378 8.79357L43.8721 2.55811L46.7064 8.79357ZM46.7064 40.5378L52.9418 43.3721L46.7064 46.2064L43.8721 52.4418L41.0378 46.2064L34.8023 43.3721L41.0378 40.5378L43.8721 34.3023L46.7064 40.5378Z" fill="#ECE9E8"/>
</g>
</svg>
