<svg width="51" height="50" viewBox="0 0 51 50" fill="none" xmlns="http://www.w3.org/2000/svg">
<g id="icon-park-outline:circular-connection">
<g id="Group">
<path id="Vector" d="M14.5638 41.0106C17.6804 43.4657 21.5339 44.7979 25.5013 44.7919C29.6294 44.7919 33.4284 43.3794 36.4388 41.0106M20.293 10.1533C13.0544 12.3773 7.79297 19.1158 7.79297 27.0835C7.79297 29.0887 8.1263 31.0158 8.74089 32.8127M30.7096 10.1533C37.9482 12.3773 43.2096 19.1158 43.2096 27.0835C43.2096 29.0887 42.8763 31.0158 42.2617 32.8127" stroke="#D9D9D9" stroke-width="4"/>
<path id="Vector_2" d="M45.2923 37.5002C45.2923 38.8981 44.7423 40.1668 43.8465 41.1023C43.0099 41.9762 41.8952 42.5317 40.6937 42.6733C39.4921 42.815 38.2788 42.5339 37.2619 41.8784C36.2451 41.2228 35.4882 40.2337 35.1211 39.0809C34.7541 37.9281 34.7998 36.6835 35.2505 35.5607C35.7011 34.4379 36.5286 33.5071 37.5908 32.928C38.6531 32.3488 39.8838 32.1576 41.0717 32.387C42.2595 32.6164 43.3305 33.2522 44.1007 34.1853C44.8708 35.1183 45.2922 36.2903 45.2923 37.5002ZM16.1257 37.5002C16.1257 38.8981 15.5757 40.1668 14.6798 41.1023C13.8432 41.9762 12.7285 42.5317 11.527 42.6733C10.3255 42.815 9.11213 42.5339 8.09527 41.8784C7.07842 41.2228 6.3215 40.2337 5.95446 39.0809C5.58742 37.9281 5.63315 36.6835 6.08382 35.5607C6.53448 34.4379 7.36196 33.5071 8.42419 32.928C9.48641 32.3488 10.7171 32.1576 11.905 32.387C13.0929 32.6164 14.1638 33.2522 14.934 34.1853C15.7042 35.1183 16.1255 36.2903 16.1257 37.5002ZM30.709 9.37517C30.709 10.7731 30.159 12.0418 29.2631 12.9773C28.4266 13.8512 27.3118 14.4067 26.1103 14.5484C24.9088 14.69 23.6955 14.4089 22.6786 13.7534C21.6618 13.0978 20.9048 12.1087 20.5378 10.9559C20.1707 9.80312 20.2165 8.55848 20.6672 7.43571C21.1178 6.31295 21.9453 5.38209 23.0075 4.80297C24.0697 4.22384 25.3004 4.03257 26.4883 4.26199C27.6762 4.49142 28.7472 5.12723 29.5173 6.06026C30.2875 6.99329 30.7088 8.16534 30.709 9.37517Z" stroke="#D9D9D9" stroke-width="4" stroke-linecap="round" stroke-linejoin="round"/>
</g>
</g>
</svg>
