<svg width="81" height="80" viewBox="0 0 81 80" fill="none" xmlns="http://www.w3.org/2000/svg">
<g id="icon-park-outline:lens-alignment">
<g id="Group">
<path id="Vector" d="M23.8333 16.6667C23.8333 18.4348 23.131 20.1305 21.8807 21.3807C20.6305 22.631 18.9348 23.3333 17.1667 23.3333M23.8333 16.6667C23.8333 15.3481 23.4423 14.0592 22.7098 12.9629C21.9773 11.8665 20.9361 11.0121 19.7179 10.5075C18.4997 10.0029 17.1593 9.87087 15.8661 10.1281C14.5729 10.3853 13.385 11.0203 12.4526 11.9526C11.5203 12.885 10.8853 14.0729 10.6281 15.3661C10.3709 16.6593 10.5029 17.9997 11.0075 19.2179C11.5121 20.4361 12.3665 21.4773 13.4629 22.2098C14.5592 22.9423 15.8481 23.3333 17.1667 23.3333M23.8333 16.6667H33.8333M17.1667 23.3333V33.3333" stroke="#EAE8E8" stroke-width="6" stroke-linecap="round" stroke-linejoin="round"/>
<path id="Vector_2" d="M23.8333 63.3333C23.8333 61.5652 23.131 59.8695 21.8807 58.6193C20.6305 57.369 18.9348 56.6667 17.1667 56.6667M23.8333 63.3333C23.8333 64.6519 23.4423 65.9408 22.7098 67.0371C21.9773 68.1335 20.9361 68.9879 19.7179 69.4925C18.4997 69.9971 17.1593 70.1291 15.8661 69.8719C14.5729 69.6147 13.385 68.9797 12.4526 68.0474C11.5203 67.115 10.8853 65.9271 10.6281 64.6339C10.3709 63.3407 10.5029 62.0003 11.0075 60.7821C11.5121 59.5639 12.3665 58.5227 13.4629 57.7902C14.5592 57.0577 15.8481 56.6667 17.1667 56.6667M23.8333 63.3333H33.8333M17.1667 56.6667V46.6667" stroke="#EAE8E8" stroke-width="6" stroke-linecap="round" stroke-linejoin="round"/>
<path id="Vector_3" d="M57.167 63.3333C57.167 61.5652 57.8694 59.8695 59.1196 58.6193C60.3699 57.369 62.0655 56.6667 63.8337 56.6667M57.167 63.3333C57.167 64.6519 57.558 65.9408 58.2905 67.0371C59.0231 68.1335 60.0643 68.9879 61.2824 69.4925C62.5006 69.9971 63.8411 70.1291 65.1343 69.8719C66.4275 69.6147 67.6154 68.9797 68.5477 68.0474C69.4801 67.115 70.115 65.9271 70.3722 64.6339C70.6295 63.3407 70.4974 62.0003 69.9929 60.7821C69.4883 59.5639 68.6338 58.5227 67.5375 57.7902C66.4411 57.0577 65.1522 56.6667 63.8337 56.6667M57.167 63.3333H47.167M63.8337 56.6667V46.6667" stroke="#EAE8E8" stroke-width="6" stroke-linecap="round" stroke-linejoin="round"/>
<path id="Vector_4" d="M57.1663 16.6667C57.1663 18.4348 57.8687 20.1305 59.119 21.3807C60.3692 22.631 62.0649 23.3333 63.833 23.3333M57.1663 16.6667C57.1663 15.3481 57.5573 14.0592 58.2899 12.9629C59.0224 11.8665 60.0636 11.0121 61.2818 10.5075C62.5 10.0029 63.8404 9.87087 65.1336 10.1281C66.4268 10.3853 67.6147 11.0203 68.5471 11.9526C69.4794 12.885 70.1143 14.0729 70.3716 15.3661C70.6288 16.6593 70.4968 17.9997 69.9922 19.2179C69.4876 20.4361 68.6331 21.4773 67.5368 22.2098C66.4405 22.9423 65.1515 23.3333 63.833 23.3333M57.1663 16.6667H47.1663M63.833 23.3333V33.3333M28.833 40H52.1663M40.4997 51.6667V28.3333" stroke="#EAE8E8" stroke-width="6" stroke-linecap="round" stroke-linejoin="round"/>
</g>
</g>
</svg>
