<svg width="75" height="75" viewBox="0 0 75 75" fill="none" xmlns="http://www.w3.org/2000/svg">
<g id="ri:leaf-line">
<path id="Vector" d="M65.6187 9.375V15.625C65.6187 45.7094 48.828 59.375 28.1187 59.375H16.378C15.8505 62.4717 15.5964 65.6088 15.6187 68.75H9.36865C9.36865 64.4906 9.73115 60.625 10.4499 57.0875C9.73115 53.0437 9.36865 47.5563 9.36865 40.625C9.36865 23.3656 23.3593 9.375 40.6187 9.375C46.8687 9.375 53.1187 12.5 65.6187 9.375ZM40.6187 15.625C33.9882 15.625 27.6294 18.2589 22.941 22.9473C18.2526 27.6357 15.6187 33.9946 15.6187 40.625C15.6187 41.7562 15.628 42.8469 15.6499 43.8937C19.5687 37.7125 25.3093 32.8281 32.8187 28.5375L35.9187 33.9625C26.9999 39.0625 21.0812 44.8563 18.0437 53.125H28.1187C46.9155 53.125 58.9655 40.7094 59.3593 16.8375C55.0718 17.2531 51.0874 16.9875 46.1718 16.25C42.578 15.7094 41.8718 15.625 40.6187 15.625Z" fill="#C02327"/>
</g>
</svg>
