<svg width="75" height="75" viewBox="0 0 75 75" fill="none" xmlns="http://www.w3.org/2000/svg">
<g id="mdi:farm-outline">
<path id="Vector" d="M26.5625 6.25C31.5601 6.25 36.3823 8.0924 40.1068 11.4248C43.8312 14.7572 46.1964 19.3456 46.75 24.3125L68.75 37.5V43.75L62.5 40V68.75H56.25V36.25L46.875 30.625V68.75H40.625V28.125H12.5V68.75H6.25V26.5625C6.25 21.1753 8.39006 16.0087 12.1994 12.1994C16.0087 8.39006 21.1753 6.25 26.5625 6.25ZM26.5625 12.5C20.4375 12.5 15.2188 16.4062 13.3125 21.875H39.8125C37.9062 16.4062 32.6875 12.5 26.5625 12.5ZM18.75 34.375H34.375V40.625H18.75V34.375ZM18.75 46.875H34.375V53.125H18.75V46.875ZM18.75 59.375H34.375V65.625H18.75V59.375Z" fill="#C02327"/>
</g>
</svg>
