<svg width="75" height="76" viewBox="0 0 75 76" fill="none" xmlns="http://www.w3.org/2000/svg">
<g id="fluent:building-retail-20-regular" clip-path="url(#clip0_63_259)">
<path id="Vector" d="M18.1852 21.2213C17.572 21.2213 16.9839 21.4659 16.5503 21.9013C16.1167 22.3366 15.8731 22.9271 15.8731 23.5428V37.4713C15.8731 38.087 16.1167 38.6775 16.5503 39.1128C16.9839 39.5482 17.572 39.7928 18.1852 39.7928H59.8044C60.4176 39.7928 61.0058 39.5482 61.4394 39.1128C61.873 38.6775 62.1166 38.087 62.1166 37.4713V23.5428C62.1166 22.9271 61.873 22.3366 61.4394 21.9013C61.0058 21.4659 60.4176 21.2213 59.8044 21.2213H18.1852ZM20.4974 35.1499V25.8642H57.4922V35.1499H20.4974ZM45.9314 44.4356C45.3181 44.4356 44.73 44.6802 44.2964 45.1156C43.8628 45.5509 43.6192 46.1414 43.6192 46.757V56.0428C43.6192 56.6584 43.8628 57.2489 44.2964 57.6843C44.73 58.1196 45.3181 58.3642 45.9314 58.3642H59.8044C60.4176 58.3642 61.0058 58.1196 61.4394 57.6843C61.873 57.2489 62.1166 56.6584 62.1166 56.0428V46.757C62.1166 46.1414 61.873 45.5509 61.4394 45.1156C61.0058 44.6802 60.4176 44.4356 59.8044 44.4356H45.9314ZM48.2435 53.7213V49.0785H57.4922V53.7213H48.2435ZM2 9.61419C2 7.76715 2.73081 5.99576 4.03166 4.6897C5.33252 3.38365 7.09685 2.64991 8.93653 2.64991H69.0531C70.6913 2.64746 72.2774 3.22716 73.5306 4.28634C74.7838 5.34551 75.6232 6.81581 75.9001 8.43682C76.1771 10.0578 75.8737 11.7249 75.0437 13.1429C74.2137 14.5608 72.9106 15.6381 71.3653 16.1838V65.3285C71.3653 65.9442 71.1217 66.5346 70.6881 66.97C70.2545 67.4053 69.6664 67.6499 69.0531 67.6499H8.93653C8.3233 67.6499 7.73519 67.4053 7.30158 66.97C6.86796 66.5346 6.62435 65.9442 6.62435 65.3285V16.1838C5.27137 15.7036 4.10005 14.8138 3.27183 13.6372C2.4436 12.4606 1.99925 11.055 2 9.61419ZM8.93653 7.29277C8.3233 7.29277 7.73519 7.53735 7.30158 7.9727C6.86796 8.40805 6.62435 8.99851 6.62435 9.61419C6.62435 10.2299 6.86796 10.8203 7.30158 11.2557C7.73519 11.691 8.3233 11.9356 8.93653 11.9356H69.0531C69.6664 11.9356 70.2545 11.691 70.6881 11.2557C71.1217 10.8203 71.3653 10.2299 71.3653 9.61419C71.3653 8.99851 71.1217 8.40805 70.6881 7.9727C70.2545 7.53735 69.6664 7.29277 69.0531 7.29277H8.93653ZM11.2487 16.5785V63.007H15.8731V46.757C15.8731 46.1414 16.1167 45.5509 16.5503 45.1156C16.9839 44.6802 17.572 44.4356 18.1852 44.4356H36.6827C37.2959 44.4356 37.884 44.6802 38.3176 45.1156C38.7512 45.5509 38.9948 46.1414 38.9948 46.757V63.007H66.741V16.5785H11.2487ZM20.4974 63.007H34.3705V49.0785H20.4974V63.007Z" fill="#C02327"/>
</g>
<defs>
<clipPath id="clip0_63_259">
<rect width="75" height="75" fill="white" transform="translate(0 0.649902)"/>
</clipPath>
</defs>
</svg>
