<svg width="76" height="76" viewBox="0 0 76 76" fill="none" xmlns="http://www.w3.org/2000/svg">
<g id="bi:airplane" clip-path="url(#clip0_346_1219)">
<path id="Vector" d="M30.6313 6.04522C31.9438 3.42021 34.3109 0.649902 38 0.649902C41.6891 0.649902 44.0562 3.4249 45.3687 6.04522C46.7234 8.75928 47.375 12.0452 47.375 14.7124V32.014L71.6094 44.1312C72.7783 44.7147 73.7615 45.6124 74.4487 46.7235C75.1359 47.8347 75.5 49.1153 75.5 50.4218V56.8999C75.4998 57.2401 75.4256 57.5762 75.2825 57.8849C75.1394 58.1935 74.9307 58.4673 74.6711 58.6872C74.4115 58.9071 74.1072 59.0678 73.7792 59.1583C73.4512 59.2487 73.1075 59.2666 72.7719 59.2108L46.9578 54.9077L45.2 65.4687L51.3781 71.6468C51.7068 71.9746 51.9306 72.3926 52.0214 72.8478C52.1122 73.303 52.0658 73.7749 51.8881 74.2036C51.7103 74.6324 51.4093 74.9988 51.0231 75.2562C50.6369 75.5137 50.1829 75.6507 49.7188 75.6499H26.2812C25.8171 75.6507 25.3631 75.5137 24.9769 75.2562C24.5907 74.9988 24.2897 74.6324 24.1119 74.2036C23.9342 73.7749 23.8878 73.303 23.9786 72.8478C24.0694 72.3926 24.2932 71.9746 24.6219 71.6468L30.8047 65.4687L29.0422 54.9077L3.22813 59.2108C2.89251 59.2666 2.54878 59.2487 2.2208 59.1583C1.89282 59.0678 1.58846 58.9071 1.32886 58.6872C1.06926 58.4673 0.860647 58.1935 0.717514 57.8849C0.57438 57.5762 0.500157 57.2401 0.5 56.8999V50.4218C0.500044 49.1153 0.86409 47.8347 1.5513 46.7235C2.23852 45.6124 3.22172 44.7147 4.39062 44.1312L28.625 32.014V14.7124C28.625 12.0499 29.2812 8.75459 30.6313 6.04522ZM34.8219 8.14521C33.8328 10.1187 33.3125 12.6921 33.3125 14.7124V33.4624C33.3125 33.8973 33.1915 34.3236 32.963 34.6937C32.7345 35.0637 32.4076 35.3629 32.0187 35.5577L6.48125 48.3265C6.09244 48.5213 5.7655 48.8205 5.53702 49.1905C5.30853 49.5606 5.18751 49.9869 5.1875 50.4218V54.1343L30.5844 49.9015C31.1965 49.7997 31.8241 49.9449 32.3293 50.3052C32.8346 50.6655 33.1764 51.2114 33.2797 51.8233L35.6234 65.8858C35.6855 66.2549 35.6584 66.6334 35.5442 66.9898C35.43 67.3462 35.2322 67.67 34.9672 67.9343L31.9438 70.9624H44.0656L41.0328 67.9343C40.7685 67.6705 40.5711 67.3474 40.457 66.9919C40.3428 66.6365 40.3153 66.2588 40.3766 65.8905L42.7203 51.828C42.7709 51.5242 42.8809 51.2332 43.044 50.9719C43.2071 50.7106 43.4201 50.4839 43.6709 50.305C43.9217 50.1261 44.2053 49.9983 44.5054 49.9291C44.8056 49.8598 45.1165 49.8505 45.4203 49.9015L70.8125 54.1343V50.4218C70.8125 49.9869 70.6915 49.5606 70.463 49.1905C70.2345 48.8205 69.9076 48.5213 69.5188 48.3265L43.9813 35.5577C43.5924 35.3629 43.2655 35.0637 43.037 34.6937C42.8085 34.3236 42.6875 33.8973 42.6875 33.4624V14.7124C42.6875 12.6874 42.1719 10.1233 41.1781 8.14521C40.1469 6.08271 38.9984 5.3374 38 5.3374C37.0016 5.3374 35.8531 6.07803 34.8219 8.14521Z" fill="#C02327"/>
</g>
<defs>
<clipPath id="clip0_346_1219">
<rect width="75" height="75" fill="white" transform="translate(0.5 0.649902)"/>
</clipPath>
</defs>
</svg>
