<svg width="40" height="40" viewBox="0 0 40 40" fill="none" xmlns="http://www.w3.org/2000/svg">
<g id="material-symbols:shield-outline">
<path id="Vector" d="M19.9993 36.6668C16.1382 35.6946 12.9505 33.479 10.436 30.0202C7.92157 26.5613 6.66491 22.7213 6.66602 18.5002V8.3335L19.9993 3.3335L33.3327 8.3335V18.5002C33.3327 22.7224 32.076 26.5629 29.5627 30.0218C27.0494 33.4807 23.8616 35.6957 19.9993 36.6668ZM19.9993 33.1668C22.8882 32.2502 25.2771 30.4168 27.166 27.6668C29.0549 24.9168 29.9993 21.8613 29.9993 18.5002V10.6252L19.9993 6.87516L9.99935 10.6252V18.5002C9.99935 21.8613 10.9438 24.9168 12.8327 27.6668C14.7216 30.4168 17.1105 32.2502 19.9993 33.1668Z" fill="#EAE8E8"/>
</g>
</svg>
