<svg width="40" height="40" viewBox="0 0 40 40" fill="none" xmlns="http://www.w3.org/2000/svg">
<g id="carbon:operations-field">
<path id="Vector" d="M25 15V2.5H27.5V15H25ZM30 15V2.5H32.5V15H30ZM35 15V2.5H37.5V15H35ZM20 25C19.3393 25.015 18.6824 24.896 18.0689 24.65C17.4555 24.4041 16.8983 24.0363 16.431 23.569C15.9637 23.1017 15.5959 22.5445 15.35 21.9311C15.104 21.3176 14.985 20.6607 15 20C14.985 19.3393 15.104 18.6824 15.35 18.0689C15.5959 17.4555 15.9637 16.8983 16.431 16.431C16.8983 15.9637 17.4555 15.5959 18.0689 15.35C18.6824 15.104 19.3393 14.985 20 15V12.5C18.5166 12.5 17.0666 12.9399 15.8332 13.764C14.5999 14.5881 13.6386 15.7594 13.0709 17.1299C12.5032 18.5003 12.3547 20.0083 12.6441 21.4632C12.9335 22.918 13.6478 24.2544 14.6967 25.3033C15.7456 26.3522 17.082 27.0665 18.5368 27.3559C19.9917 27.6453 21.4997 27.4968 22.8701 26.9291C24.2406 26.3614 25.4119 25.4001 26.236 24.1668C27.0601 22.9334 27.5 21.4834 27.5 20H25C25.015 20.6607 24.896 21.3176 24.65 21.9311C24.4041 22.5445 24.0363 23.1017 23.569 23.569C23.1017 24.0363 22.5445 24.4041 21.9311 24.65C21.3176 24.896 20.6607 25.015 20 25Z" fill="#EAE8E8"/>
<path id="Vector_2" d="M36.1169 23.0675L32.6232 20L30.9757 21.88L34.4657 24.945L31.5157 30.055L27.2319 28.605C26.2237 29.4497 25.0756 30.1118 23.8394 30.5612L22.9507 35H17.0507L16.1632 30.5625C14.9355 30.1064 13.7958 29.4417 12.7944 28.5975L8.48569 30.055L5.53569 24.945L8.94194 21.9513C8.7089 20.6586 8.70594 19.3349 8.93319 18.0412L5.53569 15.0538L8.48569 9.945L12.7694 11.395C13.7779 10.5497 14.9265 9.88719 16.1632 9.4375L17.0507 5H20.0007V2.5H17.0507C16.4727 2.50006 15.9127 2.70036 15.4658 3.06682C15.0189 3.43328 14.7127 3.94326 14.5994 4.51L13.9694 7.65875C13.3953 7.93361 12.8411 8.24812 12.3107 8.6L9.28569 7.57625C8.73835 7.39092 8.14368 7.40112 7.60303 7.60512C7.06237 7.80913 6.60918 8.1943 6.32069 8.695L3.37069 13.805C3.08171 14.3054 2.97497 14.8904 3.06863 15.4606C3.16229 16.0307 3.45058 16.5509 3.88444 16.9325L6.29819 19.0537C6.27694 19.3687 6.25069 19.6812 6.25069 20C6.25069 20.3225 6.26319 20.6413 6.28569 20.9575L3.88569 23.0675C3.45142 23.4488 3.16266 23.9688 3.06854 24.539C2.97442 25.1092 3.08075 25.6944 3.36944 26.195L6.31944 31.305C6.60803 31.8062 7.06163 32.1918 7.60284 32.3958C8.14404 32.5999 8.73928 32.6097 9.28694 32.4237L12.3294 31.3937C12.8536 31.7474 13.4016 32.0644 13.9694 32.3425L14.5982 35.49C14.7115 36.0569 15.0178 36.5671 15.465 36.9336C15.9122 37.3001 16.4725 37.5002 17.0507 37.5H22.9507C23.5286 37.4999 24.0887 37.2996 24.5356 36.9332C24.9825 36.5667 25.2887 36.0567 25.4019 35.49L26.0319 32.3412C26.606 32.0664 27.1603 31.7519 27.6907 31.4L30.7144 32.4225C31.2618 32.6083 31.8567 32.5984 32.3976 32.3946C32.9385 32.1909 33.392 31.8058 33.6807 31.305L36.6307 26.195C36.9197 25.6946 37.0264 25.1096 36.9328 24.5394C36.8391 23.9693 36.5508 23.4491 36.1169 23.0675Z" fill="#EAE8E8"/>
</g>
</svg>
