<svg width="70" height="70" viewBox="0 0 70 70" fill="none" xmlns="http://www.w3.org/2000/svg">
<g id="jam:coin-f">
<path id="Vector" d="M32.083 44.7941H31.9343C31.2002 44.7941 30.4961 44.5025 29.977 43.9834C29.458 43.4643 29.1663 42.7603 29.1663 42.0262C29.1663 41.2526 28.859 40.5108 28.3121 39.9638C27.7651 39.4168 27.0232 39.1095 26.2497 39.1095C25.4761 39.1095 24.7343 39.4168 24.1873 39.9638C23.6403 40.5108 23.333 41.2526 23.333 42.0262C23.333 44.3074 24.2392 46.4951 25.8523 48.1082C27.4653 49.7212 29.6531 50.6274 31.9343 50.6274H32.083V53.5441C32.083 54.3177 32.3903 55.0595 32.9373 55.6065C33.4843 56.1535 34.2261 56.4608 34.9997 56.4608C35.7732 56.4608 36.5151 56.1535 37.0621 55.6065C37.609 55.0595 37.9163 54.3177 37.9163 53.5441V50.6274C40.237 50.6274 42.4626 49.7056 44.1035 48.0646C45.7445 46.4237 46.6663 44.1981 46.6663 41.8774C46.6663 39.5568 45.7445 37.3312 44.1035 35.6903C42.4626 34.0493 40.237 33.1274 37.9163 33.1274V27.2941H37.9805C39.5555 27.2941 40.833 28.5716 40.833 30.1466C40.833 30.9202 41.1403 31.662 41.6873 32.209C42.2343 32.756 42.9761 33.0633 43.7497 33.0633C44.5232 33.0633 45.2651 32.756 45.8121 32.209C46.359 31.662 46.6663 30.9202 46.6663 30.1466C46.6663 27.843 45.7512 25.6337 44.1223 24.0048C42.4934 22.3759 40.2841 21.4608 37.9805 21.4608H37.9163V18.5441C37.9163 17.7706 37.609 17.0287 37.0621 16.4817C36.5151 15.9347 35.7732 15.6274 34.9997 15.6274C34.2261 15.6274 33.4843 15.9347 32.9373 16.4817C32.3903 17.0287 32.083 17.7706 32.083 18.5441V21.4608C30.9339 21.4608 29.7961 21.6871 28.7345 22.1268C27.6729 22.5666 26.7083 23.2111 25.8958 24.0236C25.0833 24.8361 24.4388 25.8007 23.9991 26.8623C23.5593 27.9239 23.333 29.0617 23.333 30.2108C23.333 31.3598 23.5593 32.4977 23.9991 33.5593C24.4388 34.6209 25.0833 35.5854 25.8958 36.398C26.7083 37.2105 27.6729 37.855 28.7345 38.2947C29.7961 38.7344 30.9339 38.9608 32.083 38.9608V44.7941ZM37.9163 44.7941V38.9608C38.6899 38.9608 39.4318 39.2681 39.9787 39.815C40.5257 40.362 40.833 41.1039 40.833 41.8774C40.833 42.651 40.5257 43.3929 39.9787 43.9398C39.4318 44.4868 38.6899 44.7941 37.9163 44.7941ZM32.083 27.2941V33.1274C31.3095 33.1274 30.5676 32.8201 30.0206 32.2732C29.4736 31.7262 29.1663 30.9843 29.1663 30.2108C29.1663 29.4372 29.4736 28.6954 30.0206 28.1484C30.5676 27.6014 31.3095 27.2941 32.083 27.2941ZM34.9997 65.2108C18.8909 65.2108 5.83301 52.1529 5.83301 36.0441C5.83301 19.9354 18.8909 6.87744 34.9997 6.87744C51.1084 6.87744 64.1663 19.9354 64.1663 36.0441C64.1663 52.1529 51.1084 65.2108 34.9997 65.2108Z" fill="#EAE8E8"/>
</g>
</svg>
