<svg width="59" height="58" viewBox="0 0 59 58" fill="none" xmlns="http://www.w3.org/2000/svg">
<g id="la:hands">
<path id="Vector" d="M5.9375 9.0625V29.7359L6.44681 30.3032L16.8125 40.6671V50.75H27.6875V39.875C27.6947 39.7753 27.9521 34.1566 23.2686 31.1514C23.2559 31.1442 23.2831 31.1025 23.2686 31.0971C23.2559 31.088 23.2269 31.1025 23.2142 31.0971C21.0664 29.6942 18.8516 28.5487 17.3236 27.3579C15.7794 26.1616 15 25.1702 15 23.5625H11.375C11.375 26.4933 13.0878 28.7172 15.0562 30.247C17.0246 31.7767 19.3119 32.9023 21.2296 34.1547H21.2876C24.1894 35.9745 24.0625 39.8188 24.0625 39.8188V47.125H20.4375V39.1391L19.9282 38.5718L9.5625 28.2079V9.0625H5.9375ZM49.4375 9.0625V28.2079L39.0718 38.5718L38.5625 39.1391V47.125H34.9375V39.7608C34.9375 39.7608 34.8106 35.9727 37.7124 34.1547H37.7704C39.6826 32.9023 41.9754 31.7731 43.9438 30.2452C45.9122 28.7191 47.625 26.4933 47.625 23.5625H44C44 25.1702 43.2206 26.1616 41.6782 27.3579C40.1484 28.5469 37.9336 29.6924 35.7876 31.0953C35.7731 31.1025 35.7441 31.088 35.7296 31.0953V31.1532C31.0859 34.1257 31.3071 39.6847 31.3125 39.875V50.75H42.1875V40.6671L52.5532 30.3032L53.0625 29.7359V9.0625H49.4375Z" fill="#ECE9E8"/>
<path id="Vector_2" d="M38.3734 0C33.0474 0 28.6803 4.0194 28.2977 9.09559C26.4447 7.45469 24.0271 6.54457 21.5187 6.54359H14.7769V13.0872C14.7769 18.5004 19.3141 22.9026 24.8897 22.9026H28.2606V29.4462H31.6316V16.359H35.0025C40.578 16.359 45.1153 11.9568 45.1153 6.54359V0H38.3734ZM24.8897 19.6308C21.1715 19.6308 18.1478 16.696 18.1478 13.0872V9.81538H21.5187C25.2369 9.81538 28.2606 12.7502 28.2606 16.359V17.3176L24.3958 13.5665L22.0126 15.8797L25.8774 19.6308H24.8897ZM41.7444 6.54359C41.7444 10.1524 38.7206 13.0872 35.0025 13.0872H34.0148L37.8796 9.33607L35.4963 7.02291L31.6316 10.774V9.81538C31.6316 6.20659 34.6553 3.27179 38.3734 3.27179H41.7444V6.54359Z" fill="#ECE9E8"/>
</g>
</svg>
