<svg width="39" height="39" viewBox="0 0 39 39" fill="none" xmlns="http://www.w3.org/2000/svg">
<g id="ep:arrow-up-bold">
<path id="Vector" d="M28.1025 35.3181C28.5595 34.861 28.8162 34.2411 28.8162 33.5948C28.8162 32.9484 28.5595 32.3285 28.1025 31.8714L16.0369 19.8058L28.1025 7.74019C28.5466 7.28048 28.7922 6.66476 28.7867 6.02565C28.7811 5.38655 28.5248 4.77519 28.0729 4.32326C27.6209 3.87133 27.0096 3.61498 26.3705 3.60943C25.7314 3.60387 25.1156 3.84956 24.6559 4.29357L10.867 18.0825C10.41 18.5396 10.1533 19.1595 10.1533 19.8058C10.1533 20.4522 10.41 21.072 10.867 21.5291L24.6559 35.3181C25.113 35.775 25.7329 36.0317 26.3792 36.0317C27.0256 36.0317 27.6455 35.775 28.1025 35.3181Z" fill="#EAE8E8"/>
</g>
</svg>
