<svg width="40" height="40" viewBox="0 0 40 40" fill="none" xmlns="http://www.w3.org/2000/svg">
<g id="mdi:legal">
<path id="Vector" d="M19.9993 5C17.8827 5 15.9993 6.33333 15.2993 8.33333H4.99932V11.6667H8.24932L3.33265 23.3333C2.54932 26.6667 4.99932 28.3333 9.16598 28.3333C13.3327 28.3333 15.9326 26.6667 14.9993 23.3333L10.0827 11.6667H15.2826C15.8327 13.0833 16.916 14.1667 18.3327 14.7167V33.3333H3.33265V36.6667H36.666V33.3333H21.666V14.7C23.0827 14.1667 24.166 13.0833 24.6993 11.6667H29.916L24.9993 23.3333C24.216 26.6667 26.666 28.3333 30.8326 28.3333C34.9993 28.3333 37.5993 26.6667 36.666 23.3333L31.7493 11.6667H34.9993V8.33333H24.716C23.9993 6.33333 22.116 5 19.9993 5ZM19.9993 8.33333C20.4413 8.33333 20.8653 8.50893 21.1778 8.82149C21.4904 9.13405 21.666 9.55797 21.666 10C21.666 10.442 21.4904 10.866 21.1778 11.1785C20.8653 11.4911 20.4413 11.6667 19.9993 11.6667C19.5573 11.6667 19.1334 11.4911 18.8208 11.1785C18.5082 10.866 18.3327 10.442 18.3327 10C18.3327 9.55797 18.5082 9.13405 18.8208 8.82149C19.1334 8.50893 19.5573 8.33333 19.9993 8.33333ZM9.16598 17.0833L11.666 23.3333H6.66598L9.16598 17.0833ZM30.8326 17.0833L33.3326 23.3333H28.3327L30.8326 17.0833Z" fill="#EAE8E8"/>
</g>
</svg>
