<svg width="180" height="180" viewBox="0 0 180 180" fill="none" xmlns="http://www.w3.org/2000/svg">
<g id="Group 116">
<circle id="Ellipse 39" cx="90" cy="90" r="90" fill="#303030"/>
<path id="Vector" d="M136 84.9091C136 113.164 116.373 139.585 90 146C63.6267 139.585 44 113.164 44 84.9091V54.3636L90 34L136 54.3636V84.9091ZM90 135.818C109.167 130.727 125.778 108.022 125.778 86.0291V60.9818L90 45.0982L54.2222 60.9818V86.0291C54.2222 108.022 70.8333 130.727 90 135.818ZM104.311 84.9091V77.2727C104.311 70.1455 97.1556 64.5455 90 64.5455C82.8444 64.5455 75.6889 70.1455 75.6889 77.2727V84.9091C72.6222 84.9091 69.5556 87.9636 69.5556 91.0182V108.836C69.5556 112.4 72.6222 115.455 75.6889 115.455H103.8C107.378 115.455 110.444 112.4 110.444 109.345V91.5273C110.444 87.9636 107.378 84.9091 104.311 84.9091ZM97.6667 84.9091H82.3333V77.2727C82.3333 73.2 85.9111 70.6545 90 70.6545C94.0889 70.6545 97.6667 73.2 97.6667 77.2727V84.9091Z" fill="#EAE8E8"/>
</g>
</svg>
