<svg width="99" height="99" viewBox="0 0 99 99" fill="none" xmlns="http://www.w3.org/2000/svg">
<g id="ph:hand-tap-bold">
<path id="Vector" d="M84.7188 59.8206V73.6018C84.7188 78.9038 84.0948 83.754 82.9655 87.2606C82.5766 88.4009 81.7552 89.3429 80.6784 89.8834C79.6015 90.4239 78.3554 90.5197 77.2086 90.1502C76.0618 89.7806 75.1061 88.9753 74.5475 87.9078C73.9888 86.8402 73.8719 85.596 74.222 84.4431C75.0413 81.8974 75.5312 77.8434 75.5312 73.6018V59.8206C75.5312 59.0083 75.2086 58.2294 74.6343 57.655C74.0599 57.0807 73.281 56.7581 72.4688 56.7581C71.6565 56.7581 70.8776 57.0807 70.3032 57.655C69.7289 58.2294 69.4063 59.0083 69.4063 59.8206V61.3518C69.4063 62.5701 68.9223 63.7386 68.0608 64.6001C67.1993 65.4616 66.0308 65.9456 64.8125 65.9456C63.5942 65.9456 62.4257 65.4616 61.5642 64.6001C60.7027 63.7386 60.2188 62.5701 60.2188 61.3518V53.6956C60.2188 52.8833 59.8961 52.1044 59.3218 51.53C58.7474 50.9557 57.9685 50.6331 57.1563 50.6331C56.344 50.6331 55.5651 50.9557 54.9907 51.53C54.4164 52.1044 54.0938 52.8833 54.0938 53.6956V58.2893C54.0938 59.5076 53.6098 60.6761 52.7483 61.5376C51.8868 62.3991 50.7183 62.8831 49.5 62.8831C48.2817 62.8831 47.1132 62.3991 46.2517 61.5376C45.3902 60.6761 44.9063 59.5076 44.9063 58.2893V32.2581C44.9063 31.4458 44.5836 30.6669 44.0093 30.0925C43.4349 29.5182 42.656 29.1956 41.8438 29.1956C41.0315 29.1956 40.2526 29.5182 39.6782 30.0925C39.1039 30.6669 38.7813 31.4458 38.7813 32.2581V73.6018C38.7801 74.5991 38.4545 75.5689 37.8535 76.3648C37.2526 77.1607 36.4089 77.7394 35.45 78.0135C34.4911 78.2876 33.4691 78.2422 32.5383 77.8841C31.6075 77.5261 30.8185 76.8749 30.2905 76.0288L23.1395 64.5445L23.0591 64.4143C22.6571 63.7072 21.9906 63.1887 21.2063 62.973C20.422 62.7572 19.5841 62.8619 18.8769 63.264C18.1698 63.666 17.6513 64.3325 17.4356 65.1168C17.2198 65.9011 17.3245 66.739 17.7266 67.4462L27.4002 83.4784C28.0292 84.5221 28.2178 85.7729 27.9245 86.9557C27.6313 88.1384 26.8802 89.1562 25.8364 89.7852C24.7927 90.4142 23.5419 90.6028 22.3592 90.3095C21.1764 90.0162 20.1586 89.2651 19.5296 88.2214L9.84063 72.1433L9.79469 72.0667C8.27467 69.4353 7.78697 66.3329 8.42632 63.3621C9.06566 60.3912 10.7864 57.7641 13.2543 55.9909C15.7222 54.2178 18.7611 53.4252 21.7807 53.7672C24.8002 54.1091 27.5849 55.5612 29.5938 57.8414V32.2581C29.5938 29.0092 30.8844 25.8933 33.1817 23.596C35.479 21.2987 38.5949 20.0081 41.8438 20.0081C45.0927 20.0081 48.2085 21.2987 50.5058 23.596C52.8031 25.8933 54.0938 29.0092 54.0938 32.2581V41.8284C56.8311 41.1218 59.7286 41.3838 62.2949 42.57C64.8611 43.7561 66.9381 45.7933 68.1736 48.3362C70.0277 47.642 72.0225 47.4076 73.9871 47.653C75.9517 47.8984 77.8275 48.6163 79.4539 49.7452C81.0804 50.8741 82.4089 52.3805 83.3258 54.1352C84.2427 55.8899 84.7207 57.8407 84.7188 59.8206ZM18.875 36.8518C20.0933 36.8518 21.2618 36.3678 22.1233 35.5063C22.9848 34.6448 23.4688 33.4764 23.4688 32.2581C23.4688 27.3847 25.4047 22.711 28.8507 19.265C32.2966 15.819 36.9704 13.8831 41.8438 13.8831C46.7171 13.8831 51.3909 15.819 54.8368 19.265C58.2828 22.711 60.2188 27.3847 60.2188 32.2581C60.2188 33.4764 60.7027 34.6448 61.5642 35.5063C62.4257 36.3678 63.5942 36.8518 64.8125 36.8518C66.0308 36.8518 67.1993 36.3678 68.0608 35.5063C68.9223 34.6448 69.4063 33.4764 69.4063 32.2581C69.4063 24.948 66.5024 17.9374 61.3334 12.7684C56.1644 7.59945 49.1538 4.69556 41.8438 4.69556C34.5337 4.69556 27.5231 7.59945 22.3541 12.7684C17.1852 17.9374 14.2813 24.948 14.2813 32.2581C14.2813 33.4764 14.7652 34.6448 15.6267 35.5063C16.4882 36.3678 17.6567 36.8518 18.875 36.8518Z" fill="#EAE8E8"/>
</g>
</svg>
