<svg width="194" height="157" viewBox="0 0 194 157" fill="none" xmlns="http://www.w3.org/2000/svg">
<path d="M13.975 31.0518L12.025 28.1268C11.475 28.2268 10.9167 28.2768 10.35 28.2768C8.7 28.2768 7.18333 27.8935 5.8 27.1268C4.41667 26.3435 3.31667 25.2685 2.5 23.9018C1.7 22.5185 1.3 20.9601 1.3 19.2268C1.3 17.4935 1.7 15.9435 2.5 14.5768C3.31667 13.1935 4.41667 12.1185 5.8 11.3518C7.18333 10.5851 8.7 10.2018 10.35 10.2018C12.0167 10.2018 13.5333 10.5851 14.9 11.3518C16.2833 12.1185 17.375 13.1935 18.175 14.5768C18.975 15.9435 19.375 17.4935 19.375 19.2268C19.375 20.6768 19.0833 22.0185 18.5 23.2518C17.9167 24.4685 17.1167 25.4851 16.1 26.3018L19.825 31.0518H13.975ZM6.3 19.2268C6.3 20.6101 6.65833 21.7101 7.375 22.5268C8.09167 23.3268 9.08333 23.7268 10.35 23.7268C11.6 23.7268 12.5833 23.3185 13.3 22.5018C14.0333 21.6851 14.4 20.5935 14.4 19.2268C14.4 17.8268 14.0333 16.7268 13.3 15.9268C12.5833 15.1101 11.6 14.7018 10.35 14.7018C9.08333 14.7018 8.09167 15.1101 7.375 15.9268C6.65833 16.7268 6.3 17.8268 6.3 19.2268ZM35.9521 14.0768V28.1018H31.0271V26.1018C30.6105 26.7351 30.0355 27.2518 29.3021 27.6518C28.5688 28.0351 27.7271 28.2268 26.7771 28.2268C25.1438 28.2268 23.8521 27.6935 22.9021 26.6268C21.9688 25.5435 21.5021 24.0768 21.5021 22.2268V14.0768H26.3771V21.6018C26.3771 22.4018 26.5855 23.0351 27.0021 23.5018C27.4355 23.9518 28.0021 24.1768 28.7021 24.1768C29.4188 24.1768 29.9855 23.9518 30.4021 23.5018C30.8188 23.0351 31.0271 22.4018 31.0271 21.6018V14.0768H35.9521ZM52.1408 20.9268C52.1408 21.3101 52.1158 21.6935 52.0658 22.0768H42.7908C42.8408 22.8435 43.0492 23.4185 43.4158 23.8018C43.7992 24.1685 44.2825 24.3518 44.8658 24.3518C45.6825 24.3518 46.2658 23.9851 46.6158 23.2518H51.8408C51.6242 24.2185 51.1992 25.0851 50.5658 25.8518C49.9492 26.6018 49.1658 27.1935 48.2158 27.6268C47.2658 28.0601 46.2158 28.2768 45.0658 28.2768C43.6825 28.2768 42.4492 27.9851 41.3658 27.4018C40.2992 26.8185 39.4575 25.9851 38.8408 24.9018C38.2408 23.8185 37.9408 22.5435 37.9408 21.0768C37.9408 19.6101 38.2408 18.3435 38.8408 17.2768C39.4408 16.1935 40.2742 15.3601 41.3408 14.7768C42.4242 14.1935 43.6658 13.9018 45.0658 13.9018C46.4492 13.9018 47.6742 14.1851 48.7408 14.7518C49.8075 15.3185 50.6408 16.1351 51.2408 17.2018C51.8408 18.2518 52.1408 19.4935 52.1408 20.9268ZM47.1408 19.7018C47.1408 19.1018 46.9408 18.6351 46.5408 18.3018C46.1408 17.9518 45.6408 17.7768 45.0408 17.7768C44.4408 17.7768 43.9492 17.9435 43.5658 18.2768C43.1825 18.5935 42.9325 19.0685 42.8158 19.7018H47.1408ZM72.3313 20.9268C72.3313 21.3101 72.3063 21.6935 72.2563 22.0768H62.9813C63.0313 22.8435 63.2396 23.4185 63.6063 23.8018C63.9896 24.1685 64.4729 24.3518 65.0563 24.3518C65.8729 24.3518 66.4563 23.9851 66.8063 23.2518H72.0313C71.8146 24.2185 71.3896 25.0851 70.7563 25.8518C70.1396 26.6018 69.3563 27.1935 68.4063 27.6268C67.4563 28.0601 66.4063 28.2768 65.2563 28.2768C63.8729 28.2768 62.6396 27.9851 61.5563 27.4018C60.4896 26.8185 59.6479 25.9851 59.0313 24.9018C58.4313 23.8185 58.1313 22.5435 58.1313 21.0768C58.1313 19.6101 58.4313 18.3435 59.0313 17.2768C59.6313 16.1935 60.4646 15.3601 61.5313 14.7768C62.6146 14.1935 63.8563 13.9018 65.2563 13.9018C66.6396 13.9018 67.8646 14.1851 68.9313 14.7518C69.9979 15.3185 70.8313 16.1351 71.4313 17.2018C72.0313 18.2518 72.3313 19.4935 72.3313 20.9268ZM67.3313 19.7018C67.3313 19.1018 67.1313 18.6351 66.7313 18.3018C66.3313 17.9518 65.8313 17.7768 65.2313 17.7768C64.6313 17.7768 64.1396 17.9435 63.7563 18.2768C63.3729 18.5935 63.1229 19.0685 63.0063 19.7018H67.3313ZM80.3115 28.2768C79.0449 28.2768 77.9115 28.0685 76.9115 27.6518C75.9282 27.2185 75.1449 26.6351 74.5615 25.9018C73.9949 25.1518 73.6782 24.3101 73.6115 23.3768H78.3615C78.4282 23.8268 78.6365 24.1768 78.9865 24.4268C79.3365 24.6768 79.7699 24.8018 80.2865 24.8018C80.6865 24.8018 81.0032 24.7185 81.2365 24.5518C81.4699 24.3851 81.5865 24.1685 81.5865 23.9018C81.5865 23.5518 81.3949 23.2935 81.0115 23.1268C80.6282 22.9601 79.9949 22.7768 79.1115 22.5768C78.1115 22.3768 77.2782 22.1518 76.6115 21.9018C75.9449 21.6518 75.3615 21.2435 74.8615 20.6768C74.3782 20.1101 74.1365 19.3435 74.1365 18.3768C74.1365 17.5435 74.3615 16.7935 74.8115 16.1268C75.2615 15.4435 75.9199 14.9018 76.7865 14.5018C77.6699 14.1018 78.7282 13.9018 79.9615 13.9018C81.7949 13.9018 83.2365 14.3518 84.2865 15.2518C85.3365 16.1518 85.9449 17.3351 86.1115 18.8018H81.6865C81.6032 18.3518 81.4032 18.0101 81.0865 17.7768C80.7865 17.5268 80.3782 17.4018 79.8615 17.4018C79.4615 17.4018 79.1532 17.4768 78.9365 17.6268C78.7365 17.7768 78.6365 17.9851 78.6365 18.2518C78.6365 18.5851 78.8282 18.8435 79.2115 19.0268C79.5949 19.1935 80.2115 19.3685 81.0615 19.5518C82.0782 19.7685 82.9199 20.0101 83.5865 20.2768C84.2699 20.5435 84.8615 20.9768 85.3615 21.5768C85.8782 22.1601 86.1365 22.9601 86.1365 23.9768C86.1365 24.7935 85.8949 25.5268 85.4115 26.1768C84.9449 26.8268 84.2699 27.3435 83.3865 27.7268C82.5199 28.0935 81.4949 28.2768 80.3115 28.2768ZM107.681 14.0768V28.1018H102.756V26.1018C102.339 26.7351 101.764 27.2518 101.031 27.6518C100.297 28.0351 99.4557 28.2268 98.5057 28.2268C96.8723 28.2268 95.5807 27.6935 94.6307 26.6268C93.6973 25.5435 93.2307 24.0768 93.2307 22.2268V14.0768H98.1057V21.6018C98.1057 22.4018 98.314 23.0351 98.7307 23.5018C99.164 23.9518 99.7307 24.1768 100.431 24.1768C101.147 24.1768 101.714 23.9518 102.131 23.5018C102.547 23.0351 102.756 22.4018 102.756 21.6018V14.0768H107.681ZM119.644 13.9518C121.261 13.9518 122.544 14.4935 123.494 15.5768C124.444 16.6435 124.919 18.0935 124.919 19.9268V28.1018H120.019V20.5768C120.019 19.7768 119.811 19.1518 119.394 18.7018C118.978 18.2351 118.419 18.0018 117.719 18.0018C116.986 18.0018 116.411 18.2351 115.994 18.7018C115.578 19.1518 115.369 19.7768 115.369 20.5768V28.1018H110.469V14.0768H115.369V16.0768C115.803 15.4435 116.386 14.9351 117.119 14.5518C117.853 14.1518 118.694 13.9518 119.644 13.9518ZM148.718 28.1018H143.818L137.293 18.2518V28.1018H132.393V10.4768H137.293L143.818 20.4518V10.4768H148.718V28.1018ZM163.459 10.4768V14.3768H156.409V17.4768H161.609V21.2018H156.409V28.1018H151.509V10.4768H163.459ZM178.798 10.4768V14.3768H174.098V28.1018H169.198V14.3768H164.548V10.4768H178.798ZM185.961 9.17681C187.778 9.17681 189.236 9.64347 190.336 10.5768C191.436 11.5101 191.986 12.8435 191.986 14.5768C191.986 16.0935 191.478 17.2935 190.461 18.1768C189.461 19.0601 188.136 19.5185 186.486 19.5518L186.361 21.3768H182.036L181.886 16.4018H183.686C184.819 16.4018 185.686 16.2768 186.286 16.0268C186.886 15.7601 187.186 15.2935 187.186 14.6268C187.186 14.1768 187.061 13.8268 186.811 13.5768C186.578 13.3101 186.253 13.1768 185.836 13.1768C185.369 13.1768 185.011 13.3185 184.761 13.6018C184.528 13.8685 184.411 14.2351 184.411 14.7018H179.786C179.753 13.6851 179.961 12.7601 180.411 11.9268C180.878 11.0768 181.578 10.4101 182.511 9.92681C183.444 9.42681 184.594 9.17681 185.961 9.17681ZM184.236 28.3018C183.369 28.3018 182.669 28.0685 182.136 27.6018C181.619 27.1185 181.361 26.5101 181.361 25.7768C181.361 25.0435 181.619 24.4351 182.136 23.9518C182.669 23.4685 183.369 23.2268 184.236 23.2268C185.086 23.2268 185.769 23.4685 186.286 23.9518C186.819 24.4351 187.086 25.0435 187.086 25.7768C187.086 26.4935 186.819 27.0935 186.286 27.5768C185.769 28.0601 185.086 28.3018 184.236 28.3018Z" fill="#EAE8E8"/>
<path d="M84.7499 107.102C86.9159 107.102 88.9931 106.241 90.5246 104.71C92.0562 103.178 92.9166 101.101 92.9166 98.9351C92.9166 96.7691 92.0562 94.6919 90.5246 93.1604C88.9931 91.6288 86.9159 90.7684 84.7499 90.7684C82.584 90.7684 80.5068 91.6288 78.9752 93.1604C77.4437 94.6919 76.5833 96.7691 76.5833 98.9351C76.5833 101.101 77.4437 103.178 78.9752 104.71C80.5068 106.241 82.584 107.102 84.7499 107.102ZM96.9999 62.1851L135.792 84.6434V129.56L96.9999 152.018L58.2083 129.56V84.6434L96.9999 62.1851ZM66.3749 89.3515V124.852L76.0606 130.458L109.025 106.285L127.625 117.449V89.3556L96.9999 71.6176L66.3749 89.3515Z" fill="#EAE8E8"/>
</svg>
