<svg width="100" height="100" viewBox="0 0 100 100" fill="none" xmlns="http://www.w3.org/2000/svg">
<g id="majesticons:login">
<path id="Vector" fill-rule="evenodd" clip-rule="evenodd" d="M45.8327 8.33325C42.5175 8.33325 39.338 9.65021 36.9938 11.9944C34.6496 14.3386 33.3327 17.518 33.3327 20.8333V79.1666C33.3327 82.4818 34.6496 85.6612 36.9938 88.0054C39.338 90.3496 42.5175 91.6666 45.8327 91.6666H70.8327C74.1479 91.6666 77.3273 90.3496 79.6715 88.0054C82.0157 85.6612 83.3327 82.4818 83.3327 79.1666V20.8333C83.3327 17.518 82.0157 14.3386 79.6715 11.9944C77.3273 9.65021 74.1479 8.33325 70.8327 8.33325H45.8327ZM51.2202 34.5541C52.0015 33.773 53.0612 33.3341 54.166 33.3341C55.2709 33.3341 56.3305 33.773 57.1118 34.5541L69.6119 47.0541C70.393 47.8355 70.8318 48.8951 70.8318 49.9999C70.8318 51.1048 70.393 52.1644 69.6119 52.9458L57.1118 65.4458C56.326 66.2047 55.2735 66.6247 54.181 66.6152C53.0885 66.6057 52.0435 66.1675 51.2709 65.395C50.4984 64.6225 50.0602 63.5774 50.0507 62.4849C50.0412 61.3924 50.4612 60.3399 51.2202 59.5541L56.6077 54.1666H20.8327C19.7276 54.1666 18.6678 53.7276 17.8864 52.9462C17.105 52.1648 16.666 51.105 16.666 49.9999C16.666 48.8949 17.105 47.835 17.8864 47.0536C18.6678 46.2722 19.7276 45.8333 20.8327 45.8333H56.6077L51.2202 40.4458C50.4391 39.6644 50.0002 38.6048 50.0002 37.4999C50.0002 36.3951 50.4391 35.3355 51.2202 34.5541Z" fill="#D9D9D9"/>
</g>
</svg>
