<svg width="51" height="50" viewBox="0 0 51 50" fill="none" xmlns="http://www.w3.org/2000/svg">
<g id="material-symbols:speed-outline">
<path id="Vector" d="M22.2702 32.2918C23.1035 33.1252 24.1799 33.5335 25.4993 33.5168C26.8188 33.5002 27.791 33.0224 28.416 32.0835L40.0827 14.5835L22.5827 26.2502C21.6452 26.8752 21.1507 27.83 21.0993 29.1147C21.048 30.3995 21.4382 31.4585 22.2702 32.2918ZM25.4993 8.3335C27.548 8.3335 29.5188 8.61961 31.4118 9.19183C33.3049 9.76405 35.0841 10.6238 36.7493 11.771L32.791 14.271C31.6452 13.6807 30.4563 13.2384 29.2243 12.9439C27.9924 12.6495 26.7507 12.5016 25.4993 12.5002C20.8813 12.5002 16.9487 14.1238 13.7014 17.371C10.4542 20.6182 8.83129 24.5502 8.83268 29.1668C8.83268 30.6252 9.03268 32.0661 9.43268 33.4897C9.83268 34.9134 10.3966 36.2502 11.1243 37.5002H39.8743C40.673 36.1807 41.2549 34.8092 41.6202 33.3856C41.9855 31.962 42.1674 30.4863 42.166 28.9585C42.166 27.7085 42.0181 26.4932 41.7223 25.3127C41.4264 24.1321 40.9841 22.9863 40.3952 21.8752L42.8952 17.9168C43.9368 19.5488 44.7618 21.2849 45.3702 23.1252C45.9785 24.9654 46.2993 26.8752 46.3327 28.8543C46.3674 30.8335 46.1417 32.7259 45.6556 34.5314C45.1695 36.337 44.4577 38.0557 43.5202 39.6877C43.1382 40.3127 42.6174 40.7988 41.9577 41.146C41.298 41.4932 40.6035 41.6668 39.8743 41.6668H11.1243C10.3952 41.6668 9.70074 41.4932 9.04102 41.146C8.38129 40.7988 7.86046 40.3127 7.47852 39.6877C6.57574 38.1252 5.88129 36.4675 5.39518 34.7147C4.90907 32.962 4.66602 31.1127 4.66602 29.1668C4.66602 26.2849 5.21324 23.5856 6.30768 21.0689C7.40213 18.5522 8.89518 16.3474 10.7868 14.4543C12.6785 12.5613 14.891 11.0682 17.4243 9.97516C19.9577 8.88211 22.6493 8.33488 25.4993 8.3335Z" fill="#D9D9D9"/>
</g>
</svg>
