<svg width="81" height="80" viewBox="0 0 81 80" fill="none" xmlns="http://www.w3.org/2000/svg">
<g id="material-symbols:moving">
<path id="Vector" d="M11.8327 60L7.16602 55.3333L24.8327 37.6667C26.7771 35.7222 29.1382 34.75 31.916 34.75C34.6938 34.75 37.0549 35.7222 38.9993 37.6667L42.8327 41.5C43.4993 42.1667 44.2916 42.5 45.2093 42.5C46.1271 42.5 46.9182 42.1667 47.5827 41.5L62.416 26.6667H53.8327V20H73.8327V40H67.166V31.4167L52.2493 46.25C50.3049 48.1944 47.9438 49.1667 45.166 49.1667C42.3882 49.1667 40.0271 48.1944 38.0827 46.25L34.166 42.3333C33.5549 41.7222 32.7771 41.4167 31.8327 41.4167C30.8882 41.4167 30.1105 41.7222 29.4993 42.3333L11.8327 60Z" fill="#EAE8E8"/>
</g>
</svg>
