<svg width="70" height="70" viewBox="0 0 70 70" fill="none" xmlns="http://www.w3.org/2000/svg">
<g id="material-symbols:point-scan">
<path id="Vector" d="M35 40.8333C33.3958 40.8333 32.0231 40.2626 30.8817 39.1213C29.7403 37.9799 29.1686 36.6061 29.1667 35C29.1667 33.3958 29.7383 32.0231 30.8817 30.8817C32.025 29.7403 33.3978 29.1686 35 29.1667C36.6042 29.1667 37.9779 29.7383 39.1213 30.8817C40.2646 32.025 40.8353 33.3978 40.8333 35C40.8333 36.6042 40.2626 37.9779 39.1213 39.1213C37.9799 40.2646 36.6061 40.8353 35 40.8333ZM32.0833 23.3333V8.75H37.9167V23.3333H32.0833ZM32.0833 61.25V46.6667H37.9167V61.25H32.0833ZM46.6667 37.9167V32.0833H61.25V37.9167H46.6667ZM8.75 37.9167V32.0833H23.3333V37.9167H8.75Z" fill="#EAE8E8"/>
</g>
</svg>
