<svg width="99" height="99" viewBox="0 0 99 99" fill="none" xmlns="http://www.w3.org/2000/svg">
<g id="material-symbols:wall-art-outline-sharp">
<path id="Vector" d="M8.66675 89.9352V24.6019H33.1667L49.5001 8.26855L65.8334 24.6019H90.3334V89.9352H8.66675ZM16.8334 81.7685H82.1667V32.7686H16.8334V81.7685ZM25.0001 73.6019H74.0001L58.6876 53.1852L46.4376 69.5186L37.2501 57.2686L25.0001 73.6019ZM71.9584 53.1852C73.6598 53.1852 75.1067 52.5904 76.299 51.4008C77.4913 50.2112 78.0861 48.7643 78.0834 47.0602C78.0834 45.3588 77.4886 43.9133 76.299 42.7237C75.1094 41.5341 73.6625 40.9379 71.9584 40.9352C70.257 40.9352 68.8115 41.5314 67.6219 42.7237C66.4323 43.916 65.8361 45.3616 65.8334 47.0602C65.8334 48.7616 66.4296 50.2085 67.6219 51.4008C68.8142 52.5931 70.2597 53.1879 71.9584 53.1852ZM41.7417 24.6019H57.2584L49.5001 16.8436L41.7417 24.6019Z" fill="#EAE8E8"/>
</g>
</svg>
