<svg width="50" height="50" viewBox="0 0 50 50" fill="none" xmlns="http://www.w3.org/2000/svg">
<g id="mdi:hand-coin-outline">
<path id="Vector" d="M33.334 4.16675C27.584 4.16675 22.9173 8.83341 22.9173 14.5834C22.9173 20.3334 27.584 25.0001 33.334 25.0001C39.084 25.0001 43.7506 20.3334 43.7506 14.5834C43.7506 8.83341 39.084 4.16675 33.334 4.16675ZM33.334 20.8334C29.8757 20.8334 27.084 18.0417 27.084 14.5834C27.084 11.1251 29.8757 8.33341 33.334 8.33341C36.7923 8.33341 39.584 11.1251 39.584 14.5834C39.584 18.0417 36.7923 20.8334 33.334 20.8334ZM39.584 33.3334H35.4173C35.4173 30.8334 33.8548 28.5834 31.5215 27.7084L18.6882 22.9167H2.08398V45.8334H14.584V42.8334L29.1673 46.8751L45.834 41.6667V39.5834C45.834 36.1251 43.0423 33.3334 39.584 33.3334ZM10.4173 41.6667H6.25065V27.0834H10.4173V41.6667ZM29.1048 42.5209L14.584 38.5417V27.0834H17.9381L30.0632 31.6042C30.7715 31.8751 31.2507 32.5626 31.2507 33.3334C31.2507 33.3334 27.084 33.2292 26.459 33.0209L21.5007 31.3751L20.1882 35.3334L25.1465 36.9792C26.209 37.3334 27.3131 37.5001 28.4381 37.5001H39.584C40.3965 37.5001 41.1256 38.0001 41.459 38.6876L29.1048 42.5209Z" fill="#EAE8E8"/>
</g>
</svg>
