<svg width="27" height="27" viewBox="0 0 27 27" fill="none" xmlns="http://www.w3.org/2000/svg">
<path d="M13.5054 5.09839C14.6561 5.09839 15.7597 5.55872 16.5734 6.37811C17.3871 7.19751 17.8442 8.30885 17.8442 9.46764C17.8442 10.6264 17.3871 11.7378 16.5734 12.5572C15.7597 13.3766 14.6561 13.8369 13.5054 13.8369C12.3547 13.8369 11.2511 13.3766 10.4375 12.5572C9.62377 11.7378 9.16665 10.6264 9.16665 9.46764C9.16665 8.30885 9.62377 7.19751 10.4375 6.37811C11.2511 5.55872 12.3547 5.09839 13.5054 5.09839ZM13.5054 7.28302C12.9301 7.28302 12.3783 7.51318 11.9714 7.92288C11.5646 8.33258 11.336 8.88824 11.336 9.46764C11.336 10.047 11.5646 10.6027 11.9714 11.0124C12.3783 11.4221 12.9301 11.6523 13.5054 11.6523C14.0808 11.6523 14.6326 11.4221 15.0394 11.0124C15.4463 10.6027 15.6748 10.047 15.6748 9.46764C15.6748 8.88824 15.4463 8.33258 15.0394 7.92288C14.6326 7.51318 14.0808 7.28302 13.5054 7.28302ZM13.5054 14.9292C16.4016 14.9292 22.183 16.382 22.183 19.2985V22.5754H4.82788V19.2985C4.82788 16.382 10.6093 14.9292 13.5054 14.9292ZM13.5054 17.0046C10.2839 17.0046 6.8888 18.5994 6.8888 19.2985V20.5H20.1221V19.2985C20.1221 18.5994 16.727 17.0046 13.5054 17.0046Z" fill="#EAE8E8"/>
</svg>
