<svg width="81" height="80" viewBox="0 0 81 80" fill="none" xmlns="http://www.w3.org/2000/svg">
<g id="mdi:robot-excited">
<path id="Vector" d="M73.833 46.6667H70.4997C70.4997 33.7667 60.0663 23.3333 47.1663 23.3333H43.833V19.1C44.8467 18.5147 45.6885 17.6729 46.2736 16.6591C46.8587 15.6453 47.1666 14.4953 47.1663 13.3248C47.166 12.1542 46.8575 11.0044 46.2719 9.99093C45.6862 8.97745 44.8441 8.13602 43.83 7.55128C42.816 6.96653 41.6659 6.65907 40.4954 6.65982C39.3249 6.66057 38.1752 6.9695 37.1619 7.55555C36.1486 8.1416 35.3075 8.9841 34.7232 9.99833C34.1388 11.0126 33.8318 12.1628 33.833 13.3333C33.833 15.8 35.1663 17.9667 37.1663 19.1V23.3333H33.833C20.933 23.3333 10.4997 33.7667 10.4997 46.6667H7.16634C5.33301 46.6667 3.83301 48.1667 3.83301 50V60C3.83301 61.8333 5.33301 63.3333 7.16634 63.3333H10.4997V66.6667C10.4997 68.4348 11.2021 70.1305 12.4523 71.3807C13.7025 72.6309 15.3982 73.3333 17.1663 73.3333H63.833C67.533 73.3333 70.4997 70.3667 70.4997 66.6667V63.3333H73.833C75.6663 63.3333 77.1663 61.8333 77.1663 60V50C77.1663 48.1667 75.6663 46.6667 73.833 46.6667ZM29.433 56.8L25.4997 52.8667L21.5663 56.8L17.633 52.8667L25.4997 45L33.3663 52.8667L29.433 56.8ZM59.433 56.8L55.4997 52.8667L51.5663 56.8L47.633 52.8667L55.4997 45L63.3663 52.8667L59.433 56.8Z" fill="#EAE8E8"/>
</g>
</svg>
