<svg width="70" height="70" viewBox="0 0 70 70" fill="none" xmlns="http://www.w3.org/2000/svg">
<g id="mdi:encryption-secure">
<path id="Vector" d="M55.417 37.9167C56.4087 37.9167 57.3712 38.0334 58.3337 38.1792V29.1667C58.3337 27.6197 57.7191 26.1359 56.6251 25.042C55.5312 23.948 54.0474 23.3334 52.5003 23.3334H49.5837V17.5001C49.5837 9.45008 43.0503 2.91675 35.0003 2.91675C26.9503 2.91675 20.417 9.45008 20.417 17.5001V23.3334H17.5003C15.9532 23.3334 14.4695 23.948 13.3755 25.042C12.2816 26.1359 11.667 27.6197 11.667 29.1667V58.3334C11.667 61.5709 14.2628 64.1667 17.5003 64.1667H40.2795C38.792 61.6001 37.917 58.6251 37.917 55.4167C37.917 45.7626 45.7628 37.9167 55.417 37.9167ZM26.2503 17.5001C26.2503 12.6584 30.1587 8.75008 35.0003 8.75008C39.842 8.75008 43.7503 12.6584 43.7503 17.5001V23.3334H26.2503V17.5001ZM35.0003 49.5834C33.8466 49.5834 32.7188 49.2413 31.7595 48.6003C30.8002 47.9593 30.0525 47.0483 29.611 45.9824C29.1695 44.9165 29.054 43.7436 29.2791 42.6121C29.5042 41.4805 30.0597 40.4411 30.8755 39.6253C31.6913 38.8095 32.7307 38.2539 33.8623 38.0288C34.9939 37.8038 36.1667 37.9193 37.2326 38.3608C38.2985 38.8023 39.2096 39.55 39.8506 40.5093C40.4915 41.4685 40.8337 42.5964 40.8337 43.7501C40.8337 46.9876 38.2378 49.5834 35.0003 49.5834ZM65.6253 50.3126L51.7712 64.1667L43.7503 55.4167L47.1337 52.0334L51.7712 56.6709L62.242 46.2001L65.6253 50.3126Z" fill="#EAE8E8"/>
</g>
</svg>
