<svg width="55" height="55" viewBox="0 0 55 55" fill="none" xmlns="http://www.w3.org/2000/svg">
<g id="Group">
<path id="Vector" d="M9.01365 35.2087H1.67822M52.6032 35.2087H45.2678M9.01365 20.4412H1.67822M52.6032 20.4412H45.2678M19.757 9.69785V2.36243M19.757 53.2874V45.952M34.5245 9.69785V2.36243M34.5245 53.2874V45.952M41.2396 9.69785H13.0419C11.9735 9.69785 10.9489 10.1223 10.1935 10.8777C9.43805 11.6331 9.01365 12.6577 9.01365 13.7261V41.9238C9.01365 42.9921 9.43805 44.0167 10.1935 44.7722C10.9489 45.5276 11.9735 45.952 13.0419 45.952H41.2396C42.3079 45.952 43.3325 45.5276 44.088 44.7722C44.8434 44.0167 45.2678 42.9921 45.2678 41.9238V13.7261C45.2678 12.6577 44.8434 11.6331 44.088 10.8777C43.3325 10.1223 42.3079 9.69785 41.2396 9.69785Z" stroke="#ECE9E8" stroke-width="3" stroke-linecap="round" stroke-linejoin="round"/>
</g>
</svg>
