<svg width="100" height="100" viewBox="0 0 100 100" fill="none" xmlns="http://www.w3.org/2000/svg">
<g id="mingcute:game-2-fill" clip-path="url(#clip0_1050_1133)">
<g id="Group">
<path id="Vector" d="M70.833 16.6666C75.4414 16.6666 78.9789 20.1791 81.5997 23.9583L82.4872 25.2958L83.2997 26.6291C83.558 27.0625 83.8039 27.4958 84.0414 27.9125C87.3205 33.775 90.1747 41.4291 92.0622 48.9916C93.9372 56.4958 94.9747 64.3333 94.3122 70.4958C93.6455 76.6833 90.458 83.3333 83.333 83.3333C76.9414 83.3333 71.9039 79.9166 67.8122 76.5791L63.1872 72.7C59.3414 69.55 55.133 66.6666 49.9997 66.6666C44.8664 66.6666 40.6539 69.55 36.8164 72.7L32.1914 76.575C28.0914 79.9166 23.0539 83.3333 16.6664 83.3333C9.5372 83.3333 6.3497 76.6833 5.6872 70.4958C5.02887 64.3291 6.0622 56.4958 7.9372 48.9916C9.8247 41.4291 12.6789 33.775 15.958 27.9125L16.6997 26.625L17.5122 25.2958L18.3997 23.9583C21.0205 20.1791 24.558 16.6666 29.1664 16.6666C31.2914 16.6666 33.4039 17.1833 35.4789 17.7916L37.9497 18.55C38.358 18.675 38.7622 18.7958 39.1664 18.9083C42.7705 19.9416 46.458 20.8333 49.9997 20.8333C53.5414 20.8333 57.2289 19.9416 60.833 18.9083L64.5205 17.7958C66.5955 17.1833 68.708 16.6666 70.833 16.6666ZM35.4164 33.3333C32.6537 33.3333 30.0042 34.4308 28.0507 36.3843C26.0972 38.3378 24.9997 40.9873 24.9997 43.75C24.9997 46.5126 26.0972 49.1622 28.0507 51.1157C30.0042 53.0692 32.6537 54.1666 35.4164 54.1666C38.179 54.1666 40.8286 53.0692 42.7821 51.1157C44.7356 49.1622 45.833 46.5126 45.833 43.75C45.833 40.9873 44.7356 38.3378 42.7821 36.3843C40.8286 34.4308 38.179 33.3333 35.4164 33.3333ZM64.583 33.3333C63.478 33.3333 62.4182 33.7723 61.6368 34.5537C60.8554 35.3351 60.4164 36.3949 60.4164 37.5V39.5833H58.333C57.228 39.5833 56.1682 40.0223 55.3868 40.8037C54.6054 41.5851 54.1664 42.6449 54.1664 43.75C54.1664 44.855 54.6054 45.9148 55.3868 46.6962C56.1682 47.4776 57.228 47.9166 58.333 47.9166H60.4164V50C60.4164 51.105 60.8554 52.1648 61.6368 52.9462C62.4182 53.7276 63.478 54.1666 64.583 54.1666C65.6881 54.1666 66.7479 53.7276 67.5293 52.9462C68.3107 52.1648 68.7497 51.105 68.7497 50V47.9166H70.833C71.9381 47.9166 72.9979 47.4776 73.7793 46.6962C74.5607 45.9148 74.9997 44.855 74.9997 43.75C74.9997 42.6449 74.5607 41.5851 73.7793 40.8037C72.9979 40.0223 71.9381 39.5833 70.833 39.5833H68.7497V37.5C68.7497 36.3949 68.3107 35.3351 67.5293 34.5537C66.7479 33.7723 65.6881 33.3333 64.583 33.3333ZM35.4164 41.6666C35.9689 41.6666 36.4988 41.8861 36.8895 42.2768C37.2802 42.6675 37.4997 43.1974 37.4997 43.75C37.4997 44.3025 37.2802 44.8324 36.8895 45.2231C36.4988 45.6138 35.9689 45.8333 35.4164 45.8333C34.8638 45.8333 34.3339 45.6138 33.9432 45.2231C33.5525 44.8324 33.333 44.3025 33.333 43.75C33.333 43.1974 33.5525 42.6675 33.9432 42.2768C34.3339 41.8861 34.8638 41.6666 35.4164 41.6666Z" fill="#D9D9D9"/>
</g>
</g>
<defs>
<clipPath id="clip0_1050_1133">
<rect width="100" height="100" fill="white"/>
</clipPath>
</defs>
</svg>
