<svg width="70" height="70" viewBox="0 0 70 70" fill="none" xmlns="http://www.w3.org/2000/svg">
<g id="mingcute:time-fill" clip-path="url(#clip0_1047_1041)">
<g id="Group">
<path id="Vector" d="M34.9997 5.83325C51.1084 5.83325 64.1663 18.8912 64.1663 34.9999C64.1663 51.1087 51.1084 64.1666 34.9997 64.1666C18.8909 64.1666 5.83301 51.1087 5.83301 34.9999C5.83301 18.8912 18.8909 5.83325 34.9997 5.83325ZM34.9997 17.4999C34.2261 17.4999 33.4843 17.8072 32.9373 18.3542C32.3903 18.9012 32.083 19.643 32.083 20.4166V34.9999C32.0832 35.7734 32.3906 36.5151 32.9376 37.062L41.6876 45.812C42.2377 46.3433 42.9744 46.6373 43.7392 46.6306C44.5039 46.624 45.2355 46.3172 45.7762 45.7765C46.317 45.2357 46.6237 44.5042 46.6304 43.7394C46.637 42.9747 46.343 42.2379 45.8118 41.6878L37.9163 33.7924V20.4166C37.9163 19.643 37.609 18.9012 37.0621 18.3542C36.5151 17.8072 35.7732 17.4999 34.9997 17.4999Z" fill="#EAE8E8"/>
</g>
</g>
<defs>
<clipPath id="clip0_1047_1041">
<rect width="70" height="70" fill="white"/>
</clipPath>
</defs>
</svg>
