<svg width="71" height="70" viewBox="0 0 71 70" fill="none" xmlns="http://www.w3.org/2000/svg">
<g id="mingcute:tool-fill" clip-path="url(#clip0_1050_1118)">
<g id="Group">
<path id="Vector" fill-rule="evenodd" clip-rule="evenodd" d="M22.4533 7.74958C26.0989 6.8103 29.9332 6.89712 33.5326 8.00047C37.1319 9.10382 40.3562 11.1807 42.8491 14.0017C45.342 16.8227 47.0066 20.278 47.6588 23.9857C48.311 27.6934 47.9255 31.5093 46.545 35.0117L59.9587 46.3662C60.976 47.226 61.8038 48.2875 62.3898 49.4836C62.9757 50.6797 63.307 51.9845 63.3627 53.3152C63.4184 54.646 63.1973 55.9738 62.7133 57.2148C62.2294 58.4557 61.4932 59.5826 60.5513 60.5243C59.6094 61.4661 58.4822 62.202 57.2412 62.6857C56.0002 63.1694 54.6723 63.3902 53.3416 63.3342C52.0108 63.2782 50.7061 62.9466 49.5101 62.3605C48.3141 61.7743 47.2528 60.9462 46.3933 59.9287L35.0446 46.5208C31.5417 47.9036 27.7247 48.2909 24.0156 47.6397C20.3064 46.9885 16.8496 45.3242 14.0273 42.8309C11.205 40.3377 9.12715 37.1125 8.02351 33.5119C6.91987 29.9114 6.83342 26.0758 7.77372 22.4292C7.9063 21.9168 8.17447 21.4496 8.55004 21.0767C8.92562 20.7038 9.39472 20.4389 9.90803 20.31C10.4213 20.1811 10.9599 20.1928 11.4671 20.344C11.9743 20.4952 12.4314 20.7802 12.7904 21.1692L21.6716 30.8146L28.3712 28.35L30.8416 21.6417L21.1904 12.775C20.7991 12.4162 20.5121 11.9583 20.3597 11.4497C20.2073 10.9412 20.1951 10.4009 20.3245 9.886C20.4539 9.37112 20.7201 8.90078 21.0948 8.52471C21.4695 8.14863 21.9389 7.88082 22.4533 7.74958Z" fill="#EAE8E8"/>
</g>
</g>
<defs>
<clipPath id="clip0_1050_1118">
<rect width="70" height="70" fill="white" transform="translate(0.5)"/>
</clipPath>
</defs>
</svg>
