<svg width="581" height="468" viewBox="0 0 581 468" fill="none" xmlns="http://www.w3.org/2000/svg">
<path d="M371.884 257L357.317 206.091H369.075L377.502 241.464H377.925L387.222 206.091H397.289L406.561 241.538H407.009L415.435 206.091H427.193L412.626 257H402.136L392.442 223.715H392.044L382.374 257H371.884ZM432.954 257V206.091H467.258V214.965H443.718V227.096H465.493V235.97H443.718V248.126H467.357V257H432.954ZM475.815 257V206.091H496.199C499.944 206.091 503.068 206.646 505.57 207.756C508.073 208.867 509.954 210.408 511.213 212.38C512.473 214.335 513.102 216.589 513.102 219.141C513.102 221.13 512.705 222.878 511.909 224.386C511.114 225.878 510.02 227.104 508.628 228.065C507.252 229.01 505.678 229.681 503.905 230.079V230.576C505.844 230.659 507.658 231.206 509.349 232.217C511.056 233.228 512.439 234.644 513.5 236.467C514.561 238.274 515.091 240.428 515.091 242.93C515.091 245.632 514.42 248.043 513.077 250.164C511.752 252.269 509.788 253.934 507.186 255.161C504.584 256.387 501.378 257 497.566 257H475.815ZM486.579 248.2H495.354C498.353 248.2 500.541 247.629 501.916 246.485C503.292 245.325 503.979 243.784 503.979 241.862C503.979 240.453 503.64 239.21 502.96 238.133C502.281 237.056 501.311 236.21 500.052 235.597C498.809 234.984 497.326 234.678 495.602 234.678H486.579V248.2ZM486.579 227.394H494.558C496.033 227.394 497.342 227.137 498.486 226.624C499.646 226.093 500.557 225.348 501.22 224.386C501.9 223.425 502.239 222.273 502.239 220.931C502.239 219.092 501.585 217.608 500.276 216.482C498.983 215.355 497.143 214.791 494.757 214.791H486.579V227.394ZM556.815 257.696C553.103 257.696 549.797 257.058 546.897 255.782C544.013 254.489 541.734 252.716 540.061 250.462C538.404 248.192 537.55 245.574 537.5 242.607H548.338C548.405 243.85 548.811 244.944 549.556 245.888C550.319 246.817 551.33 247.537 552.589 248.051C553.849 248.565 555.266 248.822 556.84 248.822C558.48 248.822 559.931 248.532 561.19 247.952C562.449 247.372 563.435 246.568 564.148 245.54C564.861 244.513 565.217 243.328 565.217 241.986C565.217 240.627 564.836 239.425 564.074 238.381C563.328 237.321 562.251 236.492 560.842 235.896C559.45 235.299 557.793 235.001 555.87 235.001H551.123V227.096H555.87C557.494 227.096 558.928 226.814 560.171 226.251C561.43 225.687 562.408 224.908 563.104 223.914C563.8 222.903 564.148 221.727 564.148 220.384C564.148 219.108 563.842 217.99 563.228 217.028C562.632 216.051 561.787 215.288 560.693 214.741C559.616 214.195 558.356 213.921 556.914 213.921C555.456 213.921 554.122 214.186 552.912 214.717C551.703 215.23 550.733 215.968 550.004 216.929C549.275 217.89 548.885 219.017 548.836 220.31H538.52C538.569 217.376 539.406 214.791 541.03 212.554C542.654 210.317 544.842 208.568 547.593 207.309C550.36 206.033 553.484 205.395 556.964 205.395C560.477 205.395 563.551 206.033 566.186 207.309C568.821 208.585 570.868 210.308 572.326 212.479C573.801 214.634 574.53 217.053 574.514 219.738C574.53 222.588 573.644 224.966 571.854 226.872C570.081 228.778 567.769 229.988 564.919 230.501V230.899C568.664 231.38 571.514 232.681 573.47 234.802C575.442 236.906 576.42 239.541 576.403 242.707C576.42 245.607 575.583 248.184 573.892 250.438C572.219 252.691 569.907 254.464 566.957 255.757C564.007 257.05 560.627 257.696 556.815 257.696Z" fill="#EAE8E8"/>
<path d="M-60 12L23.5 3L107.5 27.5L155 62.5L204 125L227 189V258L204 341L162 396.5L135.5 419L62.5 454.5L-11 463L-58 454.5" stroke="#EAE8E8"/>
<path d="M-58 12.5L-12 85L24.5 3.5L56 55L107 26.5L74 105.5L156.5 64V126.5L203 123L175.5 151.5L227.5 190.5L140.5 229.5L227.5 258.5L164 302.5L203 340H143L162 397L130.5 391L136 418.5L99.5 377L62.5 454L17.5 399L-10.5 462.5L-50 409.5L-57.5 454" stroke="#EAE8E8"/>
<path d="M-12.5 85L56 54.5L73.5 105L157 126.5L175.5 151.5L141 229.5L164.5 302L143 341M143 341L131.5 391L99 376.5M143 341L99 376.5M99 376.5L18 399.5M99 376.5L58.5 341L18 399.5M18 399.5L-50.5 410L-26.5 334L18 399.5Z" stroke="#EAE8E8"/>
<path d="M144.5 341L106.5 293.5L164 302L119.5 238L141 229.5L123 165L175 151.5" stroke="#EAE8E8"/>
<path d="M157.5 126.5L123 164.5L75 143L157.5 126.5Z" stroke="#EAE8E8"/>
<path d="M73.5 104.5L-12 84.5L75.5 142.5L73.5 104.5Z" stroke="#EAE8E8"/>
<path d="M118.5 238L123 164.5L54 193L74.5 142" stroke="#EAE8E8"/>
<path d="M54 193.5L118.5 239L107 294L99 376" stroke="#EAE8E8"/>
<path d="M-26.5 335L58.5 341M58.5 341L106 294L54 193.5L58.5 341Z" stroke="#EAE8E8"/>
<path d="M54 192.5L-12 85.5L-26 334L54 192.5Z" stroke="#EAE8E8"/>
<path d="M54 192.5L-18 185.5" stroke="#EAE8E8"/>
<path d="M-81 16.5L2.5 7.5L86.5 32L134 67L183 129.5L206 193.5V262.5L183 345.5L141 401L114.5 423.5L41.5 459L-32 467.5L-79 459" stroke="#EAE8E8" stroke-opacity="0.2"/>
<path d="M-79 17L-33 89.5L3.5 8L35 59.5L86 31L53 110L135.5 68.5V131L182 127.5L154.5 156L206.5 195L119.5 234L206.5 263L143 307L182 344.5H122L141 401.5L109.5 395.5L115 423L78.5 381.5L41.5 458.5L-3.5 403.5L-31.5 467L-71 414L-78.5 458.5" stroke="#EAE8E8" stroke-opacity="0.2"/>
<path d="M-33.5 89.5L35 59L52.5 109.5L136 131L154.5 156L120 234L143.5 306.5L122 345.5M122 345.5L110.5 395.5L78 381M122 345.5L78 381M78 381L-3 404M78 381L37.5 345.5L-3 404M-3 404L-71.5 414.5L-47.5 338.5L-3 404Z" stroke="#EAE8E8" stroke-opacity="0.2"/>
<path d="M123.5 345.5L85.5 298L143 306.5L98.5 242.5L120 234L102 169.5L154 156" stroke="#EAE8E8" stroke-opacity="0.2"/>
<path d="M136.5 131L102 169L54 147.5L136.5 131Z" stroke="#EAE8E8" stroke-opacity="0.2"/>
<path d="M52.5 109L-33 89L54.5 147L52.5 109Z" stroke="#EAE8E8" stroke-opacity="0.2"/>
<path d="M97.5 242.5L102 169L33 197.5L53.5 146.5" stroke="#EAE8E8" stroke-opacity="0.2"/>
<path d="M33 198L97.5 243.5L86 298.5L78 380.5" stroke="#EAE8E8" stroke-opacity="0.2"/>
<path d="M-47.5 339.5L37.5 345.5M37.5 345.5L85 298.5L33 198L37.5 345.5Z" stroke="#EAE8E8" stroke-opacity="0.2"/>
<path d="M33 197L-33 90L-47 338.5L33 197Z" stroke="#EAE8E8" stroke-opacity="0.2"/>
<path d="M33 197L-39 190" stroke="#EAE8E8" stroke-opacity="0.2"/>
<circle cx="200" cy="124" r="6" fill="#FF7A00" stroke="#EAE8E8" stroke-width="2"/>
<circle cx="162" cy="394" r="6" fill="#FF7A00" stroke="#EAE8E8" stroke-width="2"/>
<circle cx="116" cy="238" r="6" fill="#FF7A00" stroke="#EAE8E8" stroke-width="2"/>
<circle cx="176" cy="151" r="6" fill="#FEC602" stroke="#EAE8E8" stroke-width="2"/>
<circle cx="55" cy="52" r="6" fill="#FEC602" stroke="#EAE8E8" stroke-width="2"/>
<circle cx="107" cy="295" r="6" fill="#FEC602" stroke="#EAE8E8" stroke-width="2"/>
<circle cx="63" cy="453" r="6" fill="#FEC602" stroke="#EAE8E8" stroke-width="2"/>
<circle cx="141" cy="230" r="6" fill="#02FEFE" stroke="#EAE8E8" stroke-width="2"/>
<circle cx="26" cy="7" r="6" fill="#02FEFE" stroke="#EAE8E8" stroke-width="2"/>
<circle cx="227" cy="258" r="6" fill="#FE02A8" stroke="#EAE8E8" stroke-width="2"/>
<circle cx="105" cy="26" r="6" fill="#FE02A8" stroke="#EAE8E8" stroke-width="2"/>
<circle cx="130" cy="390" r="6" fill="#FE02A8" stroke="#EAE8E8" stroke-width="2"/>
<circle cx="165" cy="302" r="6" fill="#FE0202" stroke="#EAE8E8" stroke-width="2"/>
<circle cx="227" cy="187" r="6" fill="#4E4627" stroke="#EAE8E8" stroke-width="2"/>
<circle cx="135" cy="417" r="6" fill="#4E4627" stroke="#EAE8E8" stroke-width="2"/>
<circle cx="121" cy="165" r="6" fill="#4E4627" stroke="#EAE8E8" stroke-width="2"/>
<circle cx="154" cy="126" r="6" fill="#02FE0C" stroke="#EAE8E8" stroke-width="2"/>
<circle cx="100" cy="376" r="6" fill="#02FE0C" stroke="#EAE8E8" stroke-width="2"/>
<circle cx="154" cy="66" r="6" fill="#DB02FE" stroke="#EAE8E8" stroke-width="2"/>
<circle cx="54" cy="194" r="6" fill="#DB02FE" stroke="#EAE8E8" stroke-width="2"/>
<circle cx="75" cy="103" r="6" fill="#2502FE" stroke="#EAE8E8" stroke-width="2"/>
<circle cx="206" cy="338" r="6" fill="#2502FE" stroke="#EAE8E8" stroke-width="2"/>
<circle cx="18" cy="397" r="6" fill="#2502FE" stroke="#EAE8E8" stroke-width="2"/>
<path d="M380.5 256.5H234" stroke="#EAE8E8"/>
<path d="M368.5 207H227" stroke="#EAE8E8"/>
</svg>
