<svg width="157" height="1340" viewBox="0 0 157 1340" fill="none" xmlns="http://www.w3.org/2000/svg">
<line x1="70.9707" y1="97.807" x2="85.7234" y2="152.865" stroke="#FF4449" stroke-width="9"/>
<line x1="71.9707" y1="367.835" x2="86.7234" y2="422.893" stroke="#FF4449" stroke-width="9"/>
<line x1="69.9707" y1="641.864" x2="84.7234" y2="696.921" stroke="#FF4449" stroke-width="9"/>
<line x1="72.9707" y1="914.892" x2="87.7234" y2="969.95" stroke="#FF4449" stroke-width="9"/>
<line x1="70.9707" y1="1191.92" x2="85.7234" y2="1246.98" stroke="#FF4449" stroke-width="9"/>
<line x1="89.2285" y1="235.425" x2="67.8759" y2="288.274" stroke="#FF4449" stroke-width="9"/>
<line x1="91.2285" y1="506.453" x2="69.8759" y2="559.303" stroke="#FF4449" stroke-width="9"/>
<line x1="90.2285" y1="779.482" x2="68.8759" y2="832.331" stroke="#FF4449" stroke-width="9"/>
<line x1="89.2285" y1="1054.51" x2="67.8759" y2="1107.36" stroke="#FF4449" stroke-width="9"/>
<path d="M99 79.75C99 81.84 97.845 83.655 96.085 84.59L52.635 109.01C51.755 109.67 50.655 110 49.5 110C48.345 110 47.245 109.67 46.365 109.01L2.91502 84.59C2.03326 84.1266 1.29534 83.4305 0.781423 82.5772C0.267509 81.7239 -0.00274544 80.7461 2.10278e-05 79.75V30.25C2.10278e-05 28.16 1.15502 26.345 2.91502 25.41L46.365 0.99C47.245 0.33 48.345 0 49.5 0C50.655 0 51.755 0.33 52.635 0.99L96.085 25.41C97.845 26.345 99 28.16 99 30.25V79.75ZM49.5 11.825L11 33.495V76.505L49.5 98.175L88 76.505V33.495L49.5 11.825Z" fill="#C02327"/>
<path d="M41.2424 44V37.55H53.2924V74H46.0924V44H41.2424Z" fill="#ECE9E8"/>
<path d="M99 627.75C99 629.84 97.845 631.655 96.085 632.59L52.635 657.01C51.755 657.67 50.655 658 49.5 658C48.345 658 47.245 657.67 46.365 657.01L2.91502 632.59C2.03326 632.127 1.29534 631.43 0.781423 630.577C0.267509 629.724 -0.00274544 628.746 2.10278e-05 627.75V578.25C2.10278e-05 576.16 1.15502 574.345 2.91502 573.41L46.365 548.99C47.245 548.33 48.345 548 49.5 548C50.655 548 51.755 548.33 52.635 548.99L96.085 573.41C97.845 574.345 99 576.16 99 578.25V627.75ZM49.5 559.825L11 581.495V624.505L49.5 646.175L88 624.505V581.495L49.5 559.825Z" fill="#C02327"/>
<path d="M59.5611 591.6H43.3611V600.15C44.0611 599.283 45.0611 598.583 46.3611 598.05C47.6611 597.483 49.0445 597.2 50.5111 597.2C53.1778 597.2 55.3611 597.783 57.0611 598.95C58.7611 600.117 59.9945 601.617 60.7611 603.45C61.5278 605.25 61.9111 607.183 61.9111 609.25C61.9111 613.083 60.8111 616.167 58.6111 618.5C56.4445 620.833 53.3445 622 49.3111 622C45.5111 622 42.4778 621.05 40.2111 619.15C37.9445 617.25 36.6611 614.767 36.3611 611.7H43.1611C43.4611 613.033 44.1278 614.1 45.1611 614.9C46.2278 615.7 47.5778 616.1 49.2111 616.1C51.1778 616.1 52.6611 615.483 53.6611 614.25C54.6611 613.017 55.1611 611.383 55.1611 609.35C55.1611 607.283 54.6445 605.717 53.6111 604.65C52.6111 603.55 51.1278 603 49.1611 603C47.7611 603 46.5945 603.35 45.6611 604.05C44.7278 604.75 44.0611 605.683 43.6611 606.85H36.9611V585.45H59.5611V591.6Z" fill="#ECE9E8"/>
<path d="M99 351.75C99 353.84 97.845 355.655 96.085 356.59L52.635 381.01C51.755 381.67 50.655 382 49.5 382C48.345 382 47.245 381.67 46.365 381.01L2.91502 356.59C2.03326 356.127 1.29534 355.43 0.781423 354.577C0.267509 353.724 -0.00274544 352.746 2.10278e-05 351.75V302.25C2.10278e-05 300.16 1.15502 298.345 2.91502 297.41L46.365 272.99C47.245 272.33 48.345 272 49.5 272C50.655 272 51.755 272.33 52.635 272.99L96.085 297.41C97.845 298.345 99 300.16 99 302.25V351.75ZM49.5 283.825L11 305.495V348.505L49.5 370.175L88 348.505V305.495L49.5 283.825Z" fill="#C02327"/>
<path d="M35.7842 319.15C35.9508 315.817 37.1175 313.25 39.2842 311.45C41.4842 309.617 44.3675 308.7 47.9342 308.7C50.3675 308.7 52.4508 309.133 54.1842 310C55.9175 310.833 57.2175 311.983 58.0842 313.45C58.9842 314.883 59.4342 316.517 59.4342 318.35C59.4342 320.45 58.8842 322.233 57.7842 323.7C56.7175 325.133 55.4342 326.1 53.9342 326.6V326.8C55.8675 327.4 57.3675 328.467 58.4342 330C59.5342 331.533 60.0842 333.5 60.0842 335.9C60.0842 337.9 59.6175 339.683 58.6842 341.25C57.7842 342.817 56.4342 344.05 54.6342 344.95C52.8675 345.817 50.7342 346.25 48.2342 346.25C44.4675 346.25 41.4008 345.3 39.0342 343.4C36.6675 341.5 35.4175 338.7 35.2842 335H42.0842C42.1508 336.633 42.7008 337.95 43.7342 338.95C44.8008 339.917 46.2508 340.4 48.0842 340.4C49.7842 340.4 51.0842 339.933 51.9842 339C52.9175 338.033 53.3842 336.8 53.3842 335.3C53.3842 333.3 52.7508 331.867 51.4842 331C50.2175 330.133 48.2508 329.7 45.5842 329.7H44.1342V323.95H45.5842C50.3175 323.95 52.6842 322.367 52.6842 319.2C52.6842 317.767 52.2508 316.65 51.3842 315.85C50.5508 315.05 49.3342 314.65 47.7342 314.65C46.1675 314.65 44.9508 315.083 44.0842 315.95C43.2508 316.783 42.7675 317.85 42.6342 319.15H35.7842Z" fill="#ECE9E8"/>
<path d="M99 899.75C99 901.84 97.845 903.655 96.085 904.59L52.635 929.01C51.755 929.67 50.655 930 49.5 930C48.345 930 47.245 929.67 46.365 929.01L2.91502 904.59C2.03326 904.127 1.29534 903.43 0.781423 902.577C0.267509 901.724 -0.00274544 900.746 2.10278e-05 899.75V850.25C2.10278e-05 848.16 1.15502 846.345 2.91502 845.41L46.365 820.99C47.245 820.33 48.345 820 49.5 820C50.655 820 51.755 820.33 52.635 820.99L96.085 845.41C97.845 846.345 99 848.16 99 850.25V899.75ZM49.5 831.825L11 853.495V896.505L49.5 918.175L88 896.505V853.495L49.5 831.825Z" fill="#C02327"/>
<path d="M60.1537 862.85L46.8537 894H39.7537L53.1537 863.65H36.0537V857.65H60.1537V862.85Z" fill="#ECE9E8"/>
<path d="M99 1173.75C99 1175.84 97.845 1177.65 96.085 1178.59L52.635 1203.01C51.755 1203.67 50.655 1204 49.5 1204C48.345 1204 47.245 1203.67 46.365 1203.01L2.91502 1178.59C2.03326 1178.13 1.29534 1177.43 0.781423 1176.58C0.267509 1175.72 -0.00274544 1174.75 2.10278e-05 1173.75V1124.25C2.10278e-05 1122.16 1.15502 1120.34 2.91502 1119.41L46.365 1094.99C47.245 1094.33 48.345 1094 49.5 1094C50.655 1094 51.755 1094.33 52.635 1094.99L96.085 1119.41C97.845 1120.34 99 1122.16 99 1124.25V1173.75ZM49.5 1105.83L11 1127.5V1170.5L49.5 1192.18L88 1170.5V1127.5L49.5 1105.83Z" fill="#C02327"/>
<path d="M43.1006 1157.75C43.3673 1159.22 43.9673 1160.35 44.9006 1161.15C45.8673 1161.92 47.1506 1162.3 48.7506 1162.3C50.8173 1162.3 52.3173 1161.45 53.2506 1159.75C54.1839 1158.02 54.6506 1155.12 54.6506 1151.05C53.8839 1152.12 52.8006 1152.95 51.4006 1153.55C50.0339 1154.15 48.5506 1154.45 46.9506 1154.45C44.8173 1154.45 42.8839 1154.02 41.1506 1153.15C39.4506 1152.25 38.1006 1150.93 37.1006 1149.2C36.1006 1147.43 35.6006 1145.3 35.6006 1142.8C35.6006 1139.1 36.7006 1136.17 38.9006 1134C41.1006 1131.8 44.1006 1130.7 47.9006 1130.7C52.6339 1130.7 55.9673 1132.22 57.9006 1135.25C59.8673 1138.28 60.8506 1142.85 60.8506 1148.95C60.8506 1153.28 60.4673 1156.83 59.7006 1159.6C58.9673 1162.37 57.6839 1164.47 55.8506 1165.9C54.0506 1167.33 51.5839 1168.05 48.4506 1168.05C45.9839 1168.05 43.8839 1167.58 42.1506 1166.65C40.4173 1165.68 39.0839 1164.43 38.1506 1162.9C37.2506 1161.33 36.7339 1159.62 36.6006 1157.75H43.1006ZM48.4006 1148.75C50.1339 1148.75 51.5006 1148.22 52.5006 1147.15C53.5006 1146.08 54.0006 1144.65 54.0006 1142.85C54.0006 1140.88 53.4673 1139.37 52.4006 1138.3C51.3673 1137.2 49.9506 1136.65 48.1506 1136.65C46.3506 1136.65 44.9173 1137.22 43.8506 1138.35C42.8173 1139.45 42.3006 1140.92 42.3006 1142.75C42.3006 1144.52 42.8006 1145.97 43.8006 1147.1C44.8339 1148.2 46.3673 1148.75 48.4006 1148.75Z" fill="#ECE9E8"/>
<path d="M157 215.75C157 217.84 155.845 219.655 154.085 220.59L110.635 245.01C109.755 245.67 108.655 246 107.5 246C106.345 246 105.245 245.67 104.365 245.01L60.915 220.59C60.0333 220.127 59.2953 219.43 58.7814 218.577C58.2675 217.724 57.9973 216.746 58 215.75V166.25C58 164.16 59.155 162.345 60.915 161.41L104.365 136.99C105.245 136.33 106.345 136 107.5 136C108.655 136 109.755 136.33 110.635 136.99L154.085 161.41C155.845 162.345 157 164.16 157 166.25V215.75ZM107.5 147.825L69 169.495V212.505L107.5 234.175L146 212.505V169.495L107.5 147.825Z" fill="#C02327"/>
<path d="M96.9945 202.1C100.195 199.433 102.745 197.217 104.645 195.45C106.545 193.65 108.128 191.783 109.395 189.85C110.661 187.917 111.295 186.017 111.295 184.15C111.295 182.45 110.895 181.117 110.095 180.15C109.295 179.183 108.061 178.7 106.395 178.7C104.728 178.7 103.445 179.267 102.545 180.4C101.645 181.5 101.178 183.017 101.145 184.95H94.3445C94.4779 180.95 95.6612 177.917 97.8945 175.85C100.161 173.783 103.028 172.75 106.495 172.75C110.295 172.75 113.211 173.767 115.245 175.8C117.278 177.8 118.295 180.45 118.295 183.75C118.295 186.35 117.595 188.833 116.195 191.2C114.795 193.567 113.195 195.633 111.395 197.4C109.595 199.133 107.245 201.233 104.345 203.7H119.095V209.5H94.3945V204.3L96.9945 202.1Z" fill="#ECE9E8"/>
<path d="M157 763.75C157 765.84 155.845 767.655 154.085 768.59L110.635 793.01C109.755 793.67 108.655 794 107.5 794C106.345 794 105.245 793.67 104.365 793.01L60.915 768.59C60.0333 768.127 59.2953 767.43 58.7814 766.577C58.2675 765.724 57.9973 764.746 58 763.75V714.25C58 712.16 59.155 710.345 60.915 709.41L104.365 684.99C105.245 684.33 106.345 684 107.5 684C108.655 684 109.755 684.33 110.635 684.99L154.085 709.41C155.845 710.345 157 712.16 157 714.25V763.75ZM107.5 695.825L69 717.495V760.505L107.5 782.175L146 760.505V717.495L107.5 695.825Z" fill="#C02327"/>
<path d="M111.559 730.65C111.225 729.25 110.642 728.2 109.809 727.5C109.009 726.8 107.842 726.45 106.309 726.45C104.009 726.45 102.309 727.383 101.209 729.25C100.142 731.083 99.5921 734.083 99.5588 738.25C100.359 736.917 101.525 735.883 103.059 735.15C104.592 734.383 106.259 734 108.059 734C110.225 734 112.142 734.467 113.809 735.4C115.475 736.333 116.775 737.7 117.709 739.5C118.642 741.267 119.109 743.4 119.109 745.9C119.109 748.267 118.625 750.383 117.659 752.25C116.725 754.083 115.342 755.517 113.509 756.55C111.675 757.583 109.492 758.1 106.959 758.1C103.492 758.1 100.759 757.333 98.7588 755.8C96.7921 754.267 95.4088 752.133 94.6088 749.4C93.8421 746.633 93.4588 743.233 93.4588 739.2C93.4588 733.1 94.5088 728.5 96.6088 725.4C98.7088 722.267 102.025 720.7 106.559 720.7C110.059 720.7 112.775 721.65 114.709 723.55C116.642 725.45 117.759 727.817 118.059 730.65H111.559ZM106.459 739.75C104.692 739.75 103.209 740.267 102.009 741.3C100.809 742.333 100.209 743.833 100.209 745.8C100.209 747.767 100.759 749.317 101.859 750.45C102.992 751.583 104.575 752.15 106.609 752.15C108.409 752.15 109.825 751.6 110.859 750.5C111.925 749.4 112.459 747.917 112.459 746.05C112.459 744.117 111.942 742.583 110.909 741.45C109.909 740.317 108.425 739.75 106.459 739.75Z" fill="#ECE9E8"/>
<path d="M157 487.75C157 489.84 155.845 491.655 154.085 492.59L110.635 517.01C109.755 517.67 108.655 518 107.5 518C106.345 518 105.245 517.67 104.365 517.01L60.915 492.59C60.0333 492.127 59.2953 491.43 58.7814 490.577C58.2675 489.724 57.9973 488.746 58 487.75V438.25C58 436.16 59.155 434.345 60.915 433.41L104.365 408.99C105.245 408.33 106.345 408 107.5 408C108.655 408 109.755 408.33 110.635 408.99L154.085 433.41C155.845 434.345 157 436.16 157 438.25V487.75ZM107.5 419.825L69 441.495V484.505L107.5 506.175L146 484.505V441.495L107.5 419.825Z" fill="#C02327"/>
<path d="M91.8217 474.9V469.4L108.172 446H116.322V468.8H120.722V474.9H116.322V482H109.322V474.9H91.8217ZM109.772 453.5L99.5217 468.8H109.772V453.5Z" fill="#ECE9E8"/>
<path d="M157 1035.75C157 1037.84 155.845 1039.65 154.085 1040.59L110.635 1065.01C109.755 1065.67 108.655 1066 107.5 1066C106.345 1066 105.245 1065.67 104.365 1065.01L60.915 1040.59C60.0333 1040.13 59.2953 1039.43 58.7814 1038.58C58.2675 1037.72 57.9973 1036.75 58 1035.75V986.25C58 984.16 59.155 982.345 60.915 981.41L104.365 956.99C105.245 956.33 106.345 956 107.5 956C108.655 956 109.755 956.33 110.635 956.99L154.085 981.41C155.845 982.345 157 984.16 157 986.25V1035.75ZM107.5 967.825L69 989.495V1032.5L107.5 1054.18L146 1032.5V989.495L107.5 967.825Z" fill="#C02327"/>
<path d="M99.1855 1010.7C95.8522 1008.97 94.1855 1006.28 94.1855 1002.65C94.1855 1000.85 94.6355 999.217 95.5355 997.75C96.4689 996.25 97.8522 995.067 99.6855 994.2C101.552 993.3 103.819 992.85 106.486 992.85C109.152 992.85 111.402 993.3 113.236 994.2C115.102 995.067 116.486 996.25 117.386 997.75C118.319 999.217 118.786 1000.85 118.786 1002.65C118.786 1004.48 118.336 1006.1 117.436 1007.5C116.536 1008.87 115.336 1009.93 113.836 1010.7C115.669 1011.5 117.102 1012.67 118.136 1014.2C119.169 1015.73 119.686 1017.55 119.686 1019.65C119.686 1021.92 119.102 1023.9 117.936 1025.6C116.802 1027.27 115.236 1028.55 113.236 1029.45C111.236 1030.35 108.986 1030.8 106.486 1030.8C103.986 1030.8 101.736 1030.35 99.7355 1029.45C97.7689 1028.55 96.2022 1027.27 95.0355 1025.6C93.9022 1023.9 93.3355 1021.92 93.3355 1019.65C93.3355 1017.55 93.8522 1015.73 94.8855 1014.2C95.9189 1012.63 97.3522 1011.47 99.1855 1010.7ZM111.986 1003.65C111.986 1002.02 111.486 1000.75 110.486 999.85C109.519 998.95 108.186 998.5 106.486 998.5C104.819 998.5 103.486 998.95 102.486 999.85C101.519 1000.75 101.036 1002.03 101.036 1003.7C101.036 1005.2 101.536 1006.4 102.536 1007.3C103.569 1008.2 104.886 1008.65 106.486 1008.65C108.086 1008.65 109.402 1008.2 110.436 1007.3C111.469 1006.37 111.986 1005.15 111.986 1003.65ZM106.486 1013.75C104.586 1013.75 103.036 1014.23 101.836 1015.2C100.669 1016.17 100.086 1017.55 100.086 1019.35C100.086 1021.02 100.652 1022.38 101.786 1023.45C102.952 1024.48 104.519 1025 106.486 1025C108.452 1025 110.002 1024.47 111.136 1023.4C112.269 1022.33 112.836 1020.98 112.836 1019.35C112.836 1017.58 112.252 1016.22 111.086 1015.25C109.919 1014.25 108.386 1013.75 106.486 1013.75Z" fill="#ECE9E8"/>
<path d="M157 1309.75C157 1311.84 155.845 1313.65 154.085 1314.59L110.635 1339.01C109.755 1339.67 108.655 1340 107.5 1340C106.345 1340 105.245 1339.67 104.365 1339.01L60.915 1314.59C60.0333 1314.13 59.2953 1313.43 58.7814 1312.58C58.2675 1311.72 57.9973 1310.75 58 1309.75V1260.25C58 1258.16 59.155 1256.34 60.915 1255.41L104.365 1230.99C105.245 1230.33 106.345 1230 107.5 1230C108.655 1230 109.755 1230.33 110.635 1230.99L154.085 1255.41C155.845 1256.34 157 1258.16 157 1260.25V1309.75ZM107.5 1241.83L69 1263.5V1306.5L107.5 1328.18L146 1306.5V1263.5L107.5 1241.83Z" fill="#C02327"/>
<path d="M83.0803 1274V1267.55H95.1303V1304H87.9303V1274H83.0803ZM102.046 1285.3C102.046 1279.53 103.079 1275.02 105.146 1271.75C107.246 1268.48 110.712 1266.85 115.546 1266.85C120.379 1266.85 123.829 1268.48 125.896 1271.75C127.996 1275.02 129.046 1279.53 129.046 1285.3C129.046 1291.1 127.996 1295.65 125.896 1298.95C123.829 1302.25 120.379 1303.9 115.546 1303.9C110.712 1303.9 107.246 1302.25 105.146 1298.95C103.079 1295.65 102.046 1291.1 102.046 1285.3ZM122.146 1285.3C122.146 1282.83 121.979 1280.77 121.646 1279.1C121.346 1277.4 120.712 1276.02 119.746 1274.95C118.812 1273.88 117.412 1273.35 115.546 1273.35C113.679 1273.35 112.262 1273.88 111.296 1274.95C110.362 1276.02 109.729 1277.4 109.396 1279.1C109.096 1280.77 108.946 1282.83 108.946 1285.3C108.946 1287.83 109.096 1289.97 109.396 1291.7C109.696 1293.4 110.329 1294.78 111.296 1295.85C112.262 1296.88 113.679 1297.4 115.546 1297.4C117.412 1297.4 118.829 1296.88 119.796 1295.85C120.762 1294.78 121.396 1293.4 121.696 1291.7C121.996 1289.97 122.146 1287.83 122.146 1285.3Z" fill="#ECE9E8"/>
</svg>
