<svg width="50" height="50" viewBox="0 0 50 50" fill="none" xmlns="http://www.w3.org/2000/svg">
<g id="ph:magnet-bold">
<path id="Vector" d="M9.01544 40.7343C10.6761 42.4292 12.6579 43.7762 14.8451 44.6964C17.0322 45.6166 19.3809 46.0916 21.7537 46.0937L21.8221 46.0937C24.1856 46.1 26.5268 45.6371 28.7101 44.7319C30.8933 43.8267 32.8752 42.4971 34.5408 40.8202L46.5311 28.6777C47.2571 27.9436 47.6631 26.952 47.6601 25.9196C47.6572 24.8871 47.2457 23.8978 46.5154 23.1679L40.9178 17.5781C40.5556 17.2141 40.1249 16.9256 39.6505 16.7291C39.1762 16.5327 38.6675 16.4322 38.1541 16.4335L38.1326 16.4335C37.6156 16.4342 37.1039 16.5381 36.6276 16.7394C36.1513 16.9406 35.72 17.2351 35.3592 17.6054L23.4705 29.791C23.0341 30.2186 22.4486 30.46 21.8376 30.4644C21.2265 30.4688 20.6377 30.2357 20.1951 29.8144C19.9779 29.6021 19.8055 29.3483 19.6881 29.0682C19.5707 28.7881 19.5107 28.4873 19.5115 28.1835C19.5049 27.5192 19.762 26.8793 20.2264 26.4042L32.3846 14.6484C32.7564 14.2876 33.0527 13.8565 33.2563 13.3802C33.4598 12.9039 33.5667 12.3918 33.5705 11.8738C33.5743 11.3557 33.475 10.8421 33.2785 10.3629C33.0819 9.88357 32.792 9.44816 32.4256 9.08197L26.8279 3.48431C26.0981 2.75983 25.1129 2.351 24.0845 2.34588C23.0561 2.34077 22.0669 2.73978 21.3299 3.45697L9.26739 15.2617L9.24981 15.2792C2.21661 22.3085 2.1131 33.7285 9.01544 40.7343ZM38.16 21.4433L42.6522 25.9355L39.0994 29.5312L34.6307 25.0624L38.16 21.4433ZM24.0584 7.34564L28.5506 11.8378L24.9158 15.3535L20.4471 10.8867L24.0584 7.34564ZM12.5565 18.5995L17.0936 14.1601L21.5428 18.6074L16.951 23.0468L16.9217 23.0742C16.2492 23.7516 15.7176 24.5555 15.3576 25.4395C14.9976 26.3235 14.8162 27.2701 14.824 28.2245C14.8269 29.1515 15.016 30.0685 15.38 30.921C15.7441 31.7735 16.2756 32.5443 16.9432 33.1874C18.2748 34.4564 20.0486 35.1564 21.888 35.1389C23.7273 35.1214 25.4875 34.3878 26.7947 33.0937L26.8143 33.0722L31.3553 28.4199L35.8045 32.8671L31.2147 37.5156C29.9842 38.753 28.5204 39.7341 26.9082 40.4019C25.2959 41.0697 23.5672 41.4111 21.8221 41.4062L21.7713 41.4062C20.0173 41.404 18.2813 41.0524 16.6646 40.372C15.0479 39.6916 13.583 38.696 12.3553 37.4433C7.25568 32.2695 7.34747 23.8183 12.5565 18.5995Z" fill="#EAE8E8"/>
</g>
</svg>
