<svg width="40" height="40" viewBox="0 0 40 40" fill="none" xmlns="http://www.w3.org/2000/svg">
<g id="iconoir:pharmacy-cross-tag">
<g id="Group">
<path id="Vector" d="M35 13.3333V26.6667C35 28.8768 34.122 30.9964 32.5592 32.5592C30.9964 34.122 28.8768 35 26.6667 35H13.3333C11.1232 35 9.00358 34.122 7.44078 32.5592C5.87797 30.9964 5 28.8768 5 26.6667V13.3333C5 11.1232 5.87797 9.00358 7.44078 7.44078C9.00358 5.87797 11.1232 5 13.3333 5H26.6667C28.8768 5 30.9964 5.87797 32.5592 7.44078C34.122 9.00358 35 11.1232 35 13.3333Z" stroke="#EAE8E8" stroke-width="4" stroke-linecap="round" stroke-linejoin="round"/>
<path id="Vector_2" d="M23.1667 30H16.8333C16.5681 30 16.3138 29.8946 16.1262 29.7071C15.9387 29.5196 15.8333 29.2652 15.8333 29V25.1667C15.8333 24.9015 15.728 24.6471 15.5404 24.4596C15.3529 24.272 15.0985 24.1667 14.8333 24.1667H11C10.7348 24.1667 10.4804 24.0613 10.2929 23.8738C10.1054 23.6862 10 23.4319 10 23.1667V16.8333C10 16.5681 10.1054 16.3138 10.2929 16.1262C10.4804 15.9387 10.7348 15.8333 11 15.8333H14.8333C15.0985 15.8333 15.3529 15.728 15.5404 15.5404C15.728 15.3529 15.8333 15.0985 15.8333 14.8333V11C15.8333 10.7348 15.9387 10.4804 16.1262 10.2929C16.3138 10.1054 16.5681 10 16.8333 10H23.1667C23.4319 10 23.6862 10.1054 23.8738 10.2929C24.0613 10.4804 24.1667 10.7348 24.1667 11V14.8333C24.1667 15.0985 24.272 15.3529 24.4596 15.5404C24.6471 15.728 24.9015 15.8333 25.1667 15.8333H29C29.2652 15.8333 29.5196 15.9387 29.7071 16.1262C29.8946 16.3138 30 16.5681 30 16.8333V23.1667C30 23.4319 29.8946 23.6862 29.7071 23.8738C29.5196 24.0613 29.2652 24.1667 29 24.1667H25.1667C24.9015 24.1667 24.6471 24.272 24.4596 24.4596C24.272 24.6471 24.1667 24.9015 24.1667 25.1667V29C24.1667 29.2652 24.0613 29.5196 23.8738 29.7071C23.6862 29.8946 23.4319 30 23.1667 30Z" stroke="#EAE8E8" stroke-width="2"/>
</g>
</g>
</svg>
