<svg width="111" height="113" viewBox="0 0 111 113" fill="none" xmlns="http://www.w3.org/2000/svg">
<g id="Vector" filter="url(#filter0_d_370_1000)">
<path d="M55.1875 0C45.0636 0 35.167 3.0021 26.7493 8.62665C18.3315 14.2512 11.7707 22.2456 7.89644 31.5989C4.02218 40.9522 3.0085 51.2443 4.98358 61.1737C6.95866 71.1031 11.8338 80.2238 18.9925 87.3825C26.1512 94.5412 35.2719 99.4164 45.2013 101.391C55.1307 103.367 65.4228 102.353 74.7761 98.4786C84.1294 94.6043 92.1238 88.0435 97.7484 79.6257C103.373 71.208 106.375 61.3114 106.375 51.1875C106.375 37.6117 100.982 24.592 91.3825 14.9925C81.783 5.39295 68.7633 0 55.1875 0ZM82.4156 54.4598L38.5406 76.3973C37.9831 76.676 37.3635 76.8074 36.7409 76.7792C36.1182 76.751 35.5131 76.5641 34.983 76.2362C34.4529 75.9083 34.0154 75.4504 33.7121 74.9059C33.4088 74.3613 33.2497 73.7483 33.25 73.125V29.25C33.2504 28.627 33.4099 28.0144 33.7134 27.4704C34.017 26.9264 34.4545 26.4689 34.9845 26.1415C35.5145 25.814 36.1194 25.6274 36.7418 25.5994C37.3641 25.5714 37.9833 25.7028 38.5406 25.9813L82.4156 47.9188C83.0221 48.2228 83.5321 48.6895 83.8885 49.2668C84.2449 49.844 84.4336 50.5091 84.4336 51.1875C84.4336 51.8659 84.2449 52.531 83.8885 53.1082C83.5321 53.6855 83.0221 54.1522 82.4156 54.4562" fill="#C02327"/>
</g>
<defs>
<filter id="filter0_d_370_1000" x="0" y="0" width="110.375" height="112.375" filterUnits="userSpaceOnUse" color-interpolation-filters="sRGB">
<feFlood flood-opacity="0" result="BackgroundImageFix"/>
<feColorMatrix in="SourceAlpha" type="matrix" values="0 0 0 0 0 0 0 0 0 0 0 0 0 0 0 0 0 0 127 0" result="hardAlpha"/>
<feOffset dy="6"/>
<feGaussianBlur stdDeviation="2"/>
<feComposite in2="hardAlpha" operator="out"/>
<feColorMatrix type="matrix" values="0 0 0 0 0 0 0 0 0 0 0 0 0 0 0 0 0 0 0.25 0"/>
<feBlend mode="normal" in2="BackgroundImageFix" result="effect1_dropShadow_370_1000"/>
<feBlend mode="normal" in="SourceGraphic" in2="effect1_dropShadow_370_1000" result="shape"/>
</filter>
</defs>
</svg>
