<svg width="60" height="61" viewBox="0 0 60 61" fill="none" xmlns="http://www.w3.org/2000/svg">
<g id="bx:up-arrow">
<path id="Vector" d="M15.5669 7.99997L15.5669 53C15.5683 53.4556 15.694 53.9022 15.9303 54.2917C16.1667 54.6812 16.5048 54.9988 16.9083 55.2105C17.3117 55.4221 17.7653 55.5197 18.2201 55.4927C18.6749 55.4658 19.1137 55.3153 19.4894 55.0575L51.9894 32.5575C53.3369 31.625 53.3369 29.38 51.9894 28.445L19.4894 5.94497C19.1145 5.68453 18.6755 5.53181 18.2199 5.50338C17.7643 5.47496 17.3097 5.57193 16.9054 5.78375C16.501 5.99558 16.1625 6.31416 15.9265 6.70488C15.6905 7.0956 15.5662 7.54352 15.5669 7.99997ZM46.1744 30.5L20.5669 48.23L20.5669 12.77L46.1744 30.5Z" fill="#EAE8E8"/>
</g>
</svg>
