<svg width="53" height="52" viewBox="0 0 53 52" fill="none" xmlns="http://www.w3.org/2000/svg">
<g id="uil:presentation-check">
<path id="Vector" d="M22.7947 25.3716C22.9961 25.5747 23.2357 25.7359 23.4998 25.8459C23.7638 25.9559 24.047 26.0125 24.333 26.0125C24.619 26.0125 24.9022 25.9559 25.1663 25.8459C25.4303 25.7359 25.6699 25.5747 25.8713 25.3716L34.538 16.705C34.74 16.503 34.9003 16.2631 35.0096 15.9992C35.1189 15.7352 35.1752 15.4523 35.1752 15.1666C35.1752 14.881 35.1189 14.5981 35.0096 14.3341C34.9003 14.0702 34.74 13.8303 34.538 13.6283C34.336 13.4263 34.0962 13.266 33.8322 13.1567C33.5683 13.0474 33.2854 12.9911 32.9997 12.9911C32.714 12.9911 32.4311 13.0474 32.1671 13.1567C31.9032 13.266 31.6634 13.4263 31.4613 13.6283L24.333 20.7783L21.538 17.9616C21.13 17.5537 20.5767 17.3244 19.9997 17.3244C19.4227 17.3244 18.8693 17.5537 18.4613 17.9616C18.0534 18.3696 17.8241 18.923 17.8241 19.5C17.8241 20.077 18.0534 20.6303 18.4613 21.0383L22.7947 25.3716ZM45.9997 30.3333H43.833V8.66665H45.9997C46.5743 8.66665 47.1254 8.43837 47.5317 8.03204C47.9381 7.62572 48.1663 7.07462 48.1663 6.49998C48.1663 5.92534 47.9381 5.37424 47.5317 4.96791C47.1254 4.56159 46.5743 4.33331 45.9997 4.33331H6.99967C6.42504 4.33331 5.87394 4.56159 5.46761 4.96791C5.06128 5.37424 4.83301 5.92534 4.83301 6.49998C4.83301 7.07462 5.06128 7.62572 5.46761 8.03204C5.87394 8.43837 6.42504 8.66665 6.99967 8.66665H9.16634V30.3333H6.99967C6.42504 30.3333 5.87394 30.5616 5.46761 30.9679C5.06128 31.3742 4.83301 31.9253 4.83301 32.5C4.83301 33.0746 5.06128 33.6257 5.46761 34.032C5.87394 34.4384 6.42504 34.6666 6.99967 34.6666H24.333V37.1583L14.4747 43.6583C14.0702 43.9087 13.7594 44.2852 13.5902 44.7297C13.4209 45.1742 13.4027 45.6621 13.5382 46.118C13.6738 46.574 13.9556 46.9726 14.3402 47.2525C14.7248 47.5324 15.1908 47.6779 15.6663 47.6666C16.0923 47.6715 16.5091 47.5427 16.858 47.2983L24.333 42.3583V45.5C24.333 46.0746 24.5613 46.6257 24.9676 47.032C25.3739 47.4384 25.925 47.6666 26.4997 47.6666C27.0743 47.6666 27.6254 47.4384 28.0317 47.032C28.4381 46.6257 28.6663 46.0746 28.6663 45.5V42.3583L36.1413 47.2983C36.4903 47.5427 36.907 47.6715 37.333 47.6666C37.7959 47.6631 38.2455 47.5113 38.6159 47.2337C38.9863 46.956 39.258 46.567 39.3913 46.1237C39.5245 45.6803 39.5123 45.206 39.3563 44.7701C39.2004 44.3343 38.9089 43.9598 38.5247 43.7016L28.6663 37.2016V34.6666H45.9997C46.5743 34.6666 47.1254 34.4384 47.5317 34.032C47.9381 33.6257 48.1663 33.0746 48.1663 32.5C48.1663 31.9253 47.9381 31.3742 47.5317 30.9679C47.1254 30.5616 46.5743 30.3333 45.9997 30.3333ZM39.4997 30.3333H13.4997V8.66665H39.4997V30.3333Z" fill="#EAE8E8"/>
</g>
</svg>
