<svg width="25" height="24" viewBox="0 0 25 24" fill="none" xmlns="http://www.w3.org/2000/svg">
<g id="mingcute:check-2-fill" clip-path="url(#clip0_173_1939)">
<g id="Group">
<path id="Vector" fill-rule="evenodd" clip-rule="evenodd" d="M19.9954 3.13296C20.217 2.99967 20.4816 2.95739 20.7337 3.01501C20.9858 3.07262 21.2057 3.22564 21.3474 3.44196L22.3374 4.95196C22.4665 5.14922 22.5217 5.38573 22.4933 5.61975C22.465 5.85376 22.3548 6.07024 22.1824 6.23096L22.1794 6.23496L22.1654 6.24796L22.1084 6.30096L21.8834 6.51596C20.6384 7.72356 19.4311 8.96949 18.2634 10.252C16.0664 12.668 13.4574 15.83 11.7014 18.898C11.2114 19.754 10.0144 19.938 9.3044 19.199L2.8194 12.461C2.72647 12.3644 2.6539 12.2501 2.60602 12.1249C2.55813 11.9997 2.53591 11.8661 2.54067 11.7322C2.54543 11.5982 2.57707 11.4666 2.63371 11.3451C2.69036 11.2236 2.77085 11.1147 2.8704 11.025L4.8304 9.25696C5.00264 9.10167 5.2235 9.01107 5.45518 9.00067C5.68685 8.99028 5.91494 9.06072 6.1004 9.19996L9.4094 11.681C14.5784 6.58396 17.5094 4.62796 19.9954 3.13296Z" fill="#C02327"/>
</g>
</g>
<defs>
<clipPath id="clip0_173_1939">
<rect width="24" height="24" fill="white" transform="translate(0.5)"/>
</clipPath>
</defs>
</svg>
