<svg width="40" height="40" viewBox="0 0 40 40" fill="none" xmlns="http://www.w3.org/2000/svg">
<g id="fluent:building-retail-20-regular" clip-path="url(#clip0_346_1238)">
<path id="Vector" d="M9.69853 10.9717C9.37148 10.9717 9.05782 11.1021 8.82656 11.3343C8.59529 11.5665 8.46537 11.8814 8.46537 12.2098V19.6383C8.46537 19.9667 8.59529 20.2816 8.82656 20.5138C9.05782 20.746 9.37148 20.8764 9.69853 20.8764H31.8954C32.2225 20.8764 32.5361 20.746 32.7674 20.5138C32.9987 20.2816 33.1286 19.9667 33.1286 19.6383V12.2098C33.1286 11.8814 32.9987 11.5665 32.7674 11.3343C32.5361 11.1021 32.2225 10.9717 31.8954 10.9717H9.69853ZM10.9317 18.4002V13.4478H30.6623V18.4002H10.9317ZM24.4965 23.3526C24.1694 23.3526 23.8557 23.4831 23.6245 23.7152C23.3932 23.9474 23.2633 24.2623 23.2633 24.5907V29.5431C23.2633 29.8715 23.3932 30.1864 23.6245 30.4186C23.8557 30.6507 24.1694 30.7812 24.4965 30.7812H31.8954C32.2225 30.7812 32.5361 30.6507 32.7674 30.4186C32.9987 30.1864 33.1286 29.8715 33.1286 29.5431V24.5907C33.1286 24.2623 32.9987 23.9474 32.7674 23.7152C32.5361 23.4831 32.2225 23.3526 31.8954 23.3526H24.4965ZM25.7296 28.305V25.8288H30.6623V28.305H25.7296ZM1.06641 4.78118C1.06641 3.79609 1.45617 2.85135 2.14996 2.15479C2.84375 1.45822 3.78473 1.0669 4.76589 1.0669H36.8281C37.7017 1.06559 38.5477 1.37477 39.2161 1.93966C39.8844 2.50455 40.3321 3.28871 40.4798 4.15325C40.6275 5.01779 40.4657 5.90691 40.023 6.66315C39.5804 7.41938 38.8854 7.99391 38.0612 8.28499V34.4955C38.0612 34.8238 37.9313 35.1387 37.7001 35.3709C37.4688 35.6031 37.1551 35.7336 36.8281 35.7336H4.76589C4.43884 35.7336 4.12518 35.6031 3.89391 35.3709C3.66265 35.1387 3.53273 34.8238 3.53273 34.4955V8.28499C2.81114 8.02885 2.18643 7.55431 1.74471 6.92678C1.303 6.29925 1.06601 5.54961 1.06641 4.78118ZM4.76589 3.54309C4.43884 3.54309 4.12518 3.67353 3.89391 3.90572C3.66265 4.13791 3.53273 4.45282 3.53273 4.78118C3.53273 5.10955 3.66265 5.42446 3.89391 5.65665C4.12518 5.88884 4.43884 6.01928 4.76589 6.01928H36.8281C37.1551 6.01928 37.4688 5.88884 37.7001 5.65665C37.9313 5.42446 38.0612 5.10955 38.0612 4.78118C38.0612 4.45282 37.9313 4.13791 37.7001 3.90572C37.4688 3.67353 37.1551 3.54309 36.8281 3.54309H4.76589ZM5.99905 8.49547V33.2574H8.46537V24.5907C8.46537 24.2623 8.59529 23.9474 8.82656 23.7152C9.05782 23.4831 9.37148 23.3526 9.69853 23.3526H19.5638C19.8909 23.3526 20.2045 23.4831 20.4358 23.7152C20.6671 23.9474 20.797 24.2623 20.797 24.5907V33.2574H35.5949V8.49547H5.99905ZM10.9317 33.2574H18.3307V25.8288H10.9317V33.2574Z" fill="#EAE8E8"/>
</g>
<defs>
<clipPath id="clip0_346_1238">
<rect width="40" height="40" fill="white"/>
</clipPath>
</defs>
</svg>
