<svg width="45" height="49" viewBox="0 0 45 49" fill="none" xmlns="http://www.w3.org/2000/svg">
<g id="ri:contract-line">
<path id="Vector" d="M40.25 16.3333V24.4999H36.1667V18.3749H25.9583V8.16659H7.58333V40.8333H19.8333V44.9166H5.52738C4.99004 44.9166 4.47467 44.7033 4.09453 44.3235C3.71438 43.9437 3.50054 43.4286 3.5 42.8913V6.10859C3.5 5.01221 4.41671 4.08325 5.54575 4.08325H27.9939L40.25 16.3333ZM25.5214 31.2925C25.601 29.8083 26.7464 28.5996 28.2246 28.4424L30.0008 28.2545C30.2126 28.2323 30.412 28.1437 30.5705 28.0014L31.8996 26.807C32.4351 26.3261 33.1244 26.0517 33.8439 26.033C34.5633 26.0143 35.2659 26.2525 35.8257 26.7049L37.2181 27.8278C37.3815 27.9605 37.5856 28.0381 37.798 28.0504L39.5824 28.1463C41.0667 28.226 42.2753 29.3713 42.4325 30.8495L42.6204 32.6258C42.6425 32.8376 42.7311 33.037 42.8735 33.1954L44.0679 34.5245C45.0622 35.6311 45.1051 37.295 44.17 38.4506L43.0471 39.843C42.9139 40.0082 42.836 40.211 42.8245 40.4229L42.7286 42.2073C42.6904 42.9262 42.3973 43.6079 41.9019 44.1302C41.4065 44.6526 40.7413 44.9813 40.0254 45.0575L38.2492 45.2453C38.0374 45.2676 37.838 45.3562 37.6795 45.4985L36.3504 46.6928C35.8149 47.1737 35.1256 47.4481 34.4062 47.4668C33.6867 47.4855 32.9841 47.2473 32.4243 46.7949L31.0319 45.672C30.8667 45.5388 30.6639 45.4609 30.452 45.4495L28.6676 45.3535C27.9488 45.3153 27.267 45.0222 26.7447 44.5269C26.2224 44.0315 25.8936 43.3662 25.8175 42.6503L25.6296 40.8741C25.6074 40.6623 25.5188 40.4629 25.3765 40.3045L24.1821 38.9753C23.7012 38.4398 23.4268 37.7505 23.4081 37.0311C23.3894 36.3116 23.6276 35.609 24.08 35.0492L25.2029 33.6568C25.3361 33.4917 25.414 33.2888 25.4255 33.077L25.5214 31.2925ZM40.3113 34.7695L38.1471 32.6053L33.1042 37.6483L30.1029 34.647L27.9388 36.8112L33.1042 41.9766L40.3113 34.7695Z" fill="#ECE9E8"/>
</g>
</svg>
