<svg width="70" height="70" viewBox="0 0 70 70" fill="none" xmlns="http://www.w3.org/2000/svg">
<g id="ri:netflix-fill">
<path id="Vector" d="M32.935 11.1241L38.8208 27.7695L39.9758 31.0245L39.9963 16.9954L40.0254 2.94288H52.4796L52.5 34.6237C52.5088 52.0654 52.4913 66.3862 52.4563 66.4154C52.4213 66.4416 51.8467 66.4154 51.1846 66.3366C47.9478 65.9508 44.6986 65.6765 41.4429 65.5141C40.8238 65.4907 40.2054 65.4538 39.5879 65.4033C39.5792 65.3945 38.7917 63.1808 37.3246 59.0333V59.0216L31.0712 41.3437L30.0796 38.5612L30.0563 51.937C30.0388 64.6683 30.0271 65.3829 29.89 65.3829C29.4146 65.3829 25.3108 65.6454 23.94 65.7795C23.0417 65.8583 21.2392 66.042 19.9442 66.2025C18.6433 66.3512 17.5642 66.4504 17.5437 66.43C17.5204 66.4125 17.5 52.112 17.5 34.6587V2.92246H17.5146V2.91663H30.0213L30.1029 3.14996C30.1233 3.19663 30.2925 3.66329 30.5608 4.42454L32.4304 9.61038L32.935 11.057V11.1241Z" fill="#EAE8E8"/>
</g>
</svg>
