<svg width="98" height="99" viewBox="0 0 98 99" fill="none" xmlns="http://www.w3.org/2000/svg">
<g id="ri:nft-fill">
<path id="Vector" d="M36.7499 49.1017C38.9159 49.1017 40.9931 48.2413 42.5246 46.7098C44.0562 45.1782 44.9166 43.101 44.9166 40.9351C44.9166 38.7691 44.0562 36.6919 42.5246 35.1604C40.9931 33.6288 38.9159 32.7684 36.7499 32.7684C34.584 32.7684 32.5068 33.6288 30.9752 35.1604C29.4437 36.6919 28.5833 38.7691 28.5833 40.9351C28.5833 43.101 29.4437 45.1782 30.9752 46.7098C32.5068 48.2413 34.584 49.1017 36.7499 49.1017ZM48.9999 4.18506L87.7916 26.6434V71.5601L48.9999 94.0184L10.2083 71.5601V26.6434L48.9999 4.18506ZM18.3749 31.3515V66.852L28.0606 72.4584L61.0253 48.2851L79.6249 59.4489V31.3556L48.9999 13.6176L18.3749 31.3515Z" fill="#EAE8E8"/>
</g>
</svg>
