<svg width="81" height="80" viewBox="0 0 81 80" fill="none" xmlns="http://www.w3.org/2000/svg">
<g id="ri:space-ship-fill">
<path id="Vector" d="M10.0996 60.1633C14.6867 39.8657 24.4882 21.1154 38.5363 5.76332C38.7861 5.49157 39.0895 5.27463 39.4275 5.12624C39.7654 4.97784 40.1305 4.90121 40.4996 4.90121C40.8687 4.90121 41.2338 4.97784 41.5717 5.12624C41.9097 5.27463 42.2132 5.49157 42.4629 5.76332C56.5109 21.1155 66.3123 39.8658 70.8996 60.1633C63.6677 61.6856 56.3314 62.6606 48.9529 63.08L41.9896 77C41.851 77.2765 41.6383 77.5089 41.3752 77.6714C41.112 77.8338 40.8089 77.9199 40.4996 77.9199C40.1904 77.9199 39.8872 77.8338 39.6241 77.6714C39.3609 77.5089 39.1482 77.2765 39.0096 77L32.0463 63.0767C24.6677 62.6586 17.3313 61.6869 10.0996 60.1633ZM40.4996 49.9833C43.1518 49.9833 45.6953 48.9298 47.5707 47.0544C49.446 45.179 50.4996 42.6355 50.4996 39.9833C50.4996 37.3312 49.446 34.7876 47.5707 32.9123C45.6953 31.0369 43.1518 29.9833 40.4996 29.9833C37.8474 29.9833 35.3039 31.0369 33.4285 32.9123C31.5532 34.7876 30.4996 37.3312 30.4996 39.9833C30.4996 42.6355 31.5532 45.179 33.4285 47.0544C35.3039 48.9298 37.8474 49.9833 40.4996 49.9833Z" fill="#EAE8E8"/>
</g>
</svg>
