<svg width="39" height="39" viewBox="0 0 39 39" fill="none" xmlns="http://www.w3.org/2000/svg">
<g id="ep:arrow-up-bold">
<path id="Vector" d="M10.8672 4.32304C10.4102 4.78014 10.1535 5.40002 10.1535 6.04635C10.1535 6.69269 10.4102 7.31257 10.8672 7.76967L22.9328 19.8353L10.8672 31.9009C10.4232 32.3606 10.1775 32.9764 10.183 33.6155C10.1886 34.2546 10.4449 34.8659 10.8969 35.3179C11.3488 35.7698 11.9602 36.0261 12.5993 36.0317C13.2384 36.0372 13.8541 35.7916 14.3138 35.3475L28.1027 21.5586C28.5597 21.1015 28.8164 20.4816 28.8164 19.8353C28.8164 19.189 28.5597 18.5691 28.1027 18.112L14.3138 4.32304C13.8567 3.86608 13.2368 3.60937 12.5905 3.60937C11.9442 3.60937 11.3243 3.86608 10.8672 4.32304Z" fill="#EAE8E8"/>
</g>
</svg>
