<svg width="156" height="168" viewBox="0 0 156 168" fill="none" xmlns="http://www.w3.org/2000/svg">
<path id="Vector" d="M156 48.1256V119.874C155.995 122.023 155.413 124.132 154.316 125.979C153.218 127.827 151.645 129.346 149.76 130.377L83.76 166.514C81.9965 167.489 80.0147 168 78 168C75.9853 168 74.0034 167.489 72.24 166.514L6.24 130.377C4.35516 129.346 2.78178 127.827 1.68414 125.979C0.586501 124.132 0.00487693 122.023 0 119.874V48.1256C0.00487693 45.9765 0.586501 43.8682 1.68414 42.0207C2.78178 40.1732 4.35516 38.6544 6.24 37.6228L72.24 1.48588C74.0034 0.511237 75.9853 0 78 0C80.0147 0 81.9965 0.511237 83.76 1.48588L149.76 37.6228C151.645 38.6544 153.218 40.1732 154.316 42.0207C155.413 43.8682 155.995 45.9765 156 48.1256Z" fill="#C02327"/>
</svg>
