<svg width="144" height="166" viewBox="0 0 144 166" fill="none" xmlns="http://www.w3.org/2000/svg">
<g id="Group 146">
<path id="Vector" d="M72 162.537L3 122.767L2.99999 43.2335L72 3.46264L141 43.2335L141 122.767L72 162.537Z" fill="#C02327" stroke="#EAE8E8" stroke-width="6"/>
<path id="Vector_2" d="M77.7083 92.625C77.3194 93.4551 77.0278 94.3128 76.8333 95.1982C76.6389 96.0837 76.4583 96.9967 76.2917 97.9375H50.6667V92.625H77.7083ZM50.6667 108.562V103.25H76.2083C76.3472 104.163 76.5417 105.062 76.7917 105.948C77.0417 106.833 77.3611 107.705 77.75 108.562H50.6667ZM45.3333 119.188H101.542L106.833 124.5H40V39.5H86.4583L109.333 62.2856V85.8599C108.528 85.1405 107.681 84.4902 106.792 83.9092C105.903 83.3281 104.972 82.8162 104 82.3735V66.0625H82.6667V44.8125H45.3333V119.188ZM88 48.5894V60.75H100.208L88 48.5894ZM89 82C85.9722 83.1344 83.375 84.9053 81.2083 87.3125H50.6667V82H89ZM50.6667 60.75H77.3333V66.0625H50.6667V60.75ZM98.6667 71.375V76.6875H50.6667V71.375H98.6667ZM120 121.844C120 122.563 119.736 123.186 119.208 123.711C118.681 124.237 118.056 124.5 117.333 124.5C116.611 124.5 115.986 124.237 115.458 123.711L103.333 111.675C102.25 112.395 101.083 112.934 99.8333 113.294C98.5833 113.654 97.3056 113.847 96 113.875C94.1667 113.875 92.4444 113.529 90.8333 112.837C89.2222 112.146 87.8056 111.205 86.5833 110.015C85.3611 108.825 84.4028 107.414 83.7083 105.782C83.0139 104.149 82.6667 102.42 82.6667 100.594C82.6667 98.7676 83.0139 97.0521 83.7083 95.4473C84.4028 93.8424 85.3472 92.4452 86.5417 91.2554C87.7361 90.0656 89.1528 89.111 90.7917 88.3916C92.4306 87.6722 94.1667 87.3125 96 87.3125C97.8333 87.3125 99.5556 87.6584 101.167 88.3501C102.778 89.0418 104.181 89.9964 105.375 91.2139C106.569 92.4313 107.528 93.8424 108.25 95.4473C108.972 97.0521 109.333 98.7676 109.333 100.594C109.333 101.894 109.153 103.167 108.792 104.412C108.431 105.657 107.875 106.819 107.125 107.898L119.208 119.976C119.736 120.502 120 121.124 120 121.844ZM88 100.594C88 101.701 88.2083 102.738 88.625 103.707C89.0417 104.675 89.6111 105.519 90.3333 106.238C91.0556 106.958 91.9028 107.525 92.875 107.94C93.8472 108.355 94.8889 108.562 96 108.562C97.1111 108.562 98.1528 108.355 99.125 107.94C100.097 107.525 100.944 106.958 101.667 106.238C102.389 105.519 102.958 104.675 103.375 103.707C103.792 102.738 104 101.701 104 100.594C104 99.487 103.792 98.4494 103.375 97.481C102.958 96.5125 102.389 95.6686 101.667 94.9492C100.944 94.2298 100.097 93.6626 99.125 93.2476C98.1528 92.8325 97.1111 92.625 96 92.625C94.8889 92.625 93.8472 92.8325 92.875 93.2476C91.9028 93.6626 91.0556 94.2298 90.3333 94.9492C89.6111 95.6686 89.0417 96.5125 88.625 97.481C88.2083 98.4494 88 99.487 88 100.594Z" fill="#EAE8E8"/>
</g>
</svg>
