<svg width="144" height="166" viewBox="0 0 144 166" fill="none" xmlns="http://www.w3.org/2000/svg">
<g id="Group 146">
<path id="Vector" d="M72 162.537L3 122.767L2.99999 43.2335L72 3.46264L141 43.2335L141 122.767L72 162.537Z" fill="#C02327" stroke="#EAE8E8" stroke-width="6"/>
<path id="Vector_2" d="M57.8421 80.381H91.5263V88.8571H57.8421V80.381ZM66.2632 114.286H49.4211V46.4762H78.8947V67.6667H99.9474V80.8048L108.368 72.3286V63.4286L83.1053 38H49.4211C47.1877 38 45.0457 38.893 43.4665 40.4826C41.8872 42.0722 41 44.2282 41 46.4762V114.286C41 116.534 41.8872 118.69 43.4665 120.279C45.0457 121.869 47.1877 122.762 49.4211 122.762H66.2632V114.286ZM57.8421 105.81H75.1053L78.8947 101.995V97.3333H57.8421V105.81ZM109.211 84.619C109.632 84.619 110.474 85.0429 110.895 85.4667L116.368 90.9762C117.211 91.8238 117.211 93.5191 116.368 94.3667L112.158 98.6048L103.316 89.7048L107.526 85.4667C107.947 85.0429 108.368 84.619 109.211 84.619ZM109.211 101.148L83.5263 127H74.6842V118.1L100.368 92.2476L109.211 101.148Z" fill="#EAE8E8"/>
</g>
</svg>
