<svg width="58" height="57" viewBox="0 0 58 57" fill="none" xmlns="http://www.w3.org/2000/svg">
<g id="bx:purchase-tag-alt">
<path id="Vector" d="M28.3041 5.44588C28.0839 5.22501 27.8222 5.04983 27.534 4.93041C27.2458 4.81099 26.9369 4.74968 26.625 4.75H14.75C14.4381 4.74968 14.1292 4.81099 13.841 4.93041C13.5529 5.04983 13.2911 5.22501 13.0709 5.44588L5.94588 12.5709C5.7249 12.7911 5.54966 13.0528 5.43023 13.3409C5.3108 13.6291 5.24955 13.9381 5.25 14.25V26.125C5.25 26.7568 5.49938 27.36 5.94588 27.8041L29.6959 51.5541C29.9159 51.7754 30.1776 51.9511 30.4657 52.0709C30.7539 52.1908 31.0629 52.2525 31.375 52.2525C31.6871 52.2525 31.9961 52.1908 32.2843 52.0709C32.5724 51.9511 32.8341 51.7754 33.0541 51.5541L52.0541 32.5541C52.2749 32.3338 52.45 32.072 52.5695 31.7839C52.689 31.4958 52.7505 31.1869 52.7505 30.875C52.7505 30.5631 52.689 30.2542 52.5695 29.9661C52.45 29.678 52.2749 29.4162 52.0541 29.1959L28.3041 5.44588ZM31.375 46.5168L10 25.1418V15.2333L15.7333 9.5H25.6418L47.0168 30.875L31.375 46.5168Z" fill="#EAE8E8"/>
<path id="Vector_2" d="M20.3384 23.75C22.4987 23.75 24.25 21.9987 24.25 19.8384C24.25 17.6781 22.4987 15.9268 20.3384 15.9268C18.1781 15.9268 16.4268 17.6781 16.4268 19.8384C16.4268 21.9987 18.1781 23.75 20.3384 23.75Z" fill="#EAE8E8"/>
</g>
</svg>
