<svg width="100" height="100" viewBox="0 0 100 100" fill="none" xmlns="http://www.w3.org/2000/svg">
<g id="teenyicons:chat-solid" clip-path="url(#clip0_1050_1141)">
<path id="Vector" d="M50 1.78189e-06C36.7439 -0.00353519 24.0292 5.2586 14.6525 14.629C5.27591 23.9993 0.0053034 36.7105 0 49.9667C0.00175072 56.531 1.29643 63.0307 3.81011 69.0947C6.32379 75.1587 10.0073 80.6682 14.6502 85.3087C19.2931 89.9491 24.8046 93.6296 30.8699 96.1401C36.9352 98.6505 43.4357 99.9418 50 99.94C58.7067 99.94 69.4 97.7533 77.0267 93.6267L95.6267 99.7733C96.2141 99.9661 96.8435 99.9918 97.4446 99.8474C98.0458 99.703 98.5949 99.3943 99.0307 98.9558C99.4665 98.5173 99.7717 97.9662 99.9123 97.3641C100.053 96.7621 100.023 96.1328 99.8267 95.5467L93.6533 77.0733C98.1333 69.2533 100 59.0333 100 49.9667C99.9947 36.7105 94.7241 23.9993 85.3475 14.629C75.9708 5.2586 63.2561 -0.00353519 50 1.78189e-06Z" fill="#D9D9D9"/>
</g>
<defs>
<clipPath id="clip0_1050_1141">
<rect width="100" height="100" fill="white"/>
</clipPath>
</defs>
</svg>
