<svg width="40" height="40" viewBox="0 0 40 40" fill="none" xmlns="http://www.w3.org/2000/svg">
<g id="bx:world">
<path id="Vector" d="M20.0007 3.3335C10.8107 3.3335 3.33398 10.8102 3.33398 20.0002C3.33398 29.1902 10.8107 36.6668 20.0007 36.6668C29.1907 36.6668 36.6673 29.1902 36.6673 20.0002C36.6673 10.8102 29.1907 3.3335 20.0007 3.3335ZM6.66732 20.0002C6.66732 18.5018 6.92732 17.0635 7.38565 15.7185L10.0007 18.3335L13.334 21.6668V25.0002L16.6673 28.3335L18.334 30.0002V33.2185C11.769 32.3935 6.66732 26.7868 6.66732 20.0002ZM30.5506 28.1218C29.4623 27.2452 27.8123 26.6668 26.6673 26.6668V25.0002C26.6673 24.1161 26.3161 23.2683 25.691 22.6431C25.0659 22.018 24.218 21.6668 23.334 21.6668H16.6673V16.6668C17.5514 16.6668 18.3992 16.3156 19.0243 15.6905C19.6495 15.0654 20.0007 14.2176 20.0007 13.3335V11.6668H21.6673C22.5514 11.6668 23.3992 11.3156 24.0243 10.6905C24.6495 10.0654 25.0007 9.21755 25.0007 8.3335V7.6485C29.8806 9.63016 33.334 14.4168 33.334 20.0002C33.3337 22.9413 32.3544 25.7987 30.5506 28.1218Z" fill="#EAE8E8"/>
</g>
</svg>
