<svg xmlns="http://www.w3.org/2000/svg" width="43" height="40" viewBox="0 0 43 40" fill="none">
  <g clip-path="url(#clip0_2_33)">
    <path d="M33.8455 18.9282C33.7838 15.9527 32.695 13.2334 30.923 11.1183L35.5258 6.45872L35.3389 6.26952L30.7493 10.9157C28.5153 8.36145 25.2649 6.74074 21.6388 6.70236V0H21.3744V6.70236C17.7175 6.74163 14.4424 8.38911 12.2075 10.9808L7.55354 6.26952L7.36664 6.45872L12.0356 11.1852C10.2962 13.2905 9.22946 15.9839 9.16863 18.9282H0V19.1959H9.30352H33.6956H42.9991V18.9282H33.8446H33.8455Z" fill="#353435"/>
    <path d="M9.16333 19.1958C9.16333 26.0963 14.6892 31.6902 21.5057 31.6902C28.3222 31.6902 33.8481 26.0963 33.8481 19.1958H9.16333Z" fill="#ECE9E8"/>
    <path d="M5.51076 22.1328C5.51076 23.0324 5.15019 23.8481 4.56745 24.438C3.98472 25.0279 3.17982 25.393 2.29028 25.393C3.17982 25.393 3.98472 25.758 4.56745 26.3479C5.15019 26.9378 5.51076 27.7526 5.51076 28.6531C5.51076 27.7526 5.87134 26.9378 6.45408 26.3479C7.03681 25.758 7.84171 25.393 8.73125 25.393C7.86023 25.393 7.03681 25.0279 6.45408 24.438C5.87134 23.8481 5.51076 23.0333 5.51076 22.1328Z" fill="#ECE9E8"/>
    <path d="M37.8594 24.4373C37.2766 23.8474 36.916 23.0326 36.916 22.1321C36.916 23.0317 36.5555 23.8474 35.9727 24.4373C35.39 25.0272 34.5851 25.3922 33.6956 25.3922C34.5851 25.3922 35.39 25.7572 35.9727 26.3472C36.5555 26.9371 36.916 27.7519 36.916 28.6524C36.916 27.7519 37.2766 26.9371 37.8594 26.3472C38.4421 25.7572 39.247 25.3922 40.1365 25.3922C39.2655 25.3922 38.4421 25.0272 37.8594 24.4373Z" fill="#ECE9E8"/>
    <path d="M21.5056 33.4805C21.5056 34.3801 21.1451 35.1958 20.5623 35.7857C19.9796 36.3756 19.1747 36.7406 18.2852 36.7406C19.1747 36.7406 19.9796 37.1056 20.5623 37.6956C21.1451 38.2855 21.5056 39.1003 21.5056 40.0008C21.5056 39.1003 21.8662 38.2855 22.4489 37.6956C23.0317 37.1056 23.8366 36.7406 24.7261 36.7406C23.8551 36.7406 23.0317 36.3756 22.4489 35.7857C21.8662 35.1958 21.5056 34.381 21.5056 33.4805Z" fill="#ECE9E8"/>
  </g>
  <defs>
    <clipPath id="clip0_2_33">
      <rect width="43" height="40" fill="white"/>
    </clipPath>
  </defs>
</svg>