<svg width="172" height="105" viewBox="0 0 172 105" fill="none" xmlns="http://www.w3.org/2000/svg">
<path fill-rule="evenodd" clip-rule="evenodd" d="M69.5292 39.5329C68.5302 43.5577 68 47.7677 68 52.1016C68 65.9141 73.3854 78.4687 82.171 87.7804L45.1208 89.8077L73.8792 94.2438L4.95834 104.102L119 104.102L119 104.092C119.333 104.098 119.666 104.102 120 104.102C148.719 104.102 172 80.8204 172 52.1016C172 23.3828 148.719 0.101565 120 0.101567C119.666 0.101567 119.333 0.104718 119 0.110989L119 0.101567L118.506 0.122624C117.999 0.136914 117.495 0.158437 116.992 0.187108L49.5833 3.05892L89.6982 9.83798C83.7052 14.1424 78.6652 19.69 74.9556 26.1034L-6.63584e-06 28.1964L59.0042 33.1253L37.6833 39.5329L69.5292 39.5329Z" fill="#C02327"/>
</svg>
